{"glyphs":{"0":{"ha":670,"x_min":23,"x_max":647,"o":"m 38 406 q 90 570 53 492 q 178 707 127 648 q 288 800 228 766 q 410 834 349 834 q 519 800 471 834 q 597 707 567 766 q 637 570 628 648 q 632 406 647 492 q 579 242 616 317 q 492 111 543 167 q 382 22 442 54 q 262 -9 323 -9 q 152 22 201 -9 q 73 111 103 54 q 33 242 42 167 q 38 406 23 317 m 137 397 q 132 280 126 335 q 158 184 138 225 q 209 119 178 142 q 281 95 240 95 q 361 119 321 95 q 434 184 400 142 q 493 280 468 225 q 529 397 518 335 q 534 519 540 460 q 509 623 529 578 q 459 696 490 669 q 388 724 429 724 q 307 696 347 724 q 233 623 267 669 q 173 519 198 578 q 137 397 148 460 z "},"1":{"ha":307,"x_min":37,"x_max":273,"o":"m 161 784 q 190 818 171 808 q 228 826 209 827 q 260 812 247 825 q 269 783 273 800 l 140 38 q 118 2 136 12 q 82 -7 100 -8 q 50 5 64 -5 q 39 31 37 15 l 161 784 z "},"2":{"ha":652,"x_min":37,"x_max":620,"o":"m 80 -8 q 47 5 57 -8 q 37 36 37 19 q 47 69 38 53 q 69 91 56 85 q 222 224 148 156 q 355 359 296 292 q 455 491 415 426 q 505 614 495 556 q 489 697 513 666 q 425 735 465 728 q 370 734 399 739 q 313 715 340 730 q 262 675 286 700 q 225 617 239 651 q 200 595 218 598 q 165 600 182 593 q 140 622 149 606 q 144 658 132 637 q 213 748 172 711 q 298 807 254 785 q 389 836 343 829 q 476 834 435 842 q 540 809 510 827 q 589 762 570 791 q 614 694 608 734 q 609 608 620 655 q 553 468 591 537 q 465 333 515 399 q 354 207 414 267 q 233 92 294 146 l 507 92 q 538 71 530 88 q 541 35 545 53 q 524 4 537 18 q 491 -5 510 -9 l 80 -8 z "},"3":{"ha":673,"x_min":50,"x_max":633,"o":"m 338 387 q 317 399 326 385 q 309 430 309 412 q 318 463 309 448 q 349 481 327 479 q 399 489 369 481 q 456 514 429 496 q 505 560 484 532 q 529 632 526 589 q 522 673 530 652 q 496 709 514 693 q 452 733 479 724 q 391 739 425 742 q 359 734 380 738 q 314 719 338 731 q 267 684 290 707 q 228 621 244 661 q 201 599 220 602 q 167 602 183 595 q 142 623 151 608 q 145 658 133 637 q 205 745 171 711 q 275 799 239 779 q 345 828 311 819 q 406 838 380 837 q 492 829 450 841 q 566 793 534 818 q 616 729 598 768 q 629 637 633 690 q 593 521 624 568 q 517 444 563 473 q 581 350 563 411 q 574 199 598 289 q 517 83 555 130 q 435 7 480 35 q 342 -33 391 -22 q 250 -42 293 -45 q 193 -32 225 -41 q 133 -3 161 -23 q 83 52 104 18 q 56 138 61 85 q 64 174 50 159 q 96 195 77 189 q 131 197 114 201 q 148 175 148 193 q 166 113 151 136 q 201 77 182 90 q 241 62 221 65 q 270 57 260 58 q 336 64 304 54 q 397 94 369 73 q 445 142 425 114 q 475 205 465 171 q 481 282 487 248 q 454 339 475 316 q 404 374 434 362 q 338 387 373 387 z "},"4":{"ha":639,"x_min":34,"x_max":609,"o":"m 392 372 l 137 372 q 62 386 90 372 q 42 446 34 400 l 98 784 q 127 817 107 808 q 166 821 146 825 q 198 805 186 818 q 203 776 210 792 l 149 477 l 410 477 l 461 784 q 490 817 471 808 q 529 823 510 826 q 560 808 548 821 q 567 780 572 796 l 514 476 l 575 476 q 604 454 598 472 q 602 418 609 437 q 577 387 595 400 q 534 376 559 373 l 496 376 l 438 38 q 416 2 434 12 q 380 -7 399 -8 q 347 5 361 -5 q 335 31 332 15 l 392 372 z "},"5":{"ha":659,"x_min":41,"x_max":624,"o":"m 156 726 q 184 803 164 773 q 250 833 203 833 l 585 833 q 616 810 608 829 q 621 773 624 792 q 605 740 617 754 q 576 730 593 726 l 263 731 l 221 498 q 395 541 324 541 q 507 508 465 540 q 563 420 548 476 q 570 298 578 365 q 530 143 560 210 q 452 33 500 76 q 340 -26 404 -9 q 195 -27 275 -42 q 122 3 153 -19 q 72 57 91 24 q 47 129 53 90 q 50 212 41 168 q 72 241 54 231 q 110 250 90 251 q 145 239 130 250 q 157 205 160 228 q 159 143 153 168 q 179 102 165 118 q 211 77 193 85 q 248 65 229 68 q 336 75 298 58 q 401 122 374 91 q 443 195 427 153 q 464 282 458 237 q 460 366 469 328 q 420 420 450 403 q 338 433 391 438 q 206 389 286 427 q 181 382 197 385 q 150 385 165 380 q 123 406 134 391 q 111 453 111 422 l 156 726 z "},"6":{"ha":628,"x_min":47,"x_max":587,"o":"m 289 822 q 321 840 300 837 q 359 838 342 844 q 384 817 376 831 q 378 779 392 802 q 277 607 324 689 q 202 456 229 525 q 273 488 233 476 q 347 505 312 500 q 448 492 401 509 q 526 443 494 476 q 572 363 557 410 q 581 263 587 317 q 549 159 574 209 q 487 71 525 110 q 400 7 449 33 q 296 -23 351 -18 q 154 5 209 -31 q 73 104 99 42 q 49 245 47 167 q 77 397 50 323 q 136 531 100 461 q 203 662 171 601 q 261 767 236 723 q 289 822 286 811 m 146 224 q 155 161 144 191 q 186 111 165 132 q 235 78 206 90 q 297 71 264 66 q 362 89 331 73 q 418 129 393 104 q 460 184 444 153 q 480 248 476 216 q 474 311 484 281 q 444 363 464 340 q 396 398 425 385 q 334 408 368 411 q 269 390 301 404 q 210 352 236 376 q 167 296 184 328 q 146 224 149 263 z "},"7":{"ha":658,"x_min":62,"x_max":625,"o":"m 543 831 q 610 804 595 833 q 590 719 625 776 l 163 19 q 132 -10 151 -5 q 96 -8 113 -15 q 71 14 80 -1 q 71 43 62 28 l 481 727 l 157 734 q 125 749 132 734 q 123 782 118 764 q 140 816 127 800 q 170 831 153 831 l 543 831 z "},"8":{"ha":608,"x_min":37,"x_max":585,"o":"m 213 -24 q 87 19 133 -24 q 39 134 42 62 q 80 296 37 205 q 221 481 123 387 q 168 561 186 518 q 150 646 151 604 q 165 728 149 689 q 214 795 182 766 q 292 839 247 823 q 385 856 336 854 q 481 840 434 857 q 564 787 529 823 q 578 769 572 779 q 583 747 585 760 q 570 714 582 734 q 532 665 559 694 l 354 494 q 441 411 408 452 q 490 333 473 370 q 509 262 506 296 q 507 202 511 229 q 475 111 498 153 q 416 39 453 69 q 329 -7 380 9 q 213 -24 278 -24 m 408 206 q 406 273 414 243 q 380 328 397 302 q 337 374 362 353 q 283 414 312 395 q 182 297 220 358 q 136 185 144 236 q 151 101 127 134 q 232 68 174 68 q 354 108 311 66 q 408 206 397 149 m 471 727 q 425 753 452 745 q 371 762 399 762 q 318 755 343 762 q 275 734 293 747 q 250 699 259 720 q 243 651 241 677 q 254 599 244 625 q 288 549 264 572 l 471 727 z "},"9":{"ha":566,"x_min":41,"x_max":543,"o":"m 425 26 q 396 -14 415 -3 q 359 -22 377 -24 q 329 -6 342 -20 q 319 30 316 8 l 387 400 l 376 385 q 291 347 335 357 q 205 342 247 336 q 128 368 163 349 q 72 419 94 388 q 45 490 50 450 q 60 578 41 530 q 134 690 87 640 q 239 774 182 741 q 359 824 297 808 q 480 833 422 840 q 517 813 500 830 q 541 758 534 796 q 543 724 543 743 q 537 665 543 704 q 521 564 532 627 q 490 400 510 500 l 425 26 m 155 545 q 166 464 146 495 q 243 433 186 433 q 304 444 274 433 q 361 486 335 454 q 409 577 388 518 q 444 732 430 636 q 342 719 392 738 q 253 670 293 700 q 186 606 213 640 q 155 545 159 571 z "}," ":{"ha":345,"x_min":0,"x_max":0,"o":""}," ":{"ha":345,"x_min":0,"x_max":0,"o":""},"%":{"ha":632,"x_min":15,"x_max":598,"o":"m 498 807 q 536 829 515 827 q 571 821 556 830 q 592 795 586 812 q 587 762 598 779 l 110 12 q 77 -14 95 -11 q 43 -9 58 -18 q 22 16 28 0 q 24 46 15 31 l 498 807 m 168 751 q 193 795 174 777 q 239 812 213 812 q 279 795 264 812 q 289 751 294 777 q 264 709 285 726 q 218 692 244 692 q 178 709 193 692 q 168 751 164 726 m 332 68 q 357 111 336 94 q 403 129 377 129 q 443 111 429 129 q 453 68 457 94 q 427 25 448 42 q 381 8 407 8 q 341 25 355 8 q 332 68 327 42 z "},"&":{"ha":545,"x_min":22,"x_max":502,"o":"m 206 425 q 184 498 193 454 q 173 589 175 541 q 179 685 171 637 q 210 768 187 732 q 271 824 232 804 q 369 837 309 844 q 439 808 416 831 q 465 749 463 784 q 455 672 468 715 q 419 584 442 629 q 366 494 396 538 q 305 414 335 450 q 313 379 302 410 q 336 313 323 349 q 363 245 350 277 q 382 208 377 214 q 409 308 406 259 q 412 391 412 357 q 425 425 411 412 q 456 438 439 437 q 488 430 473 439 q 502 400 502 420 q 426 113 500 244 l 473 14 q 473 -19 480 -3 q 450 -45 465 -35 q 418 -54 435 -54 q 389 -38 401 -54 l 351 42 q 265 -15 316 3 q 153 -26 214 -33 q 62 6 91 -20 q 27 71 33 33 q 36 157 22 110 q 77 253 50 205 q 138 346 103 301 q 206 425 172 391 m 233 338 q 203 298 221 323 q 166 245 184 274 q 134 185 148 216 q 119 128 121 155 q 131 82 118 102 q 180 56 144 62 q 252 71 216 53 q 313 115 289 88 l 233 338 m 277 500 q 299 532 283 510 q 331 581 315 553 q 361 637 347 608 q 379 692 374 667 q 376 734 384 718 q 342 753 369 751 q 306 742 326 754 q 273 701 286 730 q 258 623 260 671 q 277 500 256 574 z "},"+":{"ha":481,"x_min":30,"x_max":454,"o":"m 180 264 l 71 264 q 37 280 45 264 q 35 315 30 296 q 52 349 39 334 q 81 365 65 365 l 199 366 l 221 479 q 250 513 231 503 q 287 522 269 524 q 317 507 305 519 q 321 476 328 495 l 301 368 l 418 366 q 448 345 441 362 q 450 309 454 327 q 431 277 445 290 q 399 267 416 263 l 281 266 l 260 149 q 237 114 255 123 q 201 106 220 104 q 170 117 183 107 q 160 144 156 127 l 180 264 z "},"-":{"ha":492,"x_min":30,"x_max":454,"o":"m 418 369 q 448 347 441 365 q 450 310 454 328 q 431 277 445 292 q 399 267 416 263 l 71 264 q 37 280 45 264 q 35 315 30 296 q 52 349 39 334 q 81 365 65 365 l 418 369 z "},".":{"ha":171,"x_min":20,"x_max":151,"o":"m 24 56 q 50 99 30 81 q 95 117 69 117 q 136 99 121 117 q 145 56 151 81 q 121 13 141 30 q 75 -4 100 -4 q 35 13 49 -4 q 24 56 20 30 z "},"/":{"ha":464,"x_min":8,"x_max":461,"o":"m 355 807 q 389 829 369 827 q 426 821 410 830 q 452 795 442 812 q 453 762 461 779 l 109 12 q 79 -14 98 -11 q 45 -9 61 -18 q 18 16 28 0 q 15 46 8 31 l 355 807 z "},":":{"ha":218,"x_min":19,"x_max":194,"o":"m 24 178 q 49 221 28 203 q 95 239 69 239 q 135 221 121 239 q 145 178 149 203 q 119 135 140 152 q 73 118 99 118 q 33 135 47 118 q 24 178 19 152 m 69 434 q 94 477 73 460 q 140 495 114 495 q 180 477 165 495 q 190 434 194 460 q 165 391 186 408 q 118 374 144 374 q 79 391 92 374 q 69 434 65 408 z "},"<":{"ha":458,"x_min":45,"x_max":437,"o":"m 72 271 q 48 300 52 283 q 52 334 45 317 q 72 363 58 350 q 100 382 85 377 l 391 530 q 418 526 407 536 q 433 498 430 515 q 429 463 437 481 q 397 433 422 445 l 189 330 l 374 225 q 396 199 396 217 q 385 163 396 180 q 357 136 374 146 q 326 132 339 125 l 72 271 z "},"=":{"ha":494,"x_min":16,"x_max":471,"o":"m 401 281 q 433 258 426 277 q 435 222 439 240 q 416 189 430 203 q 382 179 401 175 l 56 176 q 24 192 31 176 q 20 227 16 208 q 37 261 24 245 q 66 277 50 277 l 401 281 m 433 456 q 464 433 457 452 q 466 397 471 415 q 447 364 461 378 q 414 354 433 350 l 87 351 q 54 367 61 351 q 51 401 46 382 q 68 436 56 420 q 98 452 81 452 l 433 456 z "},">":{"ha":472,"x_min":31,"x_max":431,"o":"m 85 133 q 56 137 71 126 q 37 165 42 148 q 38 200 31 182 q 69 227 45 218 l 293 331 l 119 434 q 98 465 99 446 q 106 500 96 483 q 131 527 115 517 q 161 532 146 537 l 397 384 q 420 365 411 378 q 431 335 430 351 q 422 302 431 319 q 388 273 412 285 l 85 133 z "},"?":{"ha":617,"x_min":56,"x_max":574,"o":"m 180 336 q 195 374 184 361 q 217 395 205 388 q 243 403 229 401 q 269 404 256 404 q 330 416 301 404 q 381 446 358 427 q 421 490 404 465 q 448 544 438 515 q 460 614 460 578 q 450 680 461 650 q 414 730 438 709 q 354 755 391 751 q 236 726 289 762 q 164 616 183 690 q 140 585 159 593 q 102 580 121 576 q 69 596 83 583 q 61 628 56 609 q 110 737 77 692 q 186 810 142 783 q 283 849 231 838 q 392 856 335 860 q 492 819 453 849 q 552 744 532 788 q 573 646 572 700 q 556 538 574 591 q 517 454 543 495 q 457 381 492 414 q 376 328 422 349 q 277 302 331 307 l 262 227 q 240 191 258 201 q 203 182 222 180 q 171 193 184 183 q 160 220 157 203 l 180 336 m 232 42 q 207 -1 227 16 q 161 -19 187 -19 q 121 -1 136 -19 q 111 42 106 16 q 136 85 115 68 q 183 102 157 102 q 222 85 209 102 q 232 42 236 68 z "},"A":{"ha":715,"x_min":24,"x_max":663,"o":"m 555 793 q 592 823 572 815 q 627 828 612 831 q 653 814 643 825 q 663 789 663 803 l 658 31 q 645 1 661 14 q 609 -14 629 -11 q 571 -8 589 -16 q 553 23 553 0 l 564 289 l 311 289 l 115 12 q 80 -12 99 -11 q 47 0 61 -12 q 29 31 34 12 q 35 65 24 50 l 555 793 m 385 392 l 566 392 l 570 640 l 385 392 z "},"B":{"ha":644,"x_min":23,"x_max":623,"o":"m 193 831 q 208 841 194 837 q 239 846 222 845 q 271 843 256 848 q 288 826 286 838 q 285 814 288 821 q 342 821 307 818 q 416 823 377 825 q 495 812 456 822 q 564 781 534 803 q 608 720 593 758 q 614 624 623 682 q 594 563 609 591 q 558 511 579 534 q 511 470 537 488 q 458 438 486 452 q 513 399 488 423 q 553 347 537 376 q 575 283 570 317 q 572 212 581 248 q 431 24 541 77 q 126 -18 321 -30 q 104 -33 122 -27 q 68 -37 87 -38 q 36 -26 49 -35 q 28 3 23 -18 l 193 831 m 471 227 q 457 306 479 274 q 396 357 435 338 q 305 382 357 376 q 201 387 254 389 l 148 85 q 242 76 190 76 q 342 91 294 76 q 425 138 389 106 q 471 227 461 171 m 519 629 q 515 678 524 656 q 479 712 507 700 q 399 725 450 724 q 266 711 347 726 l 218 488 q 303 488 255 486 q 397 506 351 491 q 477 551 442 521 q 519 629 511 581 z "},"C":{"ha":659,"x_min":35,"x_max":654,"o":"m 487 245 q 521 273 500 270 q 556 267 541 277 q 576 235 571 256 q 566 190 582 214 q 505 108 538 145 q 433 44 471 71 q 355 3 395 18 q 274 -12 315 -12 q 164 20 213 -12 q 85 109 115 53 q 45 241 56 165 q 52 406 35 317 q 104 570 66 492 q 192 707 141 648 q 303 800 243 766 q 425 834 363 834 q 568 788 510 834 q 646 639 627 742 q 640 606 654 623 q 606 580 627 589 q 566 574 586 571 q 537 602 545 578 q 488 697 522 671 q 401 723 453 723 q 321 696 361 723 q 246 623 281 669 q 186 519 212 578 q 151 397 161 460 q 146 280 140 335 q 172 184 152 225 q 223 121 191 144 q 296 98 255 98 q 400 139 349 98 q 487 245 452 180 z "},"D":{"ha":675,"x_min":26,"x_max":642,"o":"m 198 819 q 215 829 199 825 q 248 834 231 834 q 278 828 264 834 q 289 807 292 822 q 486 785 411 817 q 597 692 560 753 q 637 547 633 631 q 623 372 642 464 q 568 217 605 290 q 472 90 532 144 q 326 7 412 37 q 125 -18 240 -22 q 104 -33 121 -27 q 68 -38 87 -38 q 38 -30 50 -38 q 33 -3 26 -22 l 198 819 m 146 85 q 296 96 233 77 q 404 155 359 115 q 476 250 449 194 q 518 374 503 307 q 534 513 533 448 q 511 624 536 578 q 429 692 486 670 q 271 703 372 715 l 146 85 z "},"E":{"ha":680,"x_min":35,"x_max":666,"o":"m 113 -22 q 86 -19 100 -22 q 60 -10 72 -16 q 42 4 49 -4 q 38 24 35 12 l 159 765 q 187 819 165 800 q 260 837 209 837 l 625 834 q 659 819 651 834 q 661 784 666 803 q 644 749 656 765 q 614 734 631 734 l 259 730 l 214 475 l 449 473 q 482 458 475 473 q 485 423 490 442 q 467 389 480 404 q 438 373 454 373 l 197 369 l 149 85 l 495 83 q 528 67 521 83 q 531 33 536 52 q 513 -2 526 14 q 484 -18 500 -18 l 113 -22 z "},"F":{"ha":697,"x_min":34,"x_max":667,"o":"m 136 7 q 116 -16 133 -9 q 81 -20 99 -22 q 48 -9 62 -18 q 37 11 34 -1 l 160 766 q 189 820 167 802 q 262 838 210 838 l 627 836 q 660 820 652 836 q 663 785 667 804 q 645 751 658 766 q 616 735 632 735 l 260 731 l 214 468 l 449 467 q 482 451 475 467 q 485 416 490 435 q 467 382 480 397 q 438 366 454 366 l 197 362 l 136 7 l 136 7 z "},"G":{"ha":686,"x_min":35,"x_max":647,"o":"m 294 94 q 365 107 330 94 q 431 151 400 121 q 488 229 463 180 q 528 346 513 277 l 369 343 q 336 359 343 343 q 333 393 328 374 q 351 428 338 412 q 380 444 363 444 l 556 445 q 611 436 593 445 q 635 413 629 427 q 640 382 642 399 q 633 351 637 366 q 574 191 612 259 q 489 78 537 123 q 386 10 441 33 q 274 -12 331 -12 q 164 20 213 -12 q 85 109 115 53 q 45 241 56 165 q 52 406 35 317 q 104 570 66 492 q 192 707 141 648 q 303 800 243 766 q 425 834 363 834 q 503 817 467 834 q 568 770 540 800 q 615 699 595 741 q 646 606 635 656 q 629 581 647 594 q 591 560 612 567 q 553 554 571 553 q 537 571 536 555 q 488 682 522 636 q 403 728 454 728 q 321 700 362 728 q 246 625 281 671 q 186 519 212 579 q 149 397 160 460 q 144 279 138 335 q 170 182 151 224 q 222 117 190 141 q 294 94 254 94 z "},"H":{"ha":751,"x_min":28,"x_max":712,"o":"m 532 372 l 190 372 l 132 38 q 110 2 127 12 q 74 -7 92 -8 q 42 5 56 -5 q 31 31 28 15 l 153 784 q 182 817 163 808 q 222 821 202 825 q 254 805 241 818 q 259 776 266 792 l 208 477 l 549 477 l 601 784 q 630 817 610 808 q 669 823 650 826 q 700 808 688 821 q 707 780 712 796 l 578 38 q 556 2 574 12 q 519 -7 538 -8 q 486 5 500 -5 q 475 31 472 15 l 532 372 z "},"I":{"ha":642,"x_min":31,"x_max":612,"o":"m 209 100 l 315 726 l 195 724 q 162 740 170 724 q 159 774 155 755 q 177 809 164 793 q 206 825 190 825 l 578 825 q 606 803 601 821 q 606 768 612 785 q 584 736 600 750 q 549 727 568 723 l 422 726 l 313 100 l 439 99 q 471 90 460 103 q 481 58 481 76 q 470 23 481 41 q 433 1 458 5 l 62 1 q 39 17 46 1 q 33 52 31 33 q 48 86 35 71 q 85 102 61 102 l 205 100 l 209 100 z "},"J":{"ha":623,"x_min":9,"x_max":593,"o":"m 115 245 q 164 138 127 180 q 254 98 201 96 q 321 135 292 99 q 374 229 351 171 q 414 361 397 288 q 443 512 430 435 q 465 662 456 589 q 484 792 475 735 q 505 821 487 812 q 543 829 522 830 q 578 816 563 827 q 589 783 593 804 q 553 566 570 670 q 517 374 536 463 q 475 214 498 286 q 419 92 452 142 q 342 14 387 41 q 236 -12 297 -14 q 97 44 153 -11 q 18 190 41 99 q 22 235 9 214 q 53 267 34 256 q 91 273 72 277 q 115 245 110 270 z "},"K":{"ha":708,"x_min":37,"x_max":675,"o":"m 161 784 q 191 818 171 808 q 231 825 212 827 q 262 812 250 823 q 269 784 275 800 l 217 480 l 605 818 q 646 819 629 829 q 669 790 662 808 q 671 753 675 772 q 651 727 667 734 l 278 403 q 372 218 326 288 q 460 121 418 149 q 534 101 499 94 q 593 148 568 109 q 621 151 604 157 q 650 130 637 144 q 664 96 662 115 q 648 61 666 77 q 600 19 628 37 q 538 -3 571 1 q 469 2 506 -8 q 392 42 431 12 q 291 153 342 80 q 193 345 240 225 l 140 38 q 119 2 136 12 q 83 -7 102 -8 q 51 5 65 -5 q 39 31 37 15 l 161 784 z "},"L":{"ha":602,"x_min":52,"x_max":563,"o":"m 172 784 q 201 817 180 808 q 240 821 221 825 q 271 804 259 817 q 277 774 283 791 l 161 107 l 533 103 q 559 81 556 99 q 555 43 563 62 q 530 9 547 23 q 498 -1 514 -5 l 125 3 q 98 5 111 3 q 73 14 84 7 q 57 34 62 20 q 56 72 52 47 l 172 784 z "},"M":{"ha":970,"x_min":38,"x_max":910,"o":"m 241 610 l 141 22 q 119 -14 137 -4 q 83 -23 102 -24 q 52 -12 65 -22 q 41 15 38 -1 l 165 784 q 182 811 168 802 q 214 821 197 821 q 248 813 231 821 q 273 792 264 806 l 479 463 l 804 796 q 836 814 817 808 q 871 816 854 819 q 899 802 888 812 q 907 774 910 792 l 777 20 q 755 -16 773 -5 q 719 -24 738 -26 q 686 -13 700 -23 q 675 14 673 -3 l 779 636 l 509 340 q 484 319 500 326 q 452 313 468 312 q 422 321 435 313 q 404 345 408 330 l 241 610 z "},"N":{"ha":774,"x_min":42,"x_max":730,"o":"m 244 602 l 145 24 q 123 -12 141 -1 q 87 -20 106 -22 q 56 -9 69 -19 q 45 18 42 1 l 170 784 q 191 814 175 804 q 226 827 208 825 q 260 821 244 829 q 281 800 275 814 l 524 208 l 618 784 q 647 818 628 808 q 685 826 666 827 q 717 812 704 825 q 726 783 730 800 l 594 22 q 577 -3 591 5 q 545 -14 563 -12 q 513 -11 528 -16 q 492 7 498 -5 l 244 602 z "},"O":{"ha":705,"x_min":41,"x_max":666,"o":"m 57 406 q 109 570 72 492 q 197 707 146 648 q 307 800 247 766 q 429 834 368 834 q 538 800 490 834 q 616 707 586 766 q 656 570 647 648 q 651 406 666 492 q 598 242 635 317 q 511 111 562 167 q 401 22 461 54 q 281 -9 342 -9 q 171 22 220 -9 q 92 111 122 54 q 51 242 61 167 q 57 406 41 317 m 156 397 q 151 280 145 335 q 177 184 157 225 q 228 119 197 142 q 300 95 259 95 q 380 119 340 95 q 453 184 419 142 q 512 280 487 225 q 548 397 537 335 q 553 519 559 460 q 528 623 548 578 q 478 696 509 669 q 407 724 448 724 q 326 696 366 724 q 252 623 286 669 q 192 519 217 578 q 156 397 167 460 z "},"P":{"ha":667,"x_min":33,"x_max":624,"o":"m 137 11 q 109 -11 126 -4 q 73 -17 91 -18 q 44 -9 56 -16 q 35 12 33 -1 l 183 800 q 205 835 189 826 q 241 842 222 844 q 272 830 259 840 q 283 808 285 821 q 339 810 304 808 q 414 810 374 812 q 494 798 454 807 q 564 767 534 789 q 609 707 594 745 q 616 609 624 669 q 566 479 604 533 q 471 393 528 426 q 345 347 415 359 q 195 340 274 334 l 137 11 m 518 612 q 507 661 522 639 q 459 696 492 682 q 376 712 426 709 q 264 704 327 715 l 212 438 q 320 433 269 426 q 413 464 372 441 q 482 525 454 487 q 518 612 510 563 z "},"Q":{"ha":709,"x_min":38,"x_max":663,"o":"m 648 406 q 600 249 633 328 q 510 107 566 170 q 541 87 525 95 q 576 81 557 80 q 602 62 595 77 q 603 31 608 47 q 583 3 598 15 q 543 -7 567 -9 q 487 11 513 -3 q 439 45 461 24 q 364 7 404 22 q 278 -9 324 -7 q 168 20 217 -12 q 89 108 119 52 q 48 241 58 164 q 54 406 38 317 q 106 570 69 492 q 194 707 144 648 q 304 800 244 766 q 426 834 365 834 q 535 800 487 834 q 614 707 583 766 q 654 570 644 648 q 648 406 663 492 m 444 237 q 444 223 442 231 q 448 206 445 216 q 509 300 483 250 q 543 397 534 351 q 548 518 553 460 q 524 622 543 576 q 475 694 506 667 q 404 722 445 722 q 324 694 363 722 q 251 622 285 667 q 192 518 217 576 q 156 397 167 460 q 151 280 145 335 q 176 184 156 225 q 227 121 195 144 q 298 98 258 98 q 336 107 316 98 q 377 133 355 117 q 357 185 363 160 q 351 229 350 210 q 367 264 351 252 q 400 275 382 275 q 431 266 418 275 q 444 237 445 256 z "},"R":{"ha":693,"x_min":33,"x_max":666,"o":"m 647 609 q 605 499 636 547 q 528 418 574 452 q 425 366 483 385 q 305 340 368 346 q 385 199 345 254 q 460 121 425 145 q 534 101 499 94 q 593 148 568 109 q 621 151 604 157 q 650 130 637 144 q 664 96 662 115 q 648 61 666 77 q 600 19 628 37 q 538 -3 571 1 q 469 2 506 -8 q 392 42 431 12 q 292 150 342 79 q 195 338 243 221 l 137 11 q 109 -11 126 -4 q 73 -17 91 -18 q 44 -9 56 -16 q 35 12 33 -1 l 183 800 q 205 835 189 826 q 241 842 222 844 q 272 830 259 840 q 283 808 285 821 q 342 810 305 808 q 423 810 380 812 q 510 798 467 807 q 587 767 553 789 q 637 707 620 745 q 647 609 655 669 m 549 612 q 533 661 553 639 q 474 696 513 682 q 381 712 435 709 q 264 704 327 715 l 212 438 q 325 433 269 426 q 428 464 381 441 q 508 525 475 487 q 549 612 541 563 z "},"S":{"ha":659,"x_min":38,"x_max":620,"o":"m 616 658 q 606 623 620 637 q 573 601 591 608 q 538 598 555 594 q 521 621 522 602 q 503 684 518 661 q 468 719 488 707 q 428 734 448 731 q 399 739 408 738 q 336 733 365 742 q 283 709 307 724 q 243 673 259 693 q 222 632 228 652 q 221 561 210 589 q 257 514 232 533 q 319 480 282 495 q 397 448 357 465 q 474 409 437 430 q 536 357 511 388 q 570 283 562 327 q 560 179 578 240 q 503 74 541 115 q 414 10 464 33 q 311 -17 365 -12 q 206 -11 256 -22 q 143 9 174 -4 q 89 44 113 23 q 52 93 65 65 q 39 155 38 121 q 57 195 41 179 q 92 218 73 212 q 127 218 111 224 q 142 193 142 212 q 176 118 141 144 q 258 85 210 92 q 319 84 289 81 q 376 98 350 87 q 424 130 403 109 q 457 187 445 152 q 465 253 471 225 q 439 301 458 281 q 389 336 419 321 q 326 366 359 351 q 239 404 282 384 q 164 454 195 425 q 119 528 133 484 q 125 637 106 572 q 170 729 138 690 q 243 793 202 768 q 330 829 283 818 q 419 838 376 841 q 475 827 445 837 q 534 797 506 818 q 585 742 563 776 q 616 658 608 708 z "},"T":{"ha":708,"x_min":42,"x_max":669,"o":"m 635 831 q 664 810 659 827 q 661 774 669 792 q 636 743 652 757 q 601 734 620 730 l 389 734 l 269 26 q 247 -10 264 0 q 211 -19 229 -20 q 178 -7 193 -18 q 167 19 164 3 l 282 734 l 83 734 q 50 749 57 734 q 47 782 42 764 q 64 816 52 800 q 94 831 77 831 l 635 831 z "},"U":{"ha":774,"x_min":54,"x_max":731,"o":"m 252 798 q 197 516 214 632 q 171 321 179 400 q 174 188 163 235 q 203 119 184 141 q 241 92 221 96 q 271 87 262 87 q 317 96 290 87 q 372 127 343 104 q 428 186 400 149 q 476 278 456 222 q 524 530 500 406 q 572 783 548 655 q 595 819 578 804 q 631 835 612 833 q 665 826 650 837 q 680 787 680 815 q 606 456 639 601 q 565 220 574 311 q 578 104 556 130 q 670 134 601 79 q 704 143 690 151 q 724 119 718 136 q 728 83 731 103 q 713 56 726 64 q 662 26 694 43 q 593 4 629 9 q 523 15 557 -1 q 467 87 488 31 q 429 53 452 71 q 380 20 407 35 q 326 -5 354 5 q 271 -15 297 -15 q 136 20 182 -16 q 72 114 90 56 q 58 245 54 172 q 72 391 61 317 q 100 568 83 469 q 145 791 118 667 q 170 827 151 817 q 208 836 189 837 q 242 824 228 834 q 252 798 256 814 z "},"V":{"ha":723,"x_min":35,"x_max":675,"o":"m 275 5 q 243 -25 260 -18 q 209 -29 225 -33 q 180 -16 193 -26 q 165 9 168 -5 l 38 773 q 49 803 35 788 q 81 825 62 818 q 117 829 99 833 q 138 802 134 825 l 250 170 l 576 799 q 608 826 589 822 q 643 823 627 830 q 667 800 659 815 q 667 770 675 785 l 275 5 z "},"W":{"ha":1160,"x_min":71,"x_max":1131,"o":"m 574 600 l 301 5 q 268 -25 286 -18 q 234 -29 250 -33 q 206 -16 218 -26 q 191 9 194 -5 l 73 784 q 84 812 71 799 q 117 830 98 825 q 154 829 136 836 q 176 800 172 823 l 275 170 l 545 799 q 568 821 553 814 q 597 829 582 829 q 624 822 612 829 q 640 800 636 815 l 746 171 l 1031 803 q 1063 830 1044 826 q 1099 827 1082 834 q 1123 804 1115 819 q 1123 774 1131 789 l 773 11 q 749 -14 765 -4 q 716 -28 734 -24 q 684 -24 699 -31 q 661 7 669 -16 l 574 600 z "},"X":{"ha":837,"x_min":61,"x_max":815,"o":"m 411 529 l 616 819 q 655 840 633 840 q 692 831 677 841 q 712 804 707 821 q 705 773 718 787 l 450 419 q 469 372 458 401 q 494 308 480 342 q 526 239 509 274 q 565 175 544 203 q 610 127 586 146 q 663 107 635 109 q 707 117 686 106 q 742 155 727 129 q 770 157 753 164 q 799 134 787 149 q 813 100 811 119 q 798 64 815 80 q 739 16 773 34 q 662 -1 704 -3 q 561 29 604 0 q 486 103 518 58 q 428 204 453 148 q 378 317 403 260 l 369 304 l 160 12 q 125 -14 145 -11 q 91 -7 106 -16 q 68 17 76 1 q 71 47 61 33 l 331 418 l 201 773 q 205 804 193 787 q 236 831 217 821 q 275 840 255 841 q 307 819 296 840 l 411 529 z "},"Y":{"ha":618,"x_min":52,"x_max":593,"o":"m 58 39 q 159 218 123 155 q 210 312 194 282 q 228 347 225 342 q 231 354 231 353 l 58 777 q 66 806 54 792 q 95 828 77 821 q 130 831 113 836 q 157 806 148 827 l 300 469 l 487 799 q 519 826 499 822 q 555 823 538 830 q 583 800 572 815 q 586 770 593 785 l 159 20 q 128 -10 148 -4 q 91 -10 109 -16 q 62 10 73 -4 q 58 39 52 24 z "},"Z":{"ha":731,"x_min":46,"x_max":709,"o":"m 85 -9 q 55 2 64 -9 q 48 32 46 14 q 61 71 50 50 q 90 109 72 91 l 553 727 l 168 724 q 138 746 144 728 q 136 783 132 764 q 155 817 141 802 q 189 831 170 831 l 667 831 q 690 824 680 831 q 705 802 701 817 q 703 764 709 787 q 673 711 696 741 l 209 94 l 610 92 q 643 77 636 92 q 645 42 650 61 q 627 7 640 23 q 598 -8 614 -8 l 85 -9 z "},"[":{"ha":509,"x_min":41,"x_max":473,"o":"m 117 -144 q 91 -141 104 -144 q 66 -132 77 -138 q 47 -118 54 -126 q 43 -98 41 -110 l 203 869 q 232 923 210 905 q 305 941 254 941 l 433 943 q 466 927 458 943 q 469 892 473 911 q 451 858 464 873 q 422 842 438 842 l 305 838 l 152 -39 l 262 -42 q 295 -58 288 -42 q 298 -92 302 -73 q 280 -127 293 -111 q 251 -142 267 -142 l 117 -144 z "},"\\":{"ha":471,"x_min":9,"x_max":463,"o":"m 456 46 q 452 16 463 31 q 426 -9 442 0 q 391 -14 410 -18 q 362 12 372 -11 l 18 762 q 19 795 9 779 q 45 821 28 812 q 81 829 61 830 q 115 807 100 827 l 456 46 z "},"]":{"ha":536,"x_min":43,"x_max":486,"o":"m 75 -142 q 51 -127 58 -142 q 45 -92 43 -111 q 60 -58 47 -73 q 99 -42 73 -42 l 208 -39 l 366 838 l 250 842 q 226 858 233 842 q 220 892 218 873 q 235 927 222 911 q 274 943 248 943 l 401 941 q 469 923 453 941 q 479 869 486 905 l 298 -98 q 286 -118 296 -110 q 264 -132 277 -126 q 235 -141 251 -138 q 208 -144 220 -144 l 75 -142 z "},"_":{"ha":458,"x_min":18,"x_max":441,"o":"m 404 72 q 434 50 427 68 q 436 13 441 31 q 417 -20 431 -5 q 385 -30 403 -34 l 57 -33 q 25 -17 33 -33 q 22 18 18 -1 q 39 52 26 37 q 68 68 52 68 l 404 72 z "},"a":{"ha":642,"x_min":23,"x_max":609,"o":"m 340 37 q 257 -5 300 7 q 174 -13 214 -16 q 102 9 134 -9 q 50 58 69 28 q 26 127 30 87 q 43 214 23 167 q 113 325 71 277 q 209 406 156 373 q 321 458 262 439 q 441 481 381 477 q 489 460 475 484 q 503 396 503 435 q 494 309 503 357 q 472 216 484 260 q 456 165 465 193 q 444 115 446 137 q 451 84 441 94 q 496 90 461 75 q 547 132 522 102 q 574 134 559 141 q 600 113 590 127 q 608 80 609 99 q 587 45 608 61 q 528 5 562 20 q 459 -14 494 -11 q 393 -4 425 -16 q 340 37 361 8 m 130 189 q 127 136 123 160 q 142 96 130 113 q 176 71 155 79 q 224 68 197 64 q 298 109 264 73 q 354 191 331 144 q 390 288 377 237 q 404 378 403 339 q 302 352 350 373 q 219 302 255 331 q 160 243 183 274 q 130 189 137 213 z "},"b":{"ha":617,"x_min":53,"x_max":568,"o":"m 567 324 q 540 170 568 236 q 454 60 511 103 q 315 -1 397 18 q 129 -12 233 -19 q 94 -6 110 -11 q 68 12 79 -1 q 56 47 58 24 q 60 109 53 71 l 179 787 q 207 826 189 815 q 242 835 225 837 q 271 819 259 833 q 281 783 283 804 q 275 749 281 781 q 260 670 269 718 q 241 567 251 623 q 222 464 231 511 q 209 385 214 416 q 203 351 203 353 q 330 462 267 434 q 445 477 393 490 q 530 422 496 465 q 567 324 563 380 m 160 85 q 283 90 227 80 q 382 125 340 100 q 448 191 425 151 q 471 289 471 232 q 442 368 471 346 q 375 383 410 392 q 307 345 340 374 q 240 270 273 315 q 179 179 208 225 l 160 85 z "},"c":{"ha":557,"x_min":45,"x_max":519,"o":"m 403 167 q 435 185 416 184 q 469 176 454 186 q 488 149 483 167 q 477 109 492 130 q 375 18 437 52 q 247 -15 313 -15 q 158 5 198 -15 q 92 58 118 24 q 55 137 65 92 q 53 231 45 182 q 89 324 62 279 q 153 403 115 369 q 238 456 191 437 q 334 475 285 476 q 460 435 415 472 q 515 349 505 397 q 506 318 519 332 q 475 296 492 304 q 439 289 457 288 q 418 304 422 290 q 378 357 406 343 q 315 370 350 370 q 260 359 286 370 q 211 328 233 347 q 173 283 189 309 q 152 229 157 258 q 153 175 146 201 q 175 130 160 149 q 213 98 190 110 q 264 87 236 87 q 335 103 305 87 q 403 167 365 119 z "},"d":{"ha":659,"x_min":34,"x_max":636,"o":"m 407 53 q 311 -1 361 15 q 216 -14 262 -18 q 132 8 170 -11 q 70 59 94 27 q 40 132 46 91 q 54 221 34 174 q 125 330 80 281 q 224 413 170 378 q 338 466 278 448 q 452 484 397 484 q 469 574 458 521 q 489 675 479 627 q 507 760 499 724 q 514 796 514 795 q 534 829 518 818 q 566 841 549 841 q 596 828 583 841 q 609 787 609 815 q 550 498 572 616 q 515 301 528 380 q 500 174 503 218 q 500 110 496 130 q 510 88 503 90 q 524 90 517 87 q 574 132 549 102 q 602 134 586 141 q 627 113 617 127 q 635 80 636 99 q 614 45 635 61 q 556 3 587 19 q 495 -14 525 -14 q 444 1 468 -14 q 407 53 420 16 m 140 193 q 151 104 125 136 q 233 72 176 72 q 334 111 294 72 q 396 203 373 149 l 431 381 q 332 366 381 385 q 241 315 282 346 q 174 251 201 285 q 140 193 146 217 z "},"e":{"ha":528,"x_min":35,"x_max":498,"o":"m 401 134 q 435 150 415 149 q 471 141 454 151 q 492 115 487 132 q 483 80 498 99 q 397 9 445 33 q 299 -18 349 -15 q 202 -6 250 -22 q 117 42 155 9 q 58 123 80 75 q 35 231 35 171 q 56 325 35 279 q 111 405 76 370 q 191 461 145 439 q 285 484 236 483 q 369 470 335 486 q 422 427 403 454 q 442 362 442 400 q 416 281 442 324 q 335 195 391 239 q 186 111 279 151 q 229 84 202 94 q 285 76 255 75 q 345 91 315 77 q 401 134 376 104 m 260 393 q 199 359 225 381 q 159 309 174 336 q 138 252 144 282 q 140 194 133 222 q 252 247 212 220 q 313 298 293 274 q 335 342 332 323 q 334 369 338 361 q 303 394 326 388 q 260 393 281 400 z "},"f":{"ha":545,"x_min":24,"x_max":583,"o":"m 247 396 q 209 184 227 289 q 179 4 191 80 q 161 -12 179 -4 q 121 -22 142 -20 q 84 -14 100 -23 q 75 19 68 -5 q 85 87 80 57 q 96 155 90 117 q 113 250 103 194 q 138 395 123 305 l 65 395 q 32 410 39 395 q 29 445 24 426 q 47 479 34 464 q 76 495 60 495 l 159 495 q 202 627 178 566 q 259 732 227 688 q 332 803 292 777 q 423 829 373 829 q 492 814 464 829 q 538 778 519 799 q 564 734 556 757 q 575 693 572 711 q 571 650 583 669 q 541 624 559 632 q 503 621 522 616 q 479 651 484 627 q 459 705 475 686 q 408 726 444 724 q 366 709 387 726 q 328 661 346 692 q 294 588 309 631 q 266 495 278 545 l 420 495 q 450 473 445 491 q 449 438 456 456 q 427 407 442 420 q 393 397 411 393 l 247 396 z "},"g":{"ha":563,"x_min":-5,"x_max":545,"o":"m 206 -243 q 277 -218 247 -247 q 328 -146 307 -190 q 361 -54 349 -103 q 377 34 373 -5 q 249 -12 316 -9 q 131 16 182 -14 q 58 99 80 45 q 64 224 35 153 q 138 336 91 286 q 243 420 186 387 q 363 469 301 453 q 481 481 426 486 q 526 456 513 479 q 543 400 540 434 q 539 325 545 366 q 525 241 533 283 q 505 130 514 193 q 481 1 495 66 q 444 -127 467 -64 q 387 -238 422 -190 q 302 -315 353 -286 q 182 -340 252 -343 q 85 -315 125 -338 q 7 -237 46 -293 q 3 -202 -5 -220 q 31 -174 12 -184 q 69 -160 49 -163 q 99 -168 90 -157 q 149 -224 119 -208 q 206 -243 179 -240 m 156 194 q 168 113 148 144 q 244 81 187 81 q 306 92 275 81 q 363 134 336 102 q 410 224 389 165 q 445 378 431 282 q 344 366 393 384 q 254 318 294 347 q 187 254 214 289 q 156 194 160 220 z "},"h":{"ha":650,"x_min":31,"x_max":620,"o":"m 481 1 q 414 14 438 3 q 382 55 391 26 q 376 136 373 84 q 392 271 380 189 q 393 322 396 302 q 380 353 389 342 q 360 367 372 363 q 339 370 349 370 q 284 359 311 370 q 235 328 258 347 q 198 282 213 308 q 178 228 183 256 l 144 35 q 119 2 138 14 q 80 -10 100 -9 q 45 -1 60 -11 q 38 31 31 9 l 171 783 q 193 819 175 808 q 229 827 210 829 q 261 816 247 826 q 273 789 275 806 l 209 425 q 279 460 243 448 q 355 472 316 472 q 467 427 437 472 q 492 305 498 382 q 482 227 490 267 q 470 154 475 186 q 469 104 465 122 q 492 91 472 85 q 524 107 510 96 q 553 137 537 118 q 578 145 563 148 q 604 131 593 142 q 617 104 614 119 q 606 72 620 88 q 551 20 583 41 q 481 1 519 0 z "},"i":{"ha":293,"x_min":16,"x_max":278,"o":"m 75 442 q 104 475 84 467 q 142 481 123 484 q 172 467 160 479 q 176 438 183 454 q 136 316 152 381 q 115 197 119 251 q 120 110 111 142 q 153 85 129 77 q 184 102 171 91 q 213 132 197 113 q 237 138 222 142 q 263 122 252 134 q 276 93 274 110 q 264 60 278 76 q 210 8 241 28 q 140 -11 178 -12 q 59 21 85 -9 q 24 98 33 52 q 22 198 16 144 q 38 302 27 252 q 60 390 49 351 q 75 442 72 429 m 104 582 q 130 625 110 608 q 175 643 149 643 q 216 625 201 643 q 225 582 231 608 q 201 539 221 556 q 155 522 180 522 q 115 539 129 522 q 104 582 100 556 z "},"j":{"ha":254,"x_min":-292,"x_max":233,"o":"m 91 442 q 111 469 94 458 q 148 480 129 479 q 180 471 167 481 q 190 435 194 461 l 152 121 q 114 -85 137 -4 q 63 -216 91 -167 q 4 -290 35 -266 q -57 -324 -27 -313 q -133 -335 -95 -338 q -203 -316 -171 -332 q -258 -272 -235 -300 q -288 -206 -281 -244 q -279 -165 -292 -180 q -250 -145 -267 -151 q -217 -145 -233 -140 q -197 -167 -201 -151 q -181 -201 -193 -186 q -153 -227 -170 -217 q -117 -239 -137 -237 q -79 -232 -98 -241 q -41 -201 -60 -222 q -3 -138 -22 -179 q 30 -32 15 -96 q 56 127 45 33 l 91 442 m 109 605 q 133 648 113 631 q 179 666 153 666 q 219 648 205 666 q 229 605 233 631 q 203 562 224 579 q 157 545 183 545 q 117 562 132 545 q 109 605 103 579 z "},"k":{"ha":640,"x_min":31,"x_max":620,"o":"m 496 384 q 485 292 505 335 q 426 224 465 250 q 330 197 387 198 q 209 232 274 197 q 270 144 237 176 q 333 96 302 113 q 389 77 363 80 q 429 75 414 73 q 553 146 492 79 q 578 154 563 157 q 604 139 593 151 q 617 111 614 127 q 606 79 620 95 q 513 10 570 31 q 393 -5 456 -11 q 336 4 366 -3 q 274 27 305 11 q 213 73 243 43 q 159 151 183 102 l 134 23 q 111 -8 129 1 q 75 -16 94 -18 q 44 -3 57 -15 q 38 31 31 9 l 171 783 q 192 819 175 808 q 227 827 209 829 q 259 816 245 826 q 270 789 273 806 l 199 420 q 301 475 251 460 q 392 484 351 490 q 460 452 433 477 q 496 384 488 426 m 412 351 q 392 393 410 381 q 347 403 374 406 q 282 382 319 400 q 208 332 245 363 q 277 288 240 297 q 344 286 313 279 q 394 312 374 293 q 412 351 414 331 z "},"l":{"ha":274,"x_min":20,"x_max":258,"o":"m 28 53 q 25 153 20 85 q 42 303 30 221 q 70 472 54 385 q 100 631 85 559 q 125 749 115 703 q 136 796 136 795 q 155 829 140 818 q 188 841 171 841 q 218 828 205 841 q 231 787 231 815 q 172 498 194 616 q 137 301 149 380 q 121 175 125 218 q 121 113 118 132 q 132 92 125 94 q 145 90 138 90 q 170 104 156 91 q 195 132 183 117 q 223 134 208 141 q 248 113 239 127 q 257 80 258 99 q 236 45 256 61 q 178 3 209 19 q 117 -14 146 -14 q 64 1 90 -14 q 28 53 38 15 z "},"m":{"ha":944,"x_min":23,"x_max":921,"o":"m 688 174 q 705 275 705 236 q 695 337 705 315 q 669 368 685 359 q 640 376 654 376 q 554 342 593 376 q 492 264 515 308 q 481 154 490 213 q 461 27 473 95 q 439 -9 457 1 q 403 -18 422 -19 q 370 -6 384 -16 q 359 20 357 4 q 387 206 382 137 q 382 312 391 275 q 358 359 374 349 q 326 370 342 370 q 271 359 297 370 q 222 328 244 347 q 184 282 199 308 q 164 228 170 256 l 130 35 q 108 -1 125 14 q 72 -17 91 -15 q 38 -8 53 -19 q 23 31 23 3 l 96 439 q 118 475 100 465 q 155 484 136 486 q 187 473 174 483 q 198 446 201 463 l 197 425 q 267 460 229 448 q 343 472 304 472 q 433 450 400 472 q 480 387 465 427 q 524 425 500 408 q 570 454 547 442 q 616 471 594 465 q 656 477 639 477 q 782 397 747 475 q 776 153 817 320 q 771 110 769 125 q 779 88 773 95 q 791 81 784 81 q 803 80 799 80 q 830 97 814 81 q 859 127 846 113 q 886 130 871 137 q 911 109 902 123 q 920 76 921 95 q 899 41 920 57 q 844 -1 872 15 q 785 -18 815 -18 q 758 -15 781 -18 q 712 5 735 -12 q 678 62 689 23 q 688 174 667 102 z "},"n":{"ha":636,"x_min":27,"x_max":608,"o":"m 374 178 q 392 279 392 240 q 382 341 392 319 q 356 372 372 363 q 327 380 340 380 q 241 346 279 380 q 179 269 202 312 l 127 30 q 106 -5 122 8 q 72 -19 90 -18 q 41 -9 54 -20 q 27 31 27 3 l 100 439 q 122 475 104 465 q 159 484 140 486 q 191 473 178 483 q 202 446 205 463 l 199 422 q 275 467 236 450 q 343 481 315 483 q 469 401 434 479 q 463 157 503 324 q 458 114 456 129 q 465 92 460 99 q 478 85 471 85 q 490 84 486 84 q 517 101 500 85 q 545 132 533 117 q 573 134 557 141 q 598 113 589 127 q 607 80 608 99 q 586 45 606 61 q 530 3 559 19 q 472 -14 502 -14 q 445 -11 468 -14 q 399 9 422 -8 q 365 66 376 27 q 374 178 354 106 z "},"o":{"ha":499,"x_min":20,"x_max":456,"o":"m 35 231 q 66 324 43 279 q 121 402 88 369 q 196 455 153 435 q 288 475 239 475 q 390 443 353 475 q 441 363 427 411 q 450 258 456 315 q 422 152 444 201 q 370 71 403 109 q 298 12 338 34 q 215 -16 259 -11 q 127 1 171 -20 q 44 90 68 28 q 35 231 20 152 m 127 229 q 132 144 121 186 q 174 92 142 103 q 233 93 203 83 q 286 124 262 103 q 326 174 309 145 q 347 229 343 202 q 351 283 353 258 q 341 328 350 309 q 315 359 332 347 q 269 373 297 372 q 224 363 247 374 q 181 331 201 351 q 147 284 161 311 q 127 229 133 258 z "},"p":{"ha":593,"x_min":-28,"x_max":564,"o":"m 216 425 q 286 460 248 448 q 362 472 323 472 q 451 452 411 472 q 517 399 491 433 q 554 320 544 365 q 556 227 564 275 q 522 133 548 178 q 456 55 495 88 q 371 2 418 22 q 275 -18 324 -18 q 148 26 199 -18 q 142 0 146 24 q 130 -60 137 -24 q 114 -138 122 -96 q 98 -217 106 -180 q 86 -278 91 -254 q 81 -302 81 -302 q 57 -334 76 -324 q 18 -341 38 -343 q -16 -326 -3 -339 q -22 -289 -28 -312 l 117 439 q 138 475 121 465 q 174 484 156 486 q 206 473 193 483 q 217 446 220 463 l 216 425 m 457 228 q 456 282 463 256 q 435 328 450 308 q 397 359 419 347 q 346 370 374 370 q 291 359 317 370 q 242 328 264 347 q 204 282 220 308 q 183 228 189 256 q 184 174 178 199 q 206 129 191 148 q 244 98 221 110 q 296 87 267 87 q 351 98 324 87 q 399 129 377 110 q 437 174 422 148 q 457 228 452 199 z "},"q":{"ha":579,"x_min":35,"x_max":613,"o":"m 465 4 q 445 -81 454 -38 q 435 -160 435 -125 q 447 -217 434 -195 q 494 -237 460 -239 q 519 -227 509 -236 q 538 -208 529 -218 q 574 -187 556 -186 q 603 -203 593 -189 q 610 -242 613 -218 q 586 -289 608 -266 q 543 -323 566 -309 q 495 -339 521 -338 q 383 -309 420 -342 q 336 -221 346 -275 q 340 -98 327 -167 q 382 41 354 -28 q 252 -9 320 -5 q 132 16 183 -12 q 58 99 80 45 q 64 224 35 153 q 138 336 91 286 q 243 420 186 387 q 363 469 301 453 q 481 481 426 486 q 527 456 513 479 q 544 400 541 434 q 541 325 547 366 q 528 241 536 283 l 465 4 m 156 194 q 168 113 148 144 q 244 81 187 81 q 306 92 275 81 q 363 134 336 102 q 410 224 389 165 q 445 378 431 282 q 344 366 393 384 q 254 318 294 347 q 187 254 214 289 q 156 194 160 220 z "},"r":{"ha":545,"x_min":23,"x_max":513,"o":"m 416 321 q 376 355 399 340 q 326 370 354 370 q 271 359 297 370 q 222 328 244 347 q 184 282 199 308 q 164 228 170 256 l 130 35 q 108 -1 125 14 q 72 -17 91 -15 q 38 -8 53 -19 q 23 31 23 3 l 96 439 q 118 475 100 465 q 155 484 136 486 q 187 473 174 483 q 198 446 201 463 l 197 425 q 267 460 229 448 q 343 472 304 472 q 443 448 400 472 q 507 380 486 425 q 506 349 513 366 q 485 319 499 331 q 452 304 471 307 q 416 321 433 302 z "},"s":{"ha":471,"x_min":15,"x_max":471,"o":"m 464 377 q 458 342 471 358 q 427 319 445 327 q 391 315 408 312 q 372 338 374 319 q 334 378 359 365 q 289 393 309 391 q 254 393 273 396 q 220 382 236 389 q 193 366 205 376 q 178 345 182 355 q 174 310 170 323 q 193 289 179 297 q 229 275 208 281 q 273 266 250 270 q 338 249 307 259 q 393 220 370 239 q 425 174 415 202 q 423 100 434 145 q 388 37 414 64 q 329 -5 362 11 q 257 -26 296 -20 q 183 -27 218 -31 q 123 -13 152 -23 q 72 15 95 -3 q 34 58 49 33 q 15 119 19 84 q 32 160 16 144 q 66 182 47 176 q 100 183 84 189 q 117 159 115 178 q 125 113 117 130 q 149 85 134 95 q 181 72 163 76 q 218 66 199 68 q 285 75 254 64 q 323 106 316 87 q 310 156 334 141 q 247 179 286 171 q 183 193 217 186 q 123 216 149 201 q 82 260 96 232 q 76 336 68 289 q 104 403 83 374 q 157 451 126 431 q 226 479 189 471 q 301 484 263 487 q 397 454 353 480 q 464 377 441 429 z "},"t":{"ha":473,"x_min":31,"x_max":446,"o":"m 126 46 q 121 89 121 68 q 128 146 122 110 q 144 245 134 183 q 170 408 155 307 l 73 408 q 39 424 47 408 q 34 458 31 439 q 49 493 37 477 q 77 509 61 509 l 187 509 q 208 616 198 566 q 227 705 218 666 q 240 766 235 743 q 245 789 245 789 q 265 823 250 811 q 298 834 281 834 q 328 821 315 834 q 340 780 340 808 q 309 633 323 700 q 285 509 296 566 l 406 509 q 437 487 429 505 q 442 451 446 469 q 422 419 438 433 q 382 408 407 406 l 266 408 q 255 347 259 376 q 247 294 251 319 q 229 168 235 212 q 224 106 224 125 q 231 85 225 87 q 243 83 236 83 q 273 97 254 84 q 305 125 293 110 q 333 127 317 134 q 358 106 349 121 q 367 73 368 92 q 346 38 366 54 q 281 -4 319 12 q 214 -20 244 -20 q 161 -6 187 -20 q 126 46 136 8 z "},"u":{"ha":616,"x_min":34,"x_max":606,"o":"m 382 69 q 275 8 317 24 q 194 -8 233 -8 q 88 23 123 -8 q 43 112 53 54 q 45 252 34 170 q 80 437 57 335 q 104 473 85 463 q 143 481 123 483 q 177 470 163 480 q 187 444 191 460 q 150 249 156 319 q 152 144 144 179 q 178 102 160 110 q 212 94 195 94 q 267 105 240 94 q 315 136 293 117 q 353 182 338 156 q 373 236 368 208 l 435 448 q 457 477 439 469 q 493 481 475 484 q 524 467 511 479 q 530 438 536 454 q 523 407 529 435 q 508 338 517 378 q 492 251 499 297 q 480 166 484 205 q 478 104 476 127 q 494 87 480 81 q 517 102 503 91 q 544 129 532 114 q 572 132 556 138 q 597 111 587 125 q 606 77 606 96 q 585 42 605 58 q 526 0 557 16 q 465 -16 495 -16 q 415 7 438 -16 q 382 69 392 31 z "},"v":{"ha":500,"x_min":35,"x_max":471,"o":"m 244 20 q 211 -10 229 -3 q 176 -14 193 -18 q 148 -1 160 -11 q 133 24 136 9 l 38 425 q 49 454 35 439 q 81 477 62 469 q 118 480 100 484 q 140 453 136 476 l 213 160 l 372 448 q 403 475 384 471 q 438 471 422 479 q 463 449 454 464 q 463 419 471 434 l 244 20 z "},"w":{"ha":854,"x_min":42,"x_max":815,"o":"m 492 437 q 473 321 484 382 q 459 207 461 259 q 469 120 457 155 q 521 85 481 85 q 574 96 549 85 q 622 143 600 107 q 665 247 644 179 q 704 429 685 315 q 726 465 708 450 q 765 481 745 479 q 800 472 785 483 q 811 433 815 461 q 759 201 789 289 q 689 64 728 113 q 603 -1 650 15 q 503 -16 556 -16 q 415 11 446 -15 q 369 77 384 37 q 271 3 316 19 q 191 -14 227 -14 q 88 21 121 -14 q 49 117 56 56 q 54 260 42 178 q 83 439 65 343 q 106 475 87 465 q 145 484 125 486 q 180 473 165 483 q 191 446 195 463 q 151 241 159 313 q 151 136 144 170 q 175 97 159 103 q 208 88 191 91 q 281 117 250 81 q 334 208 312 153 q 369 325 355 263 q 391 430 382 387 q 413 468 395 456 q 450 480 431 480 q 482 469 468 480 q 492 437 496 458 z "},"x":{"ha":582,"x_min":4,"x_max":571,"o":"m 304 228 l 302 227 q 328 177 316 201 q 353 135 339 153 q 382 105 366 117 q 419 92 397 94 q 463 102 442 91 q 498 140 483 114 q 526 142 509 149 q 555 119 543 134 q 569 85 567 104 q 553 49 571 65 q 494 2 529 19 q 418 -14 460 -15 q 353 0 380 -12 q 304 33 326 12 q 264 82 282 54 q 228 144 245 110 l 225 141 l 91 -4 q 62 -18 80 -18 q 28 -9 43 -18 q 9 17 14 0 q 22 56 4 34 l 176 228 l 79 412 q 88 452 73 435 q 123 474 103 468 q 163 476 144 480 q 184 456 182 472 l 255 316 l 377 457 q 407 477 387 473 q 446 475 427 481 q 473 453 464 469 q 469 414 483 437 l 304 228 z "},"y":{"ha":575,"x_min":-26,"x_max":551,"o":"m 186 -243 q 256 -218 227 -247 q 307 -144 286 -189 q 341 -46 328 -99 q 361 53 354 7 q 275 10 312 22 q 206 -1 239 -1 q 100 30 136 -1 q 56 119 65 61 q 58 259 46 176 q 92 444 69 342 q 117 479 98 469 q 155 488 136 490 q 189 477 175 487 q 199 450 203 467 q 162 256 168 326 q 164 151 156 186 q 190 109 172 117 q 224 100 208 100 q 279 112 252 100 q 330 143 307 123 q 370 189 353 163 q 396 243 388 214 l 448 454 q 471 484 453 476 q 507 488 488 491 q 538 474 525 486 q 548 445 551 463 q 529 342 538 391 q 511 245 519 293 q 492 147 502 197 q 469 41 481 98 q 435 -99 456 -30 q 378 -223 414 -168 q 290 -311 343 -278 q 161 -340 237 -343 q 65 -315 104 -338 q -14 -237 26 -293 q -17 -202 -26 -220 q 10 -174 -8 -184 q 49 -160 28 -163 q 79 -168 69 -157 q 129 -224 99 -208 q 186 -243 159 -240 z "},"z":{"ha":555,"x_min":37,"x_max":524,"o":"m 95 -14 q 58 -5 72 -14 q 41 16 45 3 q 43 45 37 28 q 65 80 49 62 l 366 381 l 104 378 q 72 399 80 382 q 67 435 64 416 q 83 467 71 453 q 115 480 96 480 l 477 480 q 501 469 490 480 q 518 441 513 458 q 519 401 524 423 q 494 359 515 380 l 202 85 l 463 84 q 497 68 488 84 q 503 34 506 53 q 489 -1 500 15 q 461 -16 477 -16 l 95 -14 z "},"|":{"ha":317,"x_min":39,"x_max":275,"o":"m 164 784 q 193 818 174 808 q 231 826 212 827 q 262 812 250 825 q 271 783 275 800 l 142 38 q 121 2 138 12 q 85 -7 103 -8 q 53 5 66 -5 q 42 31 39 15 l 164 784 z "},"⁄":{"ha":471,"x_min":7,"x_max":460,"o":"m 354 815 q 388 837 368 836 q 425 829 408 838 q 450 804 441 821 q 452 770 460 787 l 107 20 q 78 -6 96 -3 q 43 -1 60 -9 q 17 24 27 8 q 14 54 7 39 l 354 815 z "},")":{"ha":468,"x_min":4,"x_max":454,"o":"m 64 -8 q 149 26 104 -7 q 232 114 193 58 q 300 243 271 170 q 340 403 330 317 q 349 530 349 465 q 332 653 349 595 q 279 755 316 711 q 176 821 241 800 q 147 848 153 829 q 147 886 141 867 q 168 919 153 906 q 202 928 183 932 q 334 857 282 907 q 414 736 387 806 q 448 583 442 667 q 442 412 454 499 q 393 211 427 302 q 307 51 358 119 q 189 -61 255 -18 q 45 -118 122 -104 q 14 -106 24 -122 q 5 -69 4 -90 q 21 -30 7 -49 q 64 -8 35 -11 z "},"(":{"ha":448,"x_min":27,"x_max":514,"o":"m 282 -12 q 318 -33 311 -15 q 319 -71 326 -52 q 296 -106 313 -91 q 260 -118 279 -122 q 137 -61 187 -104 q 60 51 87 -18 q 30 211 33 119 q 50 412 27 302 q 105 583 69 499 q 193 736 141 667 q 315 857 245 806 q 472 928 384 907 q 503 919 492 932 q 513 886 514 906 q 498 848 511 867 q 460 821 486 829 q 334 755 387 800 q 245 653 282 711 q 186 530 209 595 q 149 403 163 465 q 134 243 130 317 q 157 112 137 168 q 209 22 176 56 q 282 -12 241 -11 z "},"^":{"ha":319,"x_min":19,"x_max":270,"o":"m 109 469 q 173 498 140 502 q 220 469 206 495 l 267 376 q 261 347 270 362 q 238 323 252 332 q 208 315 224 315 q 182 332 193 316 l 149 391 l 100 334 q 71 317 87 317 q 43 323 56 316 q 25 345 31 331 q 27 372 19 358 l 109 469 z "},"ˆ":{"ha":308,"x_min":27,"x_max":283,"o":"m 119 591 q 184 621 151 624 q 231 591 217 617 l 278 498 q 275 471 283 486 q 251 446 266 456 q 219 437 236 437 q 193 454 202 437 l 160 513 l 111 456 q 81 439 98 439 q 51 446 64 438 q 33 468 38 454 q 38 494 27 481 l 119 591 z "},"{":{"ha":461,"x_min":34,"x_max":518,"o":"m 294 453 q 286 439 292 446 q 266 422 279 431 q 230 399 252 412 q 171 368 208 385 q 220 348 201 355 q 250 336 239 340 q 265 326 260 331 q 270 312 270 320 q 239 146 248 214 q 233 37 229 79 q 252 -22 236 -4 q 296 -39 267 -39 q 332 -60 324 -42 q 333 -99 339 -79 q 311 -136 327 -119 q 275 -149 294 -152 q 175 -102 208 -141 q 134 -6 142 -62 q 136 118 126 50 q 164 252 146 186 l 65 308 q 39 335 45 317 q 39 370 34 353 q 58 403 45 388 q 85 425 71 418 l 208 494 q 235 635 220 566 q 279 763 251 705 q 355 863 308 821 q 477 920 401 905 q 508 910 498 924 q 517 878 518 897 q 504 840 517 859 q 465 812 491 821 q 379 757 408 796 q 336 667 350 718 q 315 560 321 617 q 294 453 308 503 z "},"}":{"ha":434,"x_min":-49,"x_max":411,"o":"m 184 453 q 203 560 190 503 q 219 667 216 617 q 207 757 222 718 q 141 812 191 796 q 111 840 117 821 q 111 878 104 859 q 132 910 117 897 q 167 920 148 924 q 268 863 236 905 q 308 763 300 821 q 307 635 316 705 q 285 494 297 566 l 382 425 q 404 403 396 418 q 410 370 411 388 q 398 335 410 353 q 362 308 387 317 l 244 252 q 224 118 237 186 q 184 -6 212 50 q 110 -102 156 -62 q -7 -149 64 -141 q -38 -136 -27 -152 q -48 -99 -49 -119 q -33 -60 -47 -79 q 9 -39 -19 -42 q 60 -22 38 -39 q 100 37 83 -4 q 132 146 118 79 q 160 312 146 214 q 169 326 163 320 q 189 336 175 331 q 223 348 202 340 q 278 368 244 355 q 230 399 248 385 q 201 422 212 412 q 188 439 191 431 q 184 453 184 446 z "},";":{"ha":243,"x_min":3,"x_max":218,"o":"m 92 434 q 117 477 98 460 q 163 495 137 495 q 203 477 189 495 q 213 434 218 460 q 189 391 209 408 q 142 374 168 374 q 102 391 117 374 q 92 434 88 408 m 64 107 q 59 136 52 119 q 81 165 66 153 q 116 178 96 176 q 148 163 136 180 q 168 113 161 144 q 170 45 175 81 q 146 -29 164 9 q 92 -100 127 -68 q 54 -119 73 -118 q 21 -112 34 -121 q 5 -87 8 -103 q 18 -57 3 -72 q 57 -14 43 -38 q 75 34 71 11 q 75 77 79 57 q 64 107 72 96 z "},",":{"ha":248,"x_min":27,"x_max":193,"o":"m 88 81 q 91 113 81 98 q 115 135 100 127 q 147 140 130 142 q 174 118 164 137 q 188 72 183 96 q 188 20 193 47 q 166 -36 183 -7 q 117 -95 149 -65 q 78 -114 98 -113 q 45 -106 58 -115 q 30 -82 33 -98 q 42 -52 27 -66 q 82 -19 68 -33 q 102 9 96 -5 q 103 39 107 23 q 88 81 99 56 z "},"'":{"ha":267,"x_min":81,"x_max":227,"o":"m 122 754 q 150 788 132 779 q 185 796 168 798 q 214 783 202 795 q 222 753 227 770 l 184 590 q 163 554 180 564 q 127 545 145 544 q 95 557 109 547 q 84 583 81 567 l 122 754 z "},"\"":{"ha":461,"x_min":81,"x_max":396,"o":"m 122 754 q 150 788 132 779 q 185 796 168 798 q 214 783 202 795 q 222 753 227 770 l 184 590 q 163 554 180 564 q 127 545 145 544 q 95 557 109 547 q 84 583 81 567 l 122 754 m 292 754 q 319 788 301 779 q 355 796 338 798 q 384 783 372 795 q 392 753 396 770 l 354 590 q 332 554 350 564 q 296 545 315 544 q 264 557 278 547 q 254 583 251 567 l 292 754 z "},"‹":{"ha":507,"x_min":45,"x_max":437,"o":"m 72 271 q 48 300 52 283 q 52 334 45 317 q 72 363 58 350 q 100 382 85 377 l 391 530 q 418 526 407 536 q 433 498 430 515 q 429 463 437 481 q 397 433 422 445 l 189 330 l 374 225 q 396 199 396 217 q 385 163 396 180 q 357 136 374 146 q 326 132 339 125 l 72 271 z "},"«":{"ha":739,"x_min":45,"x_max":716,"o":"m 71 271 q 48 300 52 283 q 51 334 45 317 q 71 363 57 350 q 100 382 85 377 l 389 530 q 418 526 406 536 q 433 498 430 515 q 428 463 435 481 q 396 433 420 445 l 187 330 l 373 225 q 395 199 395 217 q 384 163 395 180 q 355 136 373 146 q 324 132 338 125 l 71 271 m 351 281 q 328 310 331 293 q 330 343 324 327 q 351 373 336 359 q 380 392 365 387 l 669 540 q 697 535 685 545 q 713 508 709 525 q 709 473 716 491 q 677 442 701 454 l 467 339 l 654 235 q 675 208 675 227 q 664 173 675 190 q 635 145 652 156 q 604 141 617 134 l 351 281 z "},"›":{"ha":472,"x_min":31,"x_max":431,"o":"m 85 133 q 56 137 71 126 q 37 165 42 148 q 38 200 31 182 q 69 227 45 218 l 293 331 l 119 434 q 98 465 99 446 q 106 500 96 483 q 131 527 115 517 q 161 532 146 537 l 397 384 q 420 365 411 378 q 431 335 430 351 q 422 302 431 319 q 388 273 412 285 l 85 133 z "},"»":{"ha":772,"x_min":31,"x_max":738,"o":"m 85 133 q 56 137 71 126 q 37 165 42 148 q 38 200 31 182 q 69 227 45 218 l 293 331 l 119 434 q 98 465 99 446 q 106 500 98 483 q 131 527 115 517 q 161 532 146 537 l 399 384 q 421 365 412 378 q 431 335 430 351 q 422 302 431 319 q 388 273 412 285 l 85 133 m 392 132 q 362 136 376 125 q 343 163 349 146 q 345 199 338 180 q 376 225 351 217 l 600 330 l 426 433 q 404 463 406 445 q 412 498 403 481 q 437 526 422 515 q 468 530 453 536 l 704 382 q 727 363 718 377 q 737 334 736 350 q 728 300 738 317 q 694 271 719 283 l 392 132 z "},"@":{"ha":1042,"x_min":39,"x_max":1000,"o":"m 617 164 q 534 123 576 134 q 451 115 491 111 q 378 137 411 118 q 326 185 346 156 q 303 254 307 214 q 320 342 300 294 q 390 452 347 404 q 486 534 433 500 q 598 586 538 567 q 718 609 658 605 q 766 587 751 612 q 780 524 780 563 q 770 436 780 484 q 749 343 761 388 q 732 292 742 320 q 720 241 723 263 q 728 210 718 220 q 773 217 738 201 q 814 248 796 228 q 867 336 846 286 q 894 438 888 385 q 886 541 899 491 q 838 630 873 591 q 741 692 803 669 q 587 712 680 715 q 438 681 509 709 q 312 604 368 652 q 217 487 256 555 q 161 340 178 419 q 158 208 146 273 q 214 95 170 144 q 338 20 258 46 q 540 4 418 -5 q 574 -9 566 5 q 580 -41 583 -23 q 563 -76 576 -60 q 529 -94 549 -92 q 288 -75 385 -107 q 134 18 190 -43 q 58 161 77 79 q 54 332 39 244 q 119 522 71 433 q 241 677 168 610 q 408 784 315 745 q 609 825 502 823 q 787 798 712 826 q 909 724 861 770 q 978 615 956 677 q 998 486 1000 553 q 973 351 997 419 q 907 225 949 283 q 849 165 883 191 q 777 127 815 138 q 697 124 738 117 q 617 164 656 132 m 407 316 q 404 264 400 288 q 419 223 407 240 q 452 199 431 206 q 500 195 473 191 q 574 236 541 201 q 631 318 608 271 q 667 416 654 365 q 681 506 680 467 q 579 479 627 500 q 496 430 532 458 q 437 371 460 401 q 407 316 414 340 z "},"*":{"ha":613,"x_min":65,"x_max":538,"o":"m 407 456 l 511 392 q 524 355 528 376 q 507 319 519 335 q 475 298 494 304 q 445 305 457 293 l 351 361 l 332 239 q 303 204 323 214 q 265 195 283 194 q 235 208 247 197 q 231 239 224 220 l 248 343 l 140 269 q 98 264 115 256 q 73 287 81 271 q 68 320 65 302 q 90 347 72 338 l 222 439 l 115 506 q 98 538 95 519 q 114 572 100 556 q 146 596 127 587 q 178 597 165 605 l 278 534 l 300 661 q 321 696 304 686 q 358 705 339 707 q 391 694 377 704 q 403 667 404 684 l 384 552 l 465 610 q 505 621 488 627 q 530 600 522 614 q 537 566 538 585 q 522 536 536 547 l 407 456 z "},"¡":{"ha":321,"x_min":34,"x_max":294,"o":"m 148 629 q 177 663 157 654 q 216 671 197 673 q 248 657 235 669 q 254 629 260 646 l 138 -5 q 117 -41 134 -31 q 80 -50 99 -51 q 47 -39 61 -49 q 37 -12 34 -28 l 148 629 m 170 769 q 195 812 175 795 q 240 830 214 830 q 279 812 264 830 q 289 769 294 795 q 265 726 285 743 q 220 709 246 709 q 180 726 194 709 q 170 769 165 743 z "},"¿":{"ha":605,"x_min":37,"x_max":555,"o":"m 430 433 q 416 395 426 408 q 393 374 406 381 q 368 366 381 368 q 342 365 354 365 q 281 353 309 365 q 229 323 252 342 q 189 279 206 304 q 163 225 172 254 q 150 155 151 191 q 161 90 149 119 q 196 39 172 60 q 256 14 220 18 q 374 43 321 7 q 446 153 427 79 q 471 184 452 176 q 509 189 490 193 q 541 173 528 186 q 549 141 555 160 q 500 32 533 77 q 424 -41 468 -14 q 328 -80 380 -69 q 218 -87 275 -91 q 118 -49 157 -80 q 58 25 79 -19 q 37 123 38 69 q 54 231 37 178 q 93 315 68 274 q 153 388 118 355 q 234 442 189 420 q 334 467 279 463 l 349 543 q 370 578 353 568 q 407 587 388 589 q 439 576 426 586 q 450 549 453 566 l 430 433 m 378 727 q 404 770 384 753 q 449 788 423 788 q 490 770 475 788 q 499 727 505 753 q 474 684 495 701 q 427 667 453 667 q 388 684 401 667 q 378 727 374 701 z "},"~":{"ha":502,"x_min":24,"x_max":490,"o":"m 397 479 q 422 503 406 496 q 455 507 439 510 q 480 490 471 503 q 484 453 490 476 q 461 401 476 425 q 427 359 446 377 q 387 332 408 342 q 343 321 365 323 q 286 335 308 319 q 248 370 264 351 q 213 404 231 389 q 170 415 195 419 q 137 395 148 412 q 111 347 126 377 q 81 320 99 324 q 50 324 64 316 q 30 351 35 332 q 37 391 24 369 q 98 472 64 438 q 179 505 132 506 q 241 490 218 505 q 279 458 263 475 q 309 427 294 441 q 349 412 324 412 q 380 431 370 412 q 397 479 391 450 z "},"˜":{"ha":506,"x_min":30,"x_max":495,"o":"m 403 597 q 428 621 411 614 q 460 625 445 628 q 486 608 476 621 q 490 571 495 594 q 467 519 481 543 q 433 477 452 495 q 392 450 414 460 q 349 439 370 441 q 292 453 313 437 q 253 488 270 469 q 218 522 236 507 q 175 533 201 537 q 142 513 153 530 q 117 465 132 495 q 87 438 104 442 q 56 442 71 434 q 36 469 42 450 q 42 509 30 487 q 103 590 69 556 q 184 623 137 624 q 246 608 224 623 q 284 576 269 593 q 315 545 300 559 q 354 530 330 530 q 386 549 376 530 q 403 597 396 568 z "},"€":{"ha":701,"x_min":15,"x_max":696,"o":"m 134 545 q 197 661 160 608 q 278 752 235 713 q 370 812 321 791 q 467 834 418 834 q 610 788 552 834 q 688 639 669 742 q 682 606 696 623 q 648 580 669 589 q 608 574 628 571 q 579 602 587 578 q 530 697 564 671 q 444 723 495 723 q 334 673 388 723 q 241 547 281 624 l 431 549 q 463 527 456 545 q 465 490 469 509 q 446 458 460 472 q 412 448 431 444 l 203 445 q 198 422 201 434 q 193 397 195 410 l 187 372 l 401 374 q 431 352 425 370 q 433 315 438 334 q 414 283 429 297 q 382 273 400 269 l 187 270 q 238 145 198 193 q 338 98 278 98 q 442 139 391 98 q 529 245 494 180 q 563 273 543 270 q 598 267 583 277 q 618 235 613 256 q 608 190 624 214 q 547 108 581 145 q 475 44 513 71 q 397 3 437 18 q 316 -12 357 -12 q 227 9 267 -12 q 155 67 186 30 q 106 156 125 104 q 84 270 88 208 l 54 270 q 22 286 30 270 q 19 320 15 301 q 36 355 23 339 q 65 370 49 370 l 87 370 l 94 406 q 98 425 96 416 q 102 445 99 434 l 85 445 q 52 460 60 445 q 50 495 45 476 q 67 530 54 514 q 96 545 80 545 l 134 545 z "},"£":{"ha":617,"x_min":24,"x_max":578,"o":"m 243 408 q 210 236 225 321 q 184 80 195 151 l 439 85 q 466 63 463 81 q 461 25 469 45 q 437 -9 453 5 q 404 -19 420 -23 l 141 -24 q 85 -9 107 -24 q 71 45 64 5 l 72 45 q 81 107 76 79 q 93 174 85 136 q 110 267 100 212 q 134 407 119 321 l 64 407 q 32 422 39 407 q 28 457 24 438 q 45 492 33 476 q 75 507 58 507 l 155 507 q 197 641 172 578 q 255 751 222 704 q 328 825 288 798 q 419 853 369 853 q 488 840 460 853 q 533 806 515 826 q 559 764 551 787 q 570 724 567 742 q 566 679 578 700 q 534 648 553 658 q 496 641 515 637 q 472 669 477 644 q 452 723 468 704 q 401 743 435 742 q 359 726 380 743 q 321 676 339 708 q 289 601 304 644 q 262 507 274 557 l 416 507 q 445 486 439 503 q 444 450 450 468 q 422 419 438 433 q 388 410 407 406 l 243 408 z "},"¢":{"ha":521,"x_min":30,"x_max":505,"o":"m 187 87 q 117 117 148 95 q 65 172 85 140 q 37 243 45 203 q 38 327 30 283 q 66 408 46 369 q 117 479 87 448 q 184 534 146 511 q 263 566 222 556 l 269 590 q 296 624 277 614 q 334 632 316 633 q 366 618 353 631 q 374 589 378 606 l 370 564 q 460 518 427 552 q 500 445 492 484 q 491 414 505 429 q 460 392 477 400 q 425 385 442 384 q 403 400 407 387 q 382 437 396 423 q 351 457 369 450 l 307 193 q 388 263 342 208 q 420 281 401 281 q 454 273 439 282 q 473 245 468 263 q 463 205 477 227 q 385 130 430 161 q 289 88 339 99 l 286 68 q 264 32 282 42 q 228 23 247 22 q 195 35 209 24 q 184 61 182 45 l 187 87 m 137 326 q 148 243 129 281 q 205 191 167 206 l 247 456 q 176 405 208 441 q 137 326 145 369 z "},"”":{"ha":461,"x_min":81,"x_max":396,"o":"m 122 754 q 150 788 132 779 q 185 796 168 798 q 214 783 202 795 q 222 753 227 770 l 184 590 q 163 554 180 564 q 127 545 145 544 q 95 557 109 547 q 84 583 81 567 l 122 754 m 292 754 q 319 788 301 779 q 355 796 338 798 q 384 783 372 795 q 392 753 396 770 l 354 590 q 332 554 350 564 q 296 545 315 544 q 264 557 278 547 q 254 583 251 567 l 292 754 z "},"“":{"ha":461,"x_min":81,"x_max":396,"o":"m 122 754 q 150 788 132 779 q 185 796 168 798 q 214 783 202 795 q 222 753 227 770 l 184 590 q 163 554 180 564 q 127 545 145 544 q 95 557 109 547 q 84 583 81 567 l 122 754 m 292 754 q 319 788 301 779 q 355 796 338 798 q 384 783 372 795 q 392 753 396 770 l 354 590 q 332 554 350 564 q 296 545 315 544 q 264 557 278 547 q 254 583 251 567 l 292 754 z "},"„":{"ha":388,"x_min":37,"x_max":357,"o":"m 77 119 q 105 153 87 144 q 140 161 123 163 q 170 148 157 160 q 178 118 182 136 l 140 -45 q 118 -81 136 -71 q 82 -90 100 -91 q 50 -78 64 -88 q 39 -52 37 -68 l 77 119 m 252 127 q 280 161 262 152 q 315 170 298 171 q 345 156 332 168 q 353 126 357 144 l 315 -37 q 293 -73 311 -62 q 257 -81 275 -83 q 225 -70 239 -80 q 214 -43 212 -60 l 252 127 z "},"’":{"ha":267,"x_min":81,"x_max":227,"o":"m 122 754 q 150 788 132 779 q 185 796 168 798 q 214 783 202 795 q 222 753 227 770 l 184 590 q 163 554 180 564 q 127 545 145 544 q 95 557 109 547 q 84 583 81 567 l 122 754 z "},"‘":{"ha":267,"x_min":81,"x_max":227,"o":"m 122 754 q 150 788 132 779 q 185 796 168 798 q 214 783 202 795 q 222 753 227 770 l 184 590 q 163 554 180 564 q 127 545 145 544 q 95 557 109 547 q 84 583 81 567 l 122 754 z "},"‚":{"ha":267,"x_min":52,"x_max":197,"o":"m 92 122 q 120 156 102 146 q 155 164 138 165 q 184 151 172 163 q 193 121 197 138 l 155 -42 q 133 -78 151 -68 q 97 -87 115 -88 q 65 -75 79 -85 q 54 -49 52 -65 l 92 122 z "},"…":{"ha":513,"x_min":20,"x_max":492,"o":"m 24 56 q 50 99 30 81 q 95 117 69 117 q 136 99 121 117 q 145 56 151 81 q 121 13 141 30 q 75 -4 100 -4 q 35 13 49 -4 q 24 56 20 30 m 195 56 q 220 99 201 81 q 266 117 240 117 q 307 99 292 117 q 316 56 321 81 q 292 13 312 30 q 245 -4 271 -4 q 205 13 220 -4 q 195 56 191 30 m 366 56 q 391 99 372 81 q 437 117 411 117 q 477 99 463 117 q 487 56 492 81 q 463 13 483 30 q 416 -4 442 -4 q 376 13 391 -4 q 366 56 362 30 z "},"¨":{"ha":350,"x_min":31,"x_max":332,"o":"m 35 488 q 60 532 41 514 q 106 549 80 549 q 146 532 132 549 q 156 488 161 514 q 132 446 152 463 q 85 429 111 429 q 45 446 60 429 q 35 488 31 463 m 206 488 q 231 532 212 514 q 277 549 251 549 q 317 532 302 549 q 327 488 332 514 q 302 446 323 463 q 256 429 282 429 q 216 446 231 429 q 206 488 202 463 z "},"¥":{"ha":666,"x_min":34,"x_max":617,"o":"m 229 353 q 228 355 229 353 l 88 772 q 98 801 85 787 q 128 823 110 815 q 164 826 146 830 q 190 800 182 822 l 308 468 l 518 802 q 551 829 532 825 q 587 825 571 833 q 610 803 602 818 q 609 773 617 788 l 340 354 l 452 355 q 483 333 476 351 q 485 296 490 315 q 466 264 480 278 q 433 254 452 250 l 321 252 l 308 179 l 420 180 q 452 158 445 176 q 454 121 458 140 q 435 89 449 103 q 401 79 420 75 l 290 77 l 279 14 q 258 -22 275 -12 q 221 -31 240 -33 q 189 -20 202 -30 q 178 7 175 -9 l 189 76 l 75 76 q 41 92 49 76 q 39 126 34 107 q 56 161 43 145 q 85 176 69 176 l 203 178 l 216 251 l 106 251 q 73 267 80 251 q 70 301 65 282 q 87 336 75 320 q 117 351 100 351 l 229 353 z "},"−":{"ha":492,"x_min":30,"x_max":454,"o":"m 418 370 q 448 348 441 366 q 450 311 454 330 q 431 279 445 293 q 399 269 416 264 l 71 266 q 37 281 45 266 q 35 316 30 297 q 52 351 39 335 q 81 366 65 366 l 418 370 z "},"±":{"ha":540,"x_min":38,"x_max":517,"o":"m 425 247 q 454 224 448 243 q 456 188 461 206 q 437 155 452 170 q 406 145 423 141 l 77 142 q 45 158 53 142 q 43 193 38 174 q 60 227 47 212 q 88 243 73 243 l 425 247 m 241 429 l 132 429 q 98 444 106 429 q 96 479 91 460 q 113 513 100 498 q 142 529 126 529 l 262 530 l 282 643 q 311 677 292 667 q 349 686 331 688 q 379 671 368 684 q 382 640 391 659 l 362 532 l 479 533 q 509 511 502 529 q 512 474 517 492 q 493 441 507 456 q 460 431 479 427 l 343 430 l 321 313 q 300 278 317 288 q 263 270 282 269 q 231 281 244 271 q 221 308 217 292 l 241 429 z "},"´":{"ha":259,"x_min":39,"x_max":237,"o":"m 159 614 q 197 631 179 633 q 227 614 216 628 q 237 581 237 601 q 220 544 237 560 l 117 449 q 79 433 96 430 q 51 450 61 437 q 40 482 41 464 q 52 513 39 500 l 159 614 z "},"`":{"ha":250,"x_min":46,"x_max":233,"o":"m 222 506 q 229 475 233 494 q 211 444 224 457 q 180 427 198 430 q 145 442 161 423 l 60 537 q 50 572 46 552 q 66 606 53 591 q 98 623 79 620 q 133 608 117 627 l 222 506 z "},"×":{"ha":481,"x_min":57,"x_max":427,"o":"m 227 241 l 134 164 q 96 149 114 145 q 68 168 79 153 q 58 200 58 182 q 71 229 57 218 l 168 315 l 103 395 q 102 435 92 415 q 128 466 111 454 q 163 479 145 477 q 189 464 180 480 l 251 387 l 347 469 q 389 477 370 483 q 417 458 407 472 q 425 425 427 444 q 406 396 423 407 l 309 313 l 377 231 q 385 193 392 212 q 360 163 377 175 q 324 147 343 151 q 296 156 305 144 l 227 241 z "},"Þ":{"ha":608,"x_min":33,"x_max":582,"o":"m 581 505 q 554 352 582 418 q 471 243 526 286 q 337 181 416 201 q 157 167 258 161 l 134 38 q 115 12 132 22 q 79 0 98 1 q 46 9 60 -1 q 37 45 33 19 l 161 766 q 190 806 171 795 q 227 814 209 817 q 256 798 244 812 q 266 762 269 784 l 225 543 q 350 644 288 620 q 462 656 412 669 q 544 601 511 643 q 581 505 576 559 m 456 548 q 389 564 423 572 q 320 525 354 555 q 254 450 286 495 q 193 359 221 406 l 175 266 q 298 271 241 260 q 397 306 355 281 q 461 372 438 331 q 484 469 484 412 q 456 548 484 526 z "},"˝":{"ha":416,"x_min":35,"x_max":407,"o":"m 155 610 q 193 626 175 629 q 220 608 210 623 q 231 574 231 594 q 216 540 232 553 l 113 445 q 75 429 92 426 q 47 446 57 433 q 36 478 37 460 q 47 509 35 496 l 155 610 m 330 610 q 368 626 350 629 q 395 608 385 623 q 406 574 406 594 q 391 540 407 553 l 288 445 q 250 429 267 426 q 222 446 232 433 q 211 478 212 460 q 222 509 210 496 l 330 610 z "},"ˇ":{"ha":296,"x_min":30,"x_max":281,"o":"m 191 467 q 127 437 160 434 q 80 467 94 441 l 33 560 q 39 589 30 574 q 62 612 47 604 q 92 621 76 621 q 118 604 107 620 l 151 545 l 199 602 q 229 619 213 618 q 256 612 244 620 q 275 591 269 605 q 273 564 281 578 l 191 467 z "},"ß":{"ha":663,"x_min":30,"x_max":635,"o":"m 136 -50 q 113 -91 132 -77 q 76 -105 95 -104 q 43 -92 57 -106 q 37 -49 30 -79 l 175 700 q 210 788 183 749 q 293 836 237 827 q 350 841 315 840 q 425 839 385 842 q 505 823 465 836 q 575 787 545 811 q 620 722 605 762 q 627 624 635 682 q 570 511 616 557 q 471 438 525 465 q 526 399 500 423 q 566 347 551 376 q 587 283 582 317 q 585 212 593 248 q 535 108 571 152 q 450 35 499 64 q 340 -7 400 7 q 218 -20 281 -20 q 190 -5 199 -20 q 180 27 180 9 q 192 60 180 45 q 229 76 203 76 q 312 83 270 76 q 389 106 354 90 q 450 153 425 123 q 483 227 476 182 q 477 290 488 263 q 444 335 467 316 q 388 366 420 354 q 317 382 355 377 q 292 397 298 380 q 288 434 285 414 q 301 472 290 454 q 331 488 312 490 q 397 500 363 491 q 457 524 430 509 q 504 564 484 540 q 529 623 524 587 q 521 669 533 647 q 483 709 509 692 q 417 735 457 727 q 327 739 377 743 q 294 729 315 738 q 267 689 273 720 l 136 -50 z "},"˙":{"ha":167,"x_min":28,"x_max":159,"o":"m 33 496 q 58 540 38 522 q 103 557 77 557 q 144 540 129 557 q 153 496 159 522 q 129 454 149 471 q 83 437 109 437 q 43 454 57 437 q 33 496 28 471 z "},"˘":{"ha":400,"x_min":43,"x_max":368,"o":"m 290 562 q 318 579 301 578 q 347 572 335 581 q 363 549 359 564 q 354 514 368 533 q 278 450 323 471 q 189 429 233 429 q 106 450 144 430 q 52 511 69 471 q 52 547 43 532 q 77 569 61 562 q 106 575 92 576 q 123 562 121 574 q 157 515 134 529 q 204 504 179 502 q 253 521 229 506 q 290 562 277 536 z "},"˚":{"ha":228,"x_min":24,"x_max":213,"o":"m 92 529 q 114 503 88 503 q 134 511 125 503 q 145 529 142 518 q 141 548 148 540 q 123 556 134 556 q 104 548 113 556 q 92 529 95 540 m 31 529 q 68 591 38 566 q 134 617 98 617 q 192 591 171 617 q 206 529 213 566 q 170 467 199 492 q 103 442 140 442 q 45 467 66 442 q 31 529 24 492 z "},"˛":{"ha":233,"x_min":54,"x_max":203,"o":"m 187 22 q 165 -6 175 11 q 152 -43 155 -23 q 155 -85 149 -64 q 179 -126 160 -107 q 180 -157 189 -141 q 157 -181 172 -172 q 121 -189 141 -190 q 90 -170 102 -187 q 60 -101 65 -137 q 61 -32 54 -65 q 85 30 68 1 q 123 77 103 58 q 161 93 142 95 q 191 79 179 91 q 203 51 202 68 q 187 22 203 34 z "},"÷":{"ha":471,"x_min":20,"x_max":445,"o":"m 153 189 q 178 232 157 214 q 224 250 198 250 q 264 232 250 250 q 274 189 278 214 q 248 146 269 163 q 202 129 228 129 q 162 146 176 129 q 153 189 148 163 m 198 445 q 222 488 202 471 q 269 506 243 506 q 309 488 294 506 q 319 445 323 471 q 294 402 315 419 q 247 385 273 385 q 208 402 221 385 q 198 445 194 419 m 408 370 q 438 348 431 366 q 440 311 445 330 q 421 279 435 293 q 389 269 407 264 l 61 266 q 28 281 35 266 q 25 316 20 297 q 43 351 30 335 q 72 366 56 366 l 408 370 z "},"°":{"ha":224,"x_min":16,"x_max":205,"o":"m 84 576 q 106 551 80 551 q 125 558 117 551 q 137 576 134 566 q 133 595 140 587 q 115 604 126 604 q 96 595 104 604 q 84 576 87 587 m 23 576 q 60 639 30 613 q 126 665 90 665 q 184 639 163 665 q 198 576 205 613 q 161 515 191 540 q 95 490 132 490 q 37 515 58 490 q 23 576 16 540 z "},"•":{"ha":222,"x_min":30,"x_max":193,"o":"m 35 345 q 67 398 42 376 q 123 420 92 420 q 174 398 155 420 q 186 345 193 376 q 155 292 180 313 q 98 270 129 270 q 48 292 66 270 q 35 345 30 313 z "},"©":{"ha":865,"x_min":41,"x_max":844,"o":"m 556 365 q 589 383 570 382 q 622 374 608 384 q 641 347 636 365 q 629 307 646 328 q 528 216 590 250 q 400 183 467 183 q 311 203 351 183 q 245 256 271 222 q 208 335 218 290 q 206 429 198 380 q 241 522 214 477 q 306 601 267 567 q 391 654 345 635 q 487 673 438 674 q 613 633 568 670 q 669 547 658 595 q 659 516 673 530 q 628 494 646 502 q 593 487 610 486 q 571 502 575 488 q 530 555 557 541 q 467 568 502 568 q 412 557 438 568 q 363 526 385 545 q 326 481 340 507 q 305 427 311 456 q 307 373 300 399 q 328 328 313 347 q 366 296 343 308 q 418 285 389 285 q 488 301 458 285 q 556 365 518 317 m 821 388 q 752 221 800 292 q 641 104 704 151 q 505 36 578 58 q 362 16 433 14 q 229 44 292 18 q 121 120 165 71 q 59 243 77 170 q 60 414 41 317 q 129 600 80 521 q 243 730 178 678 q 382 807 308 783 q 529 829 457 831 q 664 798 601 827 q 770 714 727 769 q 828 577 812 659 q 821 388 844 495 m 734 391 q 743 543 755 477 q 694 653 730 609 q 608 720 659 697 q 505 745 557 742 q 397 725 453 746 q 290 662 340 704 q 201 558 240 620 q 146 418 163 496 q 144 283 130 340 q 190 186 157 225 q 269 127 222 148 q 363 103 315 106 q 473 112 416 100 q 580 156 529 123 q 671 245 631 189 q 734 391 712 302 z "},"®":{"ha":822,"x_min":3,"x_max":806,"o":"m 783 388 q 714 221 762 292 q 603 104 666 151 q 467 36 540 58 q 324 16 395 14 q 191 44 254 18 q 83 120 127 71 q 21 243 39 170 q 22 414 3 317 q 91 600 42 521 q 205 730 140 678 q 345 807 270 783 q 491 829 419 831 q 626 798 563 827 q 732 714 689 769 q 790 577 774 659 q 783 388 806 495 m 696 391 q 705 543 718 477 q 656 653 692 609 q 570 720 621 697 q 467 745 519 742 q 359 725 415 746 q 252 662 302 704 q 163 558 202 620 q 109 418 125 496 q 106 283 92 340 q 152 186 119 225 q 231 127 184 148 q 326 103 277 106 q 435 112 378 100 q 542 156 491 123 q 633 245 593 189 q 696 391 674 302 m 298 187 q 277 174 292 178 q 249 170 263 170 q 224 175 235 171 q 216 187 214 179 l 290 605 q 324 654 296 635 q 380 673 353 673 q 435 672 399 673 q 507 659 472 671 q 566 620 543 647 q 581 540 589 593 q 547 469 574 500 q 488 423 519 438 l 538 206 q 527 187 540 195 q 498 176 514 179 q 470 175 483 174 q 457 183 457 176 l 415 411 q 366 406 388 404 q 332 410 343 407 l 298 187 m 509 547 q 500 572 510 560 q 472 593 491 585 q 426 603 453 601 q 366 600 399 605 l 345 480 q 389 478 362 477 q 440 486 415 479 q 485 507 465 492 q 509 547 505 521 z "},"¸":{"ha":316,"x_min":50,"x_max":296,"o":"m 155 27 l 152 -7 q 262 -40 229 -9 q 286 -118 296 -71 q 224 -218 274 -189 q 100 -245 174 -247 q 62 -231 73 -245 q 52 -198 50 -216 q 67 -165 53 -180 q 109 -148 81 -149 q 135 -147 121 -148 q 161 -144 149 -146 q 180 -135 172 -141 q 189 -117 189 -129 q 177 -98 189 -102 q 123 -95 165 -94 q 104 -94 118 -95 q 79 -81 91 -92 q 64 -45 68 -69 q 75 27 60 -20 l 155 27 z "},"–":{"ha":492,"x_min":30,"x_max":454,"o":"m 418 369 q 448 347 441 365 q 450 310 454 328 q 431 277 445 292 q 399 267 416 263 l 71 264 q 37 280 45 264 q 35 315 30 296 q 52 349 39 334 q 81 365 65 365 l 418 369 z "},"—":{"ha":574,"x_min":30,"x_max":544,"o":"m 507 369 q 537 347 530 365 q 539 310 544 328 q 520 277 534 292 q 488 267 506 263 l 71 264 q 37 280 45 264 q 35 315 30 296 q 52 349 39 334 q 81 365 65 365 l 507 369 z "},"¯":{"ha":442,"x_min":15,"x_max":439,"o":"m 401 544 q 433 528 426 544 q 435 494 439 513 q 416 458 430 475 q 382 442 401 442 l 54 439 q 22 455 30 439 q 19 490 15 471 q 36 524 23 509 q 65 540 49 540 l 401 544 z "},"Ł":{"ha":597,"x_min":-11,"x_max":557,"o":"m 281 445 q 322 445 304 454 q 349 419 340 435 q 355 385 358 403 q 335 359 353 366 l 62 178 q 24 172 41 164 q -2 196 7 179 q -11 232 -11 213 q 3 259 -11 251 l 281 445 m 167 784 q 195 817 175 808 q 235 821 216 825 q 266 804 254 817 q 271 774 278 791 l 156 107 l 528 103 q 554 81 551 99 q 549 43 557 62 q 525 9 541 23 q 492 -1 509 -5 l 119 3 q 92 5 106 3 q 68 14 79 7 q 52 34 57 20 q 50 72 46 47 l 167 784 z "},"Œ":{"ha":907,"x_min":28,"x_max":882,"o":"m 700 -18 q 473 -20 555 -19 q 349 -20 391 -20 q 294 -18 308 -19 q 269 -16 279 -18 q 142 20 193 -16 q 64 117 91 57 q 33 255 37 178 q 45 412 28 332 q 98 569 61 492 q 189 705 134 646 q 316 802 244 765 q 476 837 388 838 l 841 834 q 874 819 867 834 q 877 784 882 803 q 859 749 872 765 q 830 734 846 734 l 475 730 l 430 475 l 665 473 q 698 458 690 473 q 701 423 705 442 q 683 389 696 404 q 654 373 670 373 l 412 369 l 363 85 l 711 83 q 744 67 736 83 q 747 33 751 52 q 729 -2 742 14 q 700 -18 716 -18 m 144 391 q 138 282 133 334 q 159 191 142 231 q 202 124 175 151 q 263 91 229 98 l 365 713 q 293 673 328 704 q 228 599 258 643 q 176 501 198 555 q 144 391 153 448 z "},"Ž":{"ha":734,"x_min":30,"x_max":693,"o":"m 69 -9 q 39 2 47 -9 q 32 32 30 14 q 45 71 34 50 q 73 109 56 91 l 537 727 l 152 724 q 121 746 127 728 q 120 783 115 764 q 139 817 125 802 q 172 831 153 831 l 651 831 q 674 824 663 831 q 689 802 685 817 q 686 764 693 787 q 656 711 680 741 l 193 94 l 594 92 q 627 77 620 92 q 629 42 633 61 q 611 7 624 23 q 582 -8 598 -8 l 69 -9 m 401 833 q 337 804 370 800 q 290 833 304 807 l 243 926 q 249 955 240 940 q 272 979 258 970 q 302 987 286 987 q 328 970 317 986 l 361 911 l 410 968 q 439 985 423 985 q 467 979 454 986 q 485 958 479 971 q 483 930 491 944 l 401 833 z "},"ł":{"ha":296,"x_min":23,"x_max":290,"o":"m 220 384 q 260 376 244 388 q 281 348 275 365 q 280 313 286 331 q 255 289 274 296 l 88 203 q 50 205 65 194 q 29 234 35 216 q 27 271 23 252 q 46 294 31 289 l 220 384 m 61 53 q 58 153 53 85 q 75 303 62 221 q 102 472 87 385 q 133 631 118 559 q 158 749 148 703 q 168 796 168 795 q 188 829 172 818 q 220 841 203 841 q 250 828 237 841 q 263 787 263 815 q 204 498 227 616 q 170 301 182 380 q 154 175 157 218 q 154 113 151 132 q 164 92 157 94 q 178 90 171 90 q 202 104 189 91 q 228 132 216 117 q 256 134 240 141 q 281 113 271 127 q 290 80 290 99 q 269 45 289 61 q 210 3 241 19 q 149 -14 179 -14 q 96 1 122 -14 q 61 53 71 15 z "},"≈":{"ha":502,"x_min":12,"x_max":487,"o":"m 395 547 q 420 571 403 564 q 452 574 437 578 q 477 557 468 571 q 481 521 487 544 q 458 469 473 492 q 425 427 444 445 q 384 400 406 410 q 340 389 362 391 q 283 403 305 387 q 245 438 262 419 q 210 472 228 457 q 167 483 193 487 q 134 463 145 480 q 109 415 123 445 q 79 388 96 392 q 47 392 61 384 q 27 418 33 400 q 34 458 22 437 q 95 540 61 506 q 176 572 129 574 q 238 557 216 572 q 276 526 260 543 q 307 494 292 509 q 346 480 321 480 q 378 499 368 480 q 395 547 388 518 m 385 317 q 410 342 393 335 q 443 345 427 349 q 468 328 458 342 q 472 292 477 315 q 449 239 464 263 q 415 198 434 216 q 374 171 396 180 q 331 160 353 161 q 274 174 296 157 q 235 209 252 190 q 201 243 218 228 q 157 254 183 258 q 125 233 136 251 q 99 186 114 216 q 69 159 87 163 q 37 163 52 155 q 18 189 23 171 q 24 229 12 208 q 85 311 52 277 q 167 343 119 345 q 229 328 206 343 q 267 296 251 313 q 297 265 282 279 q 336 251 312 251 q 368 270 358 251 q 385 317 378 289 z "},"≤":{"ha":537,"x_min":42,"x_max":488,"o":"m 123 414 q 101 443 104 426 q 104 476 98 460 q 124 506 110 492 q 153 525 138 519 l 442 673 q 471 668 458 678 q 486 641 483 658 q 481 606 488 624 q 449 575 473 587 l 240 472 l 426 368 q 448 341 448 359 q 437 306 448 323 q 408 278 426 289 q 377 274 391 267 l 123 414 m 429 224 q 458 201 452 220 q 460 165 465 183 q 441 132 456 146 q 408 122 427 118 l 81 119 q 50 135 57 119 q 47 170 42 151 q 64 204 52 189 q 92 220 77 220 l 429 224 z "},"≥":{"ha":540,"x_min":45,"x_max":499,"o":"m 153 274 q 124 278 138 267 q 104 306 110 289 q 106 341 99 323 q 137 368 113 359 l 361 472 l 187 575 q 166 606 167 587 q 174 641 165 624 q 199 668 183 658 q 229 673 214 678 l 467 525 q 489 506 480 519 q 498 476 498 492 q 490 443 499 460 q 456 414 480 426 l 153 274 m 434 220 q 458 204 450 220 q 463 170 465 189 q 448 135 461 151 q 410 119 435 119 l 83 122 q 54 132 64 118 q 47 165 45 146 q 62 201 49 183 q 100 224 76 220 l 434 220 z "},"≠":{"ha":494,"x_min":16,"x_max":471,"o":"m 274 528 q 308 549 288 548 q 345 542 328 551 q 370 516 361 533 q 372 483 380 499 l 194 90 q 165 63 183 66 q 130 68 146 60 q 104 93 114 77 q 100 123 94 109 l 274 528 m 401 281 q 433 258 426 277 q 435 222 439 240 q 416 189 430 203 q 382 179 401 175 l 56 176 q 24 192 31 176 q 20 227 16 208 q 37 261 24 245 q 66 277 50 277 l 401 281 m 433 456 q 464 433 457 452 q 466 397 471 415 q 447 364 461 378 q 414 354 433 350 l 87 351 q 54 367 61 351 q 51 401 46 382 q 68 436 56 420 q 98 452 81 452 l 433 456 z "},"¬":{"ha":570,"x_min":47,"x_max":541,"o":"m 467 456 q 522 439 503 457 q 532 369 541 420 l 502 208 q 479 172 496 182 q 443 164 461 163 q 411 176 425 165 q 400 202 397 186 l 427 353 l 88 351 q 55 367 62 351 q 52 401 47 382 q 70 436 57 420 q 99 452 83 452 l 467 456 z "},"ž":{"ha":555,"x_min":37,"x_max":524,"o":"m 95 -14 q 58 -5 72 -14 q 41 16 45 3 q 43 45 37 28 q 65 80 49 62 l 366 381 l 104 378 q 72 399 80 382 q 67 435 64 416 q 83 467 71 453 q 115 480 96 480 l 477 480 q 501 469 490 480 q 518 441 513 458 q 519 401 524 423 q 494 359 515 380 l 202 85 l 463 84 q 497 68 488 84 q 503 34 506 53 q 489 -1 500 15 q 461 -16 477 -16 l 95 -14 m 312 467 q 248 437 281 434 q 201 467 214 441 l 153 560 q 159 589 151 574 q 182 612 168 604 q 212 621 197 621 q 239 604 228 620 l 271 545 l 320 602 q 349 619 334 618 q 377 612 365 620 q 395 591 389 605 q 393 564 401 578 l 312 467 z "},"þ":{"ha":608,"x_min":11,"x_max":560,"o":"m 559 346 q 532 193 560 259 q 450 85 505 127 q 315 22 395 42 q 136 8 236 3 l 113 -121 q 93 -147 110 -137 q 57 -159 76 -157 q 24 -150 38 -160 q 15 -114 11 -140 l 140 608 q 168 647 149 636 q 205 656 187 658 q 235 640 222 654 q 244 604 247 625 l 203 384 q 328 486 266 461 q 440 497 391 510 q 522 442 490 484 q 559 346 555 400 m 434 389 q 367 405 401 414 q 298 366 332 396 q 232 292 264 336 q 171 201 199 247 l 153 107 q 277 112 220 102 q 375 147 334 122 q 439 213 416 172 q 463 311 463 254 q 434 389 463 368 z "},"Á":{"ha":715,"x_min":24,"x_max":760,"o":"m 555 793 q 592 823 572 815 q 627 828 612 831 q 653 814 643 825 q 663 789 663 803 l 658 31 q 645 1 661 14 q 609 -14 629 -11 q 571 -8 589 -16 q 553 23 553 0 l 564 289 l 311 289 l 115 12 q 80 -12 99 -11 q 47 0 61 -12 q 29 31 34 12 q 35 65 24 50 l 555 793 m 385 392 l 566 392 l 570 640 l 385 392 m 681 1039 q 720 1055 701 1058 q 749 1039 738 1053 q 760 1005 760 1025 q 742 968 760 985 l 639 873 q 601 858 618 854 q 573 875 583 861 q 562 907 563 888 q 574 937 562 925 l 681 1039 z "},"Ă":{"ha":715,"x_min":24,"x_max":792,"o":"m 555 793 q 592 823 572 815 q 627 828 612 831 q 653 814 643 825 q 663 789 663 803 l 658 31 q 645 1 661 14 q 609 -14 629 -11 q 571 -8 589 -16 q 553 23 553 0 l 564 289 l 311 289 l 115 12 q 80 -12 99 -11 q 47 0 61 -12 q 29 31 34 12 q 35 65 24 50 l 555 793 m 385 392 l 566 392 l 570 640 l 385 392 m 715 990 q 743 1008 726 1006 q 772 1001 760 1009 q 788 977 784 993 q 779 943 792 962 q 703 878 747 899 q 613 858 658 857 q 531 879 568 859 q 476 940 494 899 q 477 975 468 960 q 501 998 486 990 q 531 1004 517 1005 q 548 990 545 1002 q 581 944 559 958 q 629 932 604 930 q 677 949 654 935 q 715 990 701 964 z "},"Â":{"ha":715,"x_min":24,"x_max":751,"o":"m 555 793 q 592 823 572 815 q 627 828 612 831 q 653 814 643 825 q 663 789 663 803 l 658 31 q 645 1 661 14 q 609 -14 629 -11 q 571 -8 589 -16 q 553 23 553 0 l 564 289 l 311 289 l 115 12 q 80 -12 99 -11 q 47 0 61 -12 q 29 31 34 12 q 35 65 24 50 l 555 793 m 385 392 l 566 392 l 570 640 l 385 392 m 587 991 q 652 1021 618 1024 q 699 991 685 1017 l 746 898 q 743 871 751 886 q 719 846 734 856 q 687 837 704 837 q 661 854 670 837 l 628 913 l 579 856 q 549 839 566 840 q 519 846 532 838 q 500 868 506 854 q 506 894 495 882 l 587 991 z "},"À":{"ha":715,"x_min":24,"x_max":734,"o":"m 555 793 q 592 823 572 815 q 627 828 612 831 q 653 814 643 825 q 663 789 663 803 l 658 31 q 645 1 661 14 q 609 -14 629 -11 q 571 -8 589 -16 q 553 23 553 0 l 564 289 l 311 289 l 115 12 q 80 -12 99 -11 q 47 0 61 -12 q 29 31 34 12 q 35 65 24 50 l 555 793 m 385 392 l 566 392 l 570 640 l 385 392 m 723 921 q 729 890 734 909 q 711 859 724 872 q 680 842 699 845 q 646 857 662 838 l 560 952 q 550 987 547 967 q 566 1021 553 1006 q 598 1038 579 1035 q 633 1023 617 1042 l 723 921 z "},"Ä":{"ha":715,"x_min":24,"x_max":783,"o":"m 555 793 q 592 823 572 815 q 627 828 612 831 q 653 814 643 825 q 663 789 663 803 l 658 31 q 645 1 661 14 q 609 -14 629 -11 q 571 -8 589 -16 q 553 23 553 0 l 564 289 l 311 289 l 115 12 q 80 -12 99 -11 q 47 0 61 -12 q 29 31 34 12 q 35 65 24 50 l 555 793 m 385 392 l 566 392 l 570 640 l 385 392 m 486 906 q 511 949 491 932 q 556 967 530 967 q 597 949 582 967 q 606 906 612 932 q 582 863 602 880 q 536 846 562 846 q 496 863 510 846 q 486 906 481 880 m 656 906 q 682 949 662 932 q 727 967 701 967 q 768 949 753 967 q 777 906 783 932 q 753 863 773 880 q 707 846 732 846 q 667 863 681 846 q 656 906 652 880 z "},"Ā":{"ha":715,"x_min":24,"x_max":822,"o":"m 555 793 q 592 823 572 815 q 627 828 612 831 q 653 814 643 825 q 663 789 663 803 l 658 31 q 645 1 661 14 q 609 -14 629 -11 q 571 -8 589 -16 q 553 23 553 0 l 564 289 l 311 289 l 115 12 q 80 -12 99 -11 q 47 0 61 -12 q 29 31 34 12 q 35 65 24 50 l 555 793 m 385 392 l 566 392 l 570 640 l 385 392 m 784 975 q 815 960 808 975 q 817 925 822 944 q 798 890 812 906 q 765 873 784 873 l 437 871 q 405 886 412 871 q 401 921 397 902 q 418 956 406 940 q 448 971 431 971 l 784 975 z "},"Ą":{"ha":715,"x_min":24,"x_max":663,"o":"m 555 793 q 592 823 572 815 q 627 828 612 831 q 653 814 643 825 q 663 789 663 803 l 658 31 q 645 1 661 14 q 609 -14 629 -11 q 571 -8 589 -16 q 553 23 553 0 l 564 289 l 311 289 l 115 12 q 80 -12 99 -11 q 47 0 61 -12 q 29 31 34 12 q 35 65 24 50 l 555 793 m 385 392 l 566 392 l 570 640 l 385 392 m 633 -1 q 611 -29 621 -12 q 598 -66 601 -46 q 601 -109 595 -87 q 625 -149 606 -130 q 627 -180 635 -164 q 603 -204 618 -195 q 568 -212 587 -213 q 536 -193 548 -210 q 506 -124 511 -160 q 507 -55 500 -88 q 532 7 514 -22 q 570 54 549 35 q 607 70 589 72 q 637 56 625 68 q 649 28 648 45 q 633 -1 650 11 z "},"Å":{"ha":715,"x_min":24,"x_max":734,"o":"m 555 793 q 592 823 572 815 q 627 828 612 831 q 653 814 643 825 q 663 789 663 803 l 658 31 q 645 1 661 14 q 609 -14 629 -11 q 571 -8 589 -16 q 553 23 553 0 l 564 289 l 311 289 l 115 12 q 80 -12 99 -11 q 47 0 61 -12 q 29 31 34 12 q 35 65 24 50 l 555 793 m 385 392 l 566 392 l 570 640 l 385 392 m 613 936 q 635 910 609 910 q 654 918 646 910 q 666 936 663 925 q 662 955 669 947 q 644 963 655 963 q 625 955 633 963 q 613 936 616 947 m 552 936 q 589 998 559 972 q 655 1024 618 1024 q 713 998 692 1024 q 727 936 734 972 q 690 874 720 899 q 624 849 661 849 q 566 874 587 849 q 552 936 545 899 z "},"Ã":{"ha":715,"x_min":24,"x_max":880,"o":"m 555 793 q 592 823 572 815 q 627 828 612 831 q 653 814 643 825 q 663 789 663 803 l 658 31 q 645 1 661 14 q 609 -14 629 -11 q 571 -8 589 -16 q 553 23 553 0 l 564 289 l 311 289 l 115 12 q 80 -12 99 -11 q 47 0 61 -12 q 29 31 34 12 q 35 65 24 50 l 555 793 m 385 392 l 566 392 l 570 640 l 385 392 m 788 989 q 813 1013 796 1006 q 846 1017 830 1020 q 871 1000 861 1013 q 875 963 880 986 q 852 911 867 935 q 818 869 837 887 q 777 842 799 852 q 734 831 755 833 q 677 845 699 829 q 638 880 655 861 q 604 914 621 899 q 560 925 586 929 q 528 905 538 922 q 502 857 517 887 q 473 830 490 834 q 441 834 456 826 q 421 861 427 842 q 427 901 415 879 q 488 982 454 948 q 570 1015 522 1016 q 631 1000 609 1015 q 669 968 654 985 q 700 937 685 951 q 739 922 715 922 q 771 941 761 922 q 788 989 781 960 z "},"Æ":{"ha":1126,"x_min":20,"x_max":1112,"o":"m 559 -22 q 532 -19 547 -22 q 507 -10 518 -16 q 488 4 495 -4 q 484 24 481 12 l 528 289 l 307 289 l 111 12 q 76 -13 95 -11 q 43 -5 57 -15 q 25 23 30 5 q 31 56 20 41 l 551 793 q 613 831 574 825 q 707 837 652 837 l 1072 834 q 1105 819 1097 834 q 1107 784 1112 803 q 1090 749 1103 765 q 1061 734 1077 734 l 705 730 l 661 475 l 895 473 q 928 458 921 473 q 931 423 936 442 q 913 389 926 404 q 884 373 901 373 l 643 369 l 595 85 l 941 83 q 975 67 967 83 q 977 33 982 52 q 960 -2 972 14 q 930 -18 947 -18 l 559 -22 m 544 392 l 590 677 l 381 392 l 544 392 z "},"Ǽ":{"ha":1126,"x_min":20,"x_max":1112,"o":"m 559 -22 q 532 -19 547 -22 q 507 -10 518 -16 q 488 4 495 -4 q 484 24 481 12 l 528 289 l 307 289 l 111 12 q 76 -13 95 -11 q 43 -5 57 -15 q 25 23 30 5 q 31 56 20 41 l 551 793 q 613 831 574 825 q 707 837 652 837 l 1072 834 q 1105 819 1097 834 q 1107 784 1112 803 q 1090 749 1103 765 q 1061 734 1077 734 l 705 730 l 661 475 l 895 473 q 928 458 921 473 q 931 423 936 442 q 913 389 926 404 q 884 373 901 373 l 643 369 l 595 85 l 941 83 q 975 67 967 83 q 977 33 982 52 q 960 -2 972 14 q 930 -18 947 -18 l 559 -22 m 544 392 l 590 677 l 381 392 l 544 392 m 909 1044 q 947 1061 929 1063 q 977 1044 966 1058 q 987 1010 987 1031 q 970 974 987 990 l 867 879 q 829 863 846 860 q 801 880 811 867 q 790 912 791 894 q 802 943 789 930 l 909 1044 z "},"Ć":{"ha":659,"x_min":35,"x_max":654,"o":"m 487 245 q 521 273 500 270 q 556 267 541 277 q 576 235 571 256 q 566 190 582 214 q 505 108 538 145 q 433 44 471 71 q 355 3 395 18 q 274 -12 315 -12 q 164 20 213 -12 q 85 109 115 53 q 45 241 56 165 q 52 406 35 317 q 104 570 66 492 q 192 707 141 648 q 303 800 243 766 q 425 834 363 834 q 568 788 510 834 q 646 639 627 742 q 640 606 654 623 q 606 580 627 589 q 566 574 586 571 q 537 602 545 578 q 488 697 522 671 q 401 723 453 723 q 321 696 361 723 q 246 623 281 669 q 186 519 212 578 q 151 397 161 460 q 146 280 140 335 q 172 184 152 225 q 223 121 191 144 q 296 98 255 98 q 400 139 349 98 q 487 245 452 180 m 524 1040 q 562 1057 544 1059 q 591 1040 581 1054 q 602 1006 602 1027 q 585 970 602 986 l 481 875 q 444 859 461 856 q 416 876 426 863 q 405 908 406 890 q 416 939 404 926 l 524 1040 z "},"Č":{"ha":659,"x_min":35,"x_max":654,"o":"m 487 245 q 521 273 500 270 q 556 267 541 277 q 576 235 571 256 q 566 190 582 214 q 505 108 538 145 q 433 44 471 71 q 355 3 395 18 q 274 -12 315 -12 q 164 20 213 -12 q 85 109 115 53 q 45 241 56 165 q 52 406 35 317 q 104 570 66 492 q 192 707 141 648 q 303 800 243 766 q 425 834 363 834 q 568 788 510 834 q 646 639 627 742 q 640 606 654 623 q 606 580 627 589 q 566 574 586 571 q 537 602 545 578 q 488 697 522 671 q 401 723 453 723 q 321 696 361 723 q 246 623 281 669 q 186 519 212 578 q 151 397 161 460 q 146 280 140 335 q 172 184 152 225 q 223 121 191 144 q 296 98 255 98 q 400 139 349 98 q 487 245 452 180 m 491 886 q 427 857 460 853 q 380 886 393 860 l 332 979 q 338 1008 330 993 q 361 1031 347 1023 q 391 1040 376 1040 q 418 1023 407 1039 l 450 964 l 499 1021 q 528 1038 513 1038 q 556 1031 544 1039 q 574 1010 568 1024 q 572 983 581 997 l 491 886 z "},"Ç":{"ha":659,"x_min":35,"x_max":654,"o":"m 487 245 q 521 273 500 270 q 556 267 541 277 q 576 235 571 256 q 566 190 582 214 q 505 108 538 145 q 433 44 471 71 q 355 3 395 18 q 274 -12 315 -12 q 164 20 213 -12 q 85 109 115 53 q 45 241 56 165 q 52 406 35 317 q 104 570 66 492 q 192 707 141 648 q 303 800 243 766 q 425 834 363 834 q 568 788 510 834 q 646 639 627 742 q 640 606 654 623 q 606 580 627 589 q 566 574 586 571 q 537 602 545 578 q 488 697 522 671 q 401 723 453 723 q 321 696 361 723 q 246 623 281 669 q 186 519 212 578 q 151 397 161 460 q 146 280 140 335 q 172 184 152 225 q 223 121 191 144 q 296 98 255 98 q 400 139 349 98 q 487 245 452 180 m 320 14 l 317 -20 q 428 -54 395 -23 q 452 -132 461 -84 q 389 -231 439 -202 q 266 -259 339 -260 q 227 -244 239 -259 q 217 -212 216 -229 q 233 -178 218 -194 q 274 -161 247 -163 q 300 -161 286 -161 q 326 -157 315 -160 q 346 -149 338 -155 q 354 -130 354 -142 q 342 -111 354 -115 q 289 -109 331 -107 q 270 -107 283 -109 q 245 -94 256 -106 q 229 -58 233 -83 q 240 14 225 -34 l 320 14 z "},"Ĉ":{"ha":659,"x_min":35,"x_max":654,"o":"m 487 245 q 521 273 500 270 q 556 267 541 277 q 576 235 571 256 q 566 190 582 214 q 505 108 538 145 q 433 44 471 71 q 355 3 395 18 q 274 -12 315 -12 q 164 20 213 -12 q 85 109 115 53 q 45 241 56 165 q 52 406 35 317 q 104 570 66 492 q 192 707 141 648 q 303 800 243 766 q 425 834 363 834 q 568 788 510 834 q 646 639 627 742 q 640 606 654 623 q 606 580 627 589 q 566 574 586 571 q 537 602 545 578 q 488 697 522 671 q 401 723 453 723 q 321 696 361 723 q 246 623 281 669 q 186 519 212 578 q 151 397 161 460 q 146 280 140 335 q 172 184 152 225 q 223 121 191 144 q 296 98 255 98 q 400 139 349 98 q 487 245 452 180 m 407 1009 q 471 1038 438 1042 q 518 1009 505 1035 l 566 916 q 562 888 571 903 q 538 864 553 873 q 507 854 524 854 q 480 872 490 854 l 448 930 l 399 873 q 368 857 385 857 q 338 864 351 856 q 320 886 326 872 q 326 911 315 899 l 407 1009 z "},"Ċ":{"ha":659,"x_min":35,"x_max":654,"o":"m 487 245 q 521 273 500 270 q 556 267 541 277 q 576 235 571 256 q 566 190 582 214 q 505 108 538 145 q 433 44 471 71 q 355 3 395 18 q 274 -12 315 -12 q 164 20 213 -12 q 85 109 115 53 q 45 241 56 165 q 52 406 35 317 q 104 570 66 492 q 192 707 141 648 q 303 800 243 766 q 425 834 363 834 q 568 788 510 834 q 646 639 627 742 q 640 606 654 623 q 606 580 627 589 q 566 574 586 571 q 537 602 545 578 q 488 697 522 671 q 401 723 453 723 q 321 696 361 723 q 246 623 281 669 q 186 519 212 578 q 151 397 161 460 q 146 280 140 335 q 172 184 152 225 q 223 121 191 144 q 296 98 255 98 q 400 139 349 98 q 487 245 452 180 m 385 929 q 410 972 391 955 q 456 990 430 990 q 496 972 481 990 q 506 929 511 955 q 481 886 502 903 q 435 869 461 869 q 395 886 410 869 q 385 929 381 903 z "},"Ď":{"ha":675,"x_min":26,"x_max":642,"o":"m 198 819 q 215 829 199 825 q 248 834 231 834 q 278 828 264 834 q 289 807 292 822 q 486 785 411 817 q 597 692 560 753 q 637 547 633 631 q 623 372 642 464 q 568 217 605 290 q 472 90 532 144 q 326 7 412 37 q 125 -18 240 -22 q 104 -33 121 -27 q 68 -38 87 -38 q 38 -30 50 -38 q 33 -3 26 -22 l 198 819 m 146 85 q 296 96 233 77 q 404 155 359 115 q 476 250 449 194 q 518 374 503 307 q 534 513 533 448 q 511 624 536 578 q 429 692 486 670 q 271 703 372 715 l 146 85 m 479 883 q 414 854 448 850 q 368 883 381 857 l 320 977 q 326 1005 317 990 q 349 1029 335 1020 q 379 1037 363 1038 q 406 1020 395 1036 l 438 962 l 487 1019 q 516 1036 500 1035 q 544 1029 532 1036 q 562 1008 556 1021 q 560 981 568 994 l 479 883 z "},"Đ":{"ha":675,"x_min":26,"x_max":642,"o":"m 198 819 q 215 829 199 825 q 248 834 231 834 q 278 828 264 834 q 289 807 292 822 q 486 785 411 817 q 597 692 560 753 q 637 547 633 631 q 623 372 642 464 q 568 217 605 290 q 472 90 532 144 q 326 7 412 37 q 125 -18 240 -22 q 104 -33 121 -27 q 68 -38 87 -38 q 38 -30 50 -38 q 33 -3 26 -22 l 198 819 m 146 85 q 296 96 233 77 q 404 155 359 115 q 476 250 449 194 q 518 374 503 307 q 534 513 533 448 q 511 624 536 578 q 429 692 486 670 q 271 703 372 715 l 146 85 m 418 458 q 449 443 442 458 q 451 408 456 427 q 432 373 446 389 q 399 357 418 357 l 71 354 q 39 370 46 354 q 35 404 31 385 q 52 439 39 423 q 81 454 65 454 l 418 458 z "},"É":{"ha":680,"x_min":35,"x_max":666,"o":"m 113 -22 q 86 -19 100 -22 q 60 -10 72 -16 q 42 4 49 -4 q 38 24 35 12 l 159 765 q 187 819 165 800 q 260 837 209 837 l 625 834 q 659 819 651 834 q 661 784 666 803 q 644 749 656 765 q 614 734 631 734 l 259 730 l 214 475 l 449 473 q 482 458 475 473 q 485 423 490 442 q 467 389 480 404 q 438 373 454 373 l 197 369 l 149 85 l 495 83 q 528 67 521 83 q 531 33 536 52 q 513 -2 526 14 q 484 -18 500 -18 l 113 -22 m 486 1053 q 524 1069 506 1072 q 553 1053 543 1066 q 564 1019 564 1039 q 547 982 564 998 l 444 887 q 406 871 423 868 q 378 888 388 875 q 367 920 368 902 q 378 951 366 939 l 486 1053 z "},"Ĕ":{"ha":680,"x_min":35,"x_max":666,"o":"m 113 -22 q 86 -19 100 -22 q 60 -10 72 -16 q 42 4 49 -4 q 38 24 35 12 l 159 765 q 187 819 165 800 q 260 837 209 837 l 625 834 q 659 819 651 834 q 661 784 666 803 q 644 749 656 765 q 614 734 631 734 l 259 730 l 214 475 l 449 473 q 482 458 475 473 q 485 423 490 442 q 467 389 480 404 q 438 373 454 373 l 197 369 l 149 85 l 495 83 q 528 67 521 83 q 531 33 536 52 q 513 -2 526 14 q 484 -18 500 -18 l 113 -22 m 528 1005 q 555 1023 538 1021 q 585 1016 572 1024 q 601 992 597 1008 q 591 958 605 977 q 515 893 560 914 q 426 873 471 872 q 344 894 381 873 q 289 955 307 914 q 290 990 281 975 q 314 1013 298 1005 q 344 1019 330 1020 q 361 1005 358 1017 q 394 959 372 972 q 441 947 416 945 q 490 964 467 949 q 528 1005 514 979 z "},"Ě":{"ha":680,"x_min":35,"x_max":666,"o":"m 113 -22 q 86 -19 100 -22 q 60 -10 72 -16 q 42 4 49 -4 q 38 24 35 12 l 159 765 q 187 819 165 800 q 260 837 209 837 l 625 834 q 659 819 651 834 q 661 784 666 803 q 644 749 656 765 q 614 734 631 734 l 259 730 l 214 475 l 449 473 q 482 458 475 473 q 485 423 490 442 q 467 389 480 404 q 438 373 454 373 l 197 369 l 149 85 l 495 83 q 528 67 521 83 q 531 33 536 52 q 513 -2 526 14 q 484 -18 500 -18 l 113 -22 m 484 909 q 420 880 453 876 q 373 909 387 883 l 326 1002 q 332 1031 323 1016 q 355 1055 340 1046 q 385 1063 369 1063 q 411 1046 400 1062 l 444 987 l 492 1044 q 522 1061 506 1061 q 549 1055 537 1062 q 568 1034 562 1047 q 566 1006 574 1020 l 484 909 z "},"Ê":{"ha":680,"x_min":35,"x_max":666,"o":"m 113 -22 q 86 -19 100 -22 q 60 -10 72 -16 q 42 4 49 -4 q 38 24 35 12 l 159 765 q 187 819 165 800 q 260 837 209 837 l 625 834 q 659 819 651 834 q 661 784 666 803 q 644 749 656 765 q 614 734 631 734 l 259 730 l 214 475 l 449 473 q 482 458 475 473 q 485 423 490 442 q 467 389 480 404 q 438 373 454 373 l 197 369 l 149 85 l 495 83 q 528 67 521 83 q 531 33 536 52 q 513 -2 526 14 q 484 -18 500 -18 l 113 -22 m 412 1020 q 477 1049 444 1053 q 524 1020 510 1046 l 571 926 q 568 899 576 914 q 544 875 559 884 q 512 865 529 865 q 486 883 495 865 l 453 941 l 404 884 q 374 867 391 868 q 344 875 357 867 q 326 897 331 883 q 331 922 320 910 l 412 1020 z "},"Ë":{"ha":680,"x_min":35,"x_max":666,"o":"m 113 -22 q 86 -19 100 -22 q 60 -10 72 -16 q 42 4 49 -4 q 38 24 35 12 l 159 765 q 187 819 165 800 q 260 837 209 837 l 625 834 q 659 819 651 834 q 661 784 666 803 q 644 749 656 765 q 614 734 631 734 l 259 730 l 214 475 l 449 473 q 482 458 475 473 q 485 423 490 442 q 467 389 480 404 q 438 373 454 373 l 197 369 l 149 85 l 495 83 q 528 67 521 83 q 531 33 536 52 q 513 -2 526 14 q 484 -18 500 -18 l 113 -22 m 301 924 q 326 967 307 949 q 372 985 346 985 q 412 967 397 985 q 422 924 427 949 q 397 881 418 898 q 351 864 377 864 q 311 881 326 864 q 301 924 297 898 m 472 924 q 497 967 477 949 q 543 985 517 985 q 583 967 568 985 q 593 924 598 949 q 568 881 589 898 q 522 864 548 864 q 482 881 496 864 q 472 924 468 898 z "},"Ė":{"ha":680,"x_min":35,"x_max":666,"o":"m 113 -22 q 86 -19 100 -22 q 60 -10 72 -16 q 42 4 49 -4 q 38 24 35 12 l 159 765 q 187 819 165 800 q 260 837 209 837 l 625 834 q 659 819 651 834 q 661 784 666 803 q 644 749 656 765 q 614 734 631 734 l 259 730 l 214 475 l 449 473 q 482 458 475 473 q 485 423 490 442 q 467 389 480 404 q 438 373 454 373 l 197 369 l 149 85 l 495 83 q 528 67 521 83 q 531 33 536 52 q 513 -2 526 14 q 484 -18 500 -18 l 113 -22 m 374 922 q 399 966 380 948 q 445 983 419 983 q 486 966 471 983 q 495 922 500 948 q 471 880 491 897 q 425 863 450 863 q 385 880 399 863 q 374 922 370 897 z "},"È":{"ha":680,"x_min":35,"x_max":666,"o":"m 113 -22 q 86 -19 100 -22 q 60 -10 72 -16 q 42 4 49 -4 q 38 24 35 12 l 159 765 q 187 819 165 800 q 260 837 209 837 l 625 834 q 659 819 651 834 q 661 784 666 803 q 644 749 656 765 q 614 734 631 734 l 259 730 l 214 475 l 449 473 q 482 458 475 473 q 485 423 490 442 q 467 389 480 404 q 438 373 454 373 l 197 369 l 149 85 l 495 83 q 528 67 521 83 q 531 33 536 52 q 513 -2 526 14 q 484 -18 500 -18 l 113 -22 m 496 939 q 503 908 507 926 q 485 876 498 890 q 454 859 472 863 q 419 875 435 856 l 334 970 q 323 1004 320 985 q 340 1038 327 1024 q 372 1056 353 1053 q 407 1040 391 1059 l 496 939 z "},"Ē":{"ha":680,"x_min":35,"x_max":666,"o":"m 113 -22 q 86 -19 100 -22 q 60 -10 72 -16 q 42 4 49 -4 q 38 24 35 12 l 159 765 q 187 819 165 800 q 260 837 209 837 l 625 834 q 659 819 651 834 q 661 784 666 803 q 644 749 656 765 q 614 734 631 734 l 259 730 l 214 475 l 449 473 q 482 458 475 473 q 485 423 490 442 q 467 389 480 404 q 438 373 454 373 l 197 369 l 149 85 l 495 83 q 528 67 521 83 q 531 33 536 52 q 513 -2 526 14 q 484 -18 500 -18 l 113 -22 m 616 990 q 647 975 640 990 q 649 940 654 959 q 630 905 644 921 q 597 888 616 888 l 269 886 q 237 901 244 886 q 233 936 229 917 q 250 970 237 955 q 279 986 263 986 l 616 990 z "},"Ę":{"ha":680,"x_min":35,"x_max":666,"o":"m 113 -22 q 86 -19 100 -22 q 60 -10 72 -16 q 42 4 49 -4 q 38 24 35 12 l 159 765 q 187 819 165 800 q 260 837 209 837 l 625 834 q 659 819 651 834 q 661 784 666 803 q 644 749 656 765 q 614 734 631 734 l 259 730 l 214 475 l 449 473 q 482 458 475 473 q 485 423 490 442 q 467 389 480 404 q 438 373 454 373 l 197 369 l 149 85 l 495 83 q 528 67 521 83 q 531 33 536 52 q 513 -2 526 14 q 484 -18 500 -18 l 113 -22 m 469 -20 q 447 -48 457 -31 q 434 -85 437 -65 q 437 -127 431 -106 q 461 -168 442 -149 q 463 -199 471 -183 q 439 -223 454 -214 q 404 -231 423 -232 q 372 -212 384 -229 q 342 -143 347 -179 q 343 -74 336 -107 q 368 -12 350 -41 q 406 35 385 16 q 443 51 425 53 q 473 37 461 49 q 485 9 484 26 q 469 -20 486 -8 z "},"Ğ":{"ha":686,"x_min":35,"x_max":647,"o":"m 294 94 q 365 107 330 94 q 431 151 400 121 q 488 229 463 180 q 528 346 513 277 l 369 343 q 336 359 343 343 q 333 393 328 374 q 351 428 338 412 q 380 444 363 444 l 556 445 q 611 436 593 445 q 635 413 629 427 q 640 382 642 399 q 633 351 637 366 q 574 191 612 259 q 489 78 537 123 q 386 10 441 33 q 274 -12 331 -12 q 164 20 213 -12 q 85 109 115 53 q 45 241 56 165 q 52 406 35 317 q 104 570 66 492 q 192 707 141 648 q 303 800 243 766 q 425 834 363 834 q 503 817 467 834 q 568 770 540 800 q 615 699 595 741 q 646 606 635 656 q 629 581 647 594 q 591 560 612 567 q 553 554 571 553 q 537 571 536 555 q 488 682 522 636 q 403 728 454 728 q 321 700 362 728 q 246 625 281 671 q 186 519 212 579 q 149 397 160 460 q 144 279 138 335 q 170 182 151 224 q 222 117 190 141 q 294 94 254 94 m 526 997 q 554 1015 537 1013 q 583 1008 571 1016 q 600 984 595 1000 q 590 949 604 968 q 514 885 559 906 q 425 865 469 864 q 342 886 380 865 q 288 947 305 906 q 288 982 279 967 q 313 1004 297 997 q 342 1010 328 1012 q 359 997 357 1009 q 393 951 370 964 q 440 939 415 937 q 489 956 465 941 q 526 997 513 971 z "},"Ĝ":{"ha":686,"x_min":35,"x_max":647,"o":"m 294 94 q 365 107 330 94 q 431 151 400 121 q 488 229 463 180 q 528 346 513 277 l 369 343 q 336 359 343 343 q 333 393 328 374 q 351 428 338 412 q 380 444 363 444 l 556 445 q 611 436 593 445 q 635 413 629 427 q 640 382 642 399 q 633 351 637 366 q 574 191 612 259 q 489 78 537 123 q 386 10 441 33 q 274 -12 331 -12 q 164 20 213 -12 q 85 109 115 53 q 45 241 56 165 q 52 406 35 317 q 104 570 66 492 q 192 707 141 648 q 303 800 243 766 q 425 834 363 834 q 503 817 467 834 q 568 770 540 800 q 615 699 595 741 q 646 606 635 656 q 629 581 647 594 q 591 560 612 567 q 553 554 571 553 q 537 571 536 555 q 488 682 522 636 q 403 728 454 728 q 321 700 362 728 q 246 625 281 671 q 186 519 212 579 q 149 397 160 460 q 144 279 138 335 q 170 182 151 224 q 222 117 190 141 q 294 94 254 94 m 400 1010 q 465 1040 431 1043 q 511 1010 498 1036 l 559 917 q 555 890 564 905 q 532 865 547 875 q 500 856 517 856 q 473 873 483 856 l 441 932 l 392 875 q 361 858 378 859 q 332 865 345 857 q 313 887 319 873 q 319 913 308 901 l 400 1010 z "},"Ģ":{"ha":686,"x_min":35,"x_max":647,"o":"m 294 94 q 365 107 330 94 q 431 151 400 121 q 488 229 463 180 q 528 346 513 277 l 369 343 q 336 359 343 343 q 333 393 328 374 q 351 428 338 412 q 380 444 363 444 l 556 445 q 611 436 593 445 q 635 413 629 427 q 640 382 642 399 q 633 351 637 366 q 574 191 612 259 q 489 78 537 123 q 386 10 441 33 q 274 -12 331 -12 q 164 20 213 -12 q 85 109 115 53 q 45 241 56 165 q 52 406 35 317 q 104 570 66 492 q 192 707 141 648 q 303 800 243 766 q 425 834 363 834 q 503 817 467 834 q 568 770 540 800 q 615 699 595 741 q 646 606 635 656 q 629 581 647 594 q 591 560 612 567 q 553 554 571 553 q 537 571 536 555 q 488 682 522 636 q 403 728 454 728 q 321 700 362 728 q 246 625 281 671 q 186 519 212 579 q 149 397 160 460 q 144 279 138 335 q 170 182 151 224 q 222 117 190 141 q 294 94 254 94 m 221 -98 q 215 -75 210 -88 q 231 -54 220 -62 q 257 -43 241 -45 q 285 -56 273 -42 q 306 -94 297 -71 q 316 -144 315 -117 q 309 -201 317 -172 q 277 -255 300 -229 q 249 -269 264 -269 q 221 -263 233 -270 q 203 -245 209 -256 q 208 -221 198 -233 q 231 -189 224 -208 q 239 -153 239 -171 q 235 -121 240 -136 q 221 -98 229 -106 z "},"Ġ":{"ha":686,"x_min":35,"x_max":647,"o":"m 294 94 q 365 107 330 94 q 431 151 400 121 q 488 229 463 180 q 528 346 513 277 l 369 343 q 336 359 343 343 q 333 393 328 374 q 351 428 338 412 q 380 444 363 444 l 556 445 q 611 436 593 445 q 635 413 629 427 q 640 382 642 399 q 633 351 637 366 q 574 191 612 259 q 489 78 537 123 q 386 10 441 33 q 274 -12 331 -12 q 164 20 213 -12 q 85 109 115 53 q 45 241 56 165 q 52 406 35 317 q 104 570 66 492 q 192 707 141 648 q 303 800 243 766 q 425 834 363 834 q 503 817 467 834 q 568 770 540 800 q 615 699 595 741 q 646 606 635 656 q 629 581 647 594 q 591 560 612 567 q 553 554 571 553 q 537 571 536 555 q 488 682 522 636 q 403 728 454 728 q 321 700 362 728 q 246 625 281 671 q 186 519 212 579 q 149 397 160 460 q 144 279 138 335 q 170 182 151 224 q 222 117 190 141 q 294 94 254 94 m 368 929 q 393 972 373 955 q 438 990 412 990 q 479 972 464 990 q 488 929 494 955 q 464 886 484 903 q 418 869 444 869 q 378 886 392 869 q 368 929 363 903 z "},"Ħ":{"ha":751,"x_min":28,"x_max":755,"o":"m 719 665 q 749 642 742 661 q 751 606 755 624 q 732 573 746 587 q 700 563 718 559 l 88 566 q 56 581 64 566 q 53 616 49 597 q 70 650 57 635 q 99 666 83 666 l 719 665 m 532 372 l 190 372 l 132 38 q 110 2 127 12 q 74 -7 92 -8 q 42 5 56 -5 q 31 31 28 15 l 153 784 q 182 817 163 808 q 222 821 202 825 q 254 805 241 818 q 259 776 266 792 l 208 477 l 549 477 l 601 784 q 630 817 610 808 q 669 823 650 826 q 700 808 688 821 q 707 780 712 796 l 578 38 q 556 2 574 12 q 519 -7 538 -8 q 486 5 500 -5 q 475 31 472 15 l 532 372 z "},"Ĥ":{"ha":751,"x_min":28,"x_max":712,"o":"m 532 372 l 190 372 l 132 38 q 110 2 127 12 q 74 -7 92 -8 q 42 5 56 -5 q 31 31 28 15 l 153 784 q 182 817 163 808 q 222 821 202 825 q 254 805 241 818 q 259 776 266 792 l 208 477 l 549 477 l 601 784 q 630 817 610 808 q 669 823 650 826 q 700 808 688 821 q 707 780 712 796 l 578 38 q 556 2 574 12 q 519 -7 538 -8 q 486 5 500 -5 q 475 31 472 15 l 532 372 m 404 982 q 469 1011 435 1015 q 515 982 502 1008 l 563 888 q 559 861 568 876 q 536 837 551 846 q 504 827 521 827 q 477 845 487 827 l 445 903 l 396 846 q 366 829 382 830 q 336 837 349 829 q 317 859 323 845 q 323 884 312 872 l 404 982 z "},"Í":{"ha":642,"x_min":31,"x_max":612,"o":"m 209 100 l 315 726 l 195 724 q 162 740 170 724 q 159 774 155 755 q 177 809 164 793 q 206 825 190 825 l 578 825 q 606 803 601 821 q 606 768 612 785 q 584 736 600 750 q 549 727 568 723 l 422 726 l 313 100 l 439 99 q 471 90 460 103 q 481 58 481 76 q 470 23 481 41 q 433 1 458 5 l 62 1 q 39 17 46 1 q 33 52 31 33 q 48 86 35 71 q 85 102 61 102 l 205 100 l 209 100 m 442 1027 q 481 1043 463 1046 q 510 1027 499 1040 q 521 993 521 1013 q 503 956 521 972 l 400 861 q 362 846 380 842 q 334 863 345 849 q 323 895 324 876 q 335 925 323 913 l 442 1027 z "},"Ĭ":{"ha":642,"x_min":31,"x_max":612,"o":"m 209 100 l 315 726 l 195 724 q 162 740 170 724 q 159 774 155 755 q 177 809 164 793 q 206 825 190 825 l 578 825 q 606 803 601 821 q 606 768 612 785 q 584 736 600 750 q 549 727 568 723 l 422 726 l 313 100 l 439 99 q 471 90 460 103 q 481 58 481 76 q 470 23 481 41 q 433 1 458 5 l 62 1 q 39 17 46 1 q 33 52 31 33 q 48 86 35 71 q 85 102 61 102 l 205 100 l 209 100 m 483 989 q 511 1006 494 1005 q 540 1000 528 1008 q 556 976 552 991 q 547 941 560 960 q 471 877 515 898 q 381 857 426 856 q 299 878 336 857 q 244 939 262 898 q 245 974 236 959 q 269 996 254 989 q 299 1002 285 1004 q 316 989 313 1001 q 349 943 327 956 q 397 931 372 929 q 446 948 422 933 q 483 989 469 963 z "},"Î":{"ha":642,"x_min":31,"x_max":612,"o":"m 209 100 l 315 726 l 195 724 q 162 740 170 724 q 159 774 155 755 q 177 809 164 793 q 206 825 190 825 l 578 825 q 606 803 601 821 q 606 768 612 785 q 584 736 600 750 q 549 727 568 723 l 422 726 l 313 100 l 439 99 q 471 90 460 103 q 481 58 481 76 q 470 23 481 41 q 433 1 458 5 l 62 1 q 39 17 46 1 q 33 52 31 33 q 48 86 35 71 q 85 102 61 102 l 205 100 l 209 100 m 354 1005 q 418 1034 385 1038 q 465 1005 452 1031 l 513 911 q 509 884 518 899 q 486 860 500 869 q 454 850 471 850 q 427 868 437 850 l 395 926 l 346 869 q 315 852 332 853 q 286 860 298 852 q 267 882 273 868 q 273 907 262 895 l 354 1005 z "},"Ï":{"ha":642,"x_min":31,"x_max":612,"o":"m 209 100 l 315 726 l 195 724 q 162 740 170 724 q 159 774 155 755 q 177 809 164 793 q 206 825 190 825 l 578 825 q 606 803 601 821 q 606 768 612 785 q 584 736 600 750 q 549 727 568 723 l 422 726 l 313 100 l 439 99 q 471 90 460 103 q 481 58 481 76 q 470 23 481 41 q 433 1 458 5 l 62 1 q 39 17 46 1 q 33 52 31 33 q 48 86 35 71 q 85 102 61 102 l 205 100 l 209 100 m 254 924 q 279 967 259 949 q 324 985 298 985 q 365 967 350 985 q 374 924 380 949 q 350 881 370 898 q 304 864 330 864 q 264 881 278 864 q 254 924 250 898 m 425 924 q 450 967 430 949 q 495 985 469 985 q 536 967 521 985 q 545 924 551 949 q 521 881 541 898 q 475 864 500 864 q 435 881 449 864 q 425 924 420 898 z "},"İ":{"ha":642,"x_min":31,"x_max":612,"o":"m 209 100 l 315 726 l 195 724 q 162 740 170 724 q 159 774 155 755 q 177 809 164 793 q 206 825 190 825 l 578 825 q 606 803 601 821 q 606 768 612 785 q 584 736 600 750 q 549 727 568 723 l 422 726 l 313 100 l 439 99 q 471 90 460 103 q 481 58 481 76 q 470 23 481 41 q 433 1 458 5 l 62 1 q 39 17 46 1 q 33 52 31 33 q 48 86 35 71 q 85 102 61 102 l 205 100 l 209 100 m 346 933 q 371 977 351 959 q 416 994 391 994 q 457 977 442 994 q 467 933 472 959 q 442 890 463 907 q 396 873 422 873 q 356 890 370 873 q 346 933 342 907 z "},"Ì":{"ha":642,"x_min":31,"x_max":612,"o":"m 209 100 l 315 726 l 195 724 q 162 740 170 724 q 159 774 155 755 q 177 809 164 793 q 206 825 190 825 l 578 825 q 606 803 601 821 q 606 768 612 785 q 584 736 600 750 q 549 727 568 723 l 422 726 l 313 100 l 439 99 q 471 90 460 103 q 481 58 481 76 q 470 23 481 41 q 433 1 458 5 l 62 1 q 39 17 46 1 q 33 52 31 33 q 48 86 35 71 q 85 102 61 102 l 205 100 l 209 100 m 500 944 q 507 913 511 932 q 489 882 502 895 q 458 865 476 868 q 423 880 439 861 l 338 975 q 328 1010 324 990 q 344 1044 331 1029 q 376 1061 357 1058 q 411 1046 395 1065 l 500 944 z "},"Ī":{"ha":642,"x_min":31,"x_max":617,"o":"m 209 100 l 315 726 l 195 724 q 162 740 170 724 q 159 774 155 755 q 177 809 164 793 q 206 825 190 825 l 578 825 q 606 803 601 821 q 606 768 612 785 q 584 736 600 750 q 549 727 568 723 l 422 726 l 313 100 l 439 99 q 471 90 460 103 q 481 58 481 76 q 470 23 481 41 q 433 1 458 5 l 62 1 q 39 17 46 1 q 33 52 31 33 q 48 86 35 71 q 85 102 61 102 l 205 100 l 209 100 m 579 966 q 610 950 604 966 q 612 916 617 935 q 593 880 608 897 q 560 864 579 864 l 232 861 q 200 877 208 861 q 197 911 193 892 q 214 946 201 930 q 243 962 227 962 l 579 966 z "},"Į":{"ha":642,"x_min":31,"x_max":612,"o":"m 209 100 l 315 726 l 195 724 q 162 740 170 724 q 159 774 155 755 q 177 809 164 793 q 206 825 190 825 l 578 825 q 606 803 601 821 q 606 768 612 785 q 584 736 600 750 q 549 727 568 723 l 422 726 l 313 100 l 439 99 q 471 90 460 103 q 481 58 481 76 q 470 23 481 41 q 433 1 458 5 l 62 1 q 39 17 46 1 q 33 52 31 33 q 48 86 35 71 q 85 102 61 102 l 205 100 l 209 100 m 441 7 q 418 -21 429 -4 q 406 -58 408 -38 q 408 -100 403 -79 q 433 -141 414 -122 q 434 -172 442 -156 q 410 -196 426 -187 q 375 -203 395 -205 q 343 -184 355 -202 q 313 -116 319 -152 q 315 -47 308 -80 q 339 15 321 -14 q 377 62 357 43 q 414 78 396 80 q 444 64 433 76 q 456 36 456 53 q 441 7 457 19 z "},"Ĩ":{"ha":642,"x_min":31,"x_max":659,"o":"m 209 100 l 315 726 l 195 724 q 162 740 170 724 q 159 774 155 755 q 177 809 164 793 q 206 825 190 825 l 578 825 q 606 803 601 821 q 606 768 612 785 q 584 736 600 750 q 549 727 568 723 l 422 726 l 313 100 l 439 99 q 471 90 460 103 q 481 58 481 76 q 470 23 481 41 q 433 1 458 5 l 62 1 q 39 17 46 1 q 33 52 31 33 q 48 86 35 71 q 85 102 61 102 l 205 100 l 209 100 m 567 1013 q 592 1038 575 1031 q 625 1041 609 1044 q 650 1024 640 1038 q 654 987 659 1010 q 631 935 646 959 q 597 894 616 911 q 556 867 578 876 q 513 856 534 857 q 456 869 477 853 q 417 905 434 886 q 382 939 400 924 q 339 949 365 954 q 307 929 317 947 q 281 882 296 911 q 252 854 269 859 q 220 859 235 850 q 200 885 206 867 q 206 925 194 903 q 267 1006 233 972 q 349 1039 301 1040 q 410 1024 388 1039 q 448 992 433 1009 q 479 961 464 975 q 518 947 494 947 q 550 966 540 947 q 567 1013 560 985 z "},"Ĺ":{"ha":602,"x_min":52,"x_max":563,"o":"m 172 784 q 201 817 180 808 q 240 821 221 825 q 271 804 259 817 q 277 774 283 791 l 161 107 l 533 103 q 559 81 556 99 q 555 43 563 62 q 530 9 547 23 q 498 -1 514 -5 l 125 3 q 98 5 111 3 q 73 14 84 7 q 57 34 62 20 q 56 72 52 47 l 172 784 m 446 986 q 485 1002 467 1005 q 514 986 503 1000 q 525 952 525 972 q 507 916 525 932 l 404 821 q 366 805 384 802 q 338 822 349 808 q 328 854 328 836 q 339 884 327 872 l 446 986 z "},"Ķ":{"ha":708,"x_min":37,"x_max":675,"o":"m 161 784 q 191 818 171 808 q 231 825 212 827 q 262 812 250 823 q 269 784 275 800 l 217 480 l 605 818 q 646 819 629 829 q 669 790 662 808 q 671 753 675 772 q 651 727 667 734 l 278 403 q 372 218 326 288 q 460 121 418 149 q 534 101 499 94 q 593 148 568 109 q 621 151 604 157 q 650 130 637 144 q 664 96 662 115 q 648 61 666 77 q 600 19 628 37 q 538 -3 571 1 q 469 2 506 -8 q 392 42 431 12 q 291 153 342 80 q 193 345 240 225 l 140 38 q 119 2 136 12 q 83 -7 102 -8 q 51 5 65 -5 q 39 31 37 15 l 161 784 m 228 -47 q 222 -25 217 -38 q 237 -3 227 -12 q 264 7 248 5 q 292 -5 279 8 q 313 -43 304 -20 q 323 -94 321 -66 q 315 -151 324 -122 q 283 -205 307 -179 q 256 -219 271 -218 q 228 -213 240 -220 q 210 -195 216 -206 q 214 -171 205 -183 q 238 -139 231 -157 q 246 -103 245 -121 q 241 -71 247 -85 q 228 -47 236 -56 z "},"Ĵ":{"ha":623,"x_min":9,"x_max":666,"o":"m 115 245 q 164 138 127 180 q 254 98 201 96 q 321 135 292 99 q 374 229 351 171 q 414 361 397 288 q 443 512 430 435 q 465 662 456 589 q 484 792 475 735 q 505 821 487 812 q 543 829 522 830 q 578 816 563 827 q 589 783 593 804 q 553 566 570 670 q 517 374 536 463 q 475 214 498 286 q 419 92 452 142 q 342 14 387 41 q 236 -12 297 -14 q 97 44 153 -11 q 18 190 41 99 q 22 235 9 214 q 53 267 34 256 q 91 273 72 277 q 115 245 110 270 m 502 1000 q 566 1029 533 1032 q 613 1000 600 1025 l 661 906 q 657 879 666 894 q 633 854 648 864 q 602 845 618 845 q 575 863 585 845 l 543 921 l 494 864 q 463 847 480 848 q 433 854 446 846 q 415 876 420 863 q 420 902 410 890 l 502 1000 z "},"Ľ":{"ha":602,"x_min":52,"x_max":563,"o":"m 172 784 q 201 817 180 808 q 240 821 221 825 q 271 804 259 817 q 277 774 283 791 l 161 107 l 533 103 q 559 81 556 99 q 555 43 563 62 q 530 9 547 23 q 498 -1 514 -5 l 125 3 q 98 5 111 3 q 73 14 84 7 q 57 34 62 20 q 56 72 52 47 l 172 784 m 387 735 q 414 769 396 760 q 450 777 433 779 q 479 764 467 776 q 487 734 491 751 l 449 571 q 427 535 445 545 q 391 526 410 525 q 359 538 373 528 q 349 564 346 548 l 387 735 z "},"Ļ":{"ha":602,"x_min":52,"x_max":563,"o":"m 172 784 q 201 817 180 808 q 240 821 221 825 q 271 804 259 817 q 277 774 283 791 l 161 107 l 533 103 q 559 81 556 99 q 555 43 563 62 q 530 9 547 23 q 498 -1 514 -5 l 125 3 q 98 5 111 3 q 73 14 84 7 q 57 34 62 20 q 56 72 52 47 l 172 784 m 262 -62 q 256 -40 251 -53 q 271 -18 260 -27 q 298 -8 282 -9 q 326 -20 313 -7 q 347 -58 338 -35 q 357 -109 355 -81 q 349 -165 358 -137 q 317 -220 340 -194 q 290 -234 305 -233 q 262 -228 274 -235 q 244 -210 250 -221 q 248 -186 239 -198 q 272 -154 264 -172 q 280 -118 279 -136 q 275 -85 281 -100 q 262 -62 270 -71 z "},"Ŀ":{"ha":602,"x_min":52,"x_max":563,"o":"m 172 784 q 201 817 180 808 q 240 821 221 825 q 271 804 259 817 q 277 774 283 791 l 161 107 l 533 103 q 559 81 556 99 q 555 43 563 62 q 530 9 547 23 q 498 -1 514 -5 l 125 3 q 98 5 111 3 q 73 14 84 7 q 57 34 62 20 q 56 72 52 47 l 172 784 m 334 335 q 359 378 339 361 q 404 396 378 396 q 445 378 430 396 q 454 335 460 361 q 430 292 450 309 q 384 275 410 275 q 344 292 358 275 q 334 335 330 309 z "},"Ń":{"ha":774,"x_min":42,"x_max":730,"o":"m 244 602 l 145 24 q 123 -12 141 -1 q 87 -20 106 -22 q 56 -9 69 -19 q 45 18 42 1 l 170 784 q 191 814 175 804 q 226 827 208 825 q 260 821 244 829 q 281 800 275 814 l 524 208 l 618 784 q 647 818 628 808 q 685 826 666 827 q 717 812 704 825 q 726 783 730 800 l 594 22 q 577 -3 591 5 q 545 -14 563 -12 q 513 -11 528 -16 q 492 7 498 -5 l 244 602 m 500 968 q 539 985 521 987 q 568 968 557 982 q 579 935 579 955 q 562 898 579 914 l 458 803 q 420 787 438 784 q 393 804 403 791 q 382 836 382 818 q 393 867 381 854 l 500 968 z "},"Ň":{"ha":774,"x_min":42,"x_max":730,"o":"m 244 602 l 145 24 q 123 -12 141 -1 q 87 -20 106 -22 q 56 -9 69 -19 q 45 18 42 1 l 170 784 q 191 814 175 804 q 226 827 208 825 q 260 821 244 829 q 281 800 275 814 l 524 208 l 618 784 q 647 818 628 808 q 685 826 666 827 q 717 812 704 825 q 726 783 730 800 l 594 22 q 577 -3 591 5 q 545 -14 563 -12 q 513 -11 528 -16 q 492 7 498 -5 l 244 602 m 514 834 q 450 805 483 802 q 403 834 416 808 l 355 928 q 361 956 353 941 q 385 980 370 971 q 414 988 399 989 q 441 971 430 987 l 473 913 l 522 970 q 551 987 536 986 q 579 980 567 987 q 597 959 591 972 q 595 932 604 945 l 514 834 z "},"Ņ":{"ha":774,"x_min":42,"x_max":730,"o":"m 244 602 l 145 24 q 123 -12 141 -1 q 87 -20 106 -22 q 56 -9 69 -19 q 45 18 42 1 l 170 784 q 191 814 175 804 q 226 827 208 825 q 260 821 244 829 q 281 800 275 814 l 524 208 l 618 784 q 647 818 628 808 q 685 826 666 827 q 717 812 704 825 q 726 783 730 800 l 594 22 q 577 -3 591 5 q 545 -14 563 -12 q 513 -11 528 -16 q 492 7 498 -5 l 244 602 m 273 -52 q 267 -29 262 -42 q 282 -7 271 -16 q 309 3 293 1 q 336 -9 324 4 q 357 -47 349 -24 q 368 -98 366 -71 q 360 -155 369 -126 q 328 -209 351 -183 q 300 -223 316 -222 q 273 -217 285 -224 q 255 -199 260 -210 q 259 -175 250 -187 q 283 -143 275 -161 q 291 -107 290 -125 q 286 -75 292 -90 q 273 -52 281 -60 z "},"Ñ":{"ha":774,"x_min":42,"x_max":730,"o":"m 244 602 l 145 24 q 123 -12 141 -1 q 87 -20 106 -22 q 56 -9 69 -19 q 45 18 42 1 l 170 784 q 191 814 175 804 q 226 827 208 825 q 260 821 244 829 q 281 800 275 814 l 524 208 l 618 784 q 647 818 628 808 q 685 826 666 827 q 717 812 704 825 q 726 783 730 800 l 594 22 q 577 -3 591 5 q 545 -14 563 -12 q 513 -11 528 -16 q 492 7 498 -5 l 244 602 m 608 1012 q 633 1036 616 1029 q 665 1040 650 1043 q 690 1023 681 1036 q 694 986 700 1009 q 671 934 686 958 q 637 892 656 910 q 597 865 618 875 q 553 854 575 856 q 496 868 518 852 q 458 903 475 884 q 423 937 441 922 q 380 948 406 952 q 347 928 358 945 q 321 880 336 910 q 292 853 309 857 q 261 857 275 849 q 241 884 247 865 q 247 924 235 902 q 308 1005 274 971 q 389 1038 342 1039 q 451 1023 429 1038 q 489 991 473 1008 q 519 960 505 974 q 559 945 534 945 q 591 964 581 945 q 608 1012 601 983 z "},"Ó":{"ha":705,"x_min":41,"x_max":666,"o":"m 57 406 q 109 570 72 492 q 197 707 146 648 q 307 800 247 766 q 429 834 368 834 q 538 800 490 834 q 616 707 586 766 q 656 570 647 648 q 651 406 666 492 q 598 242 635 317 q 511 111 562 167 q 401 22 461 54 q 281 -9 342 -9 q 171 22 220 -9 q 92 111 122 54 q 51 242 61 167 q 57 406 41 317 m 156 397 q 151 280 145 335 q 177 184 157 225 q 228 119 197 142 q 300 95 259 95 q 380 119 340 95 q 453 184 419 142 q 512 280 487 225 q 548 397 537 335 q 553 519 559 460 q 528 623 548 578 q 478 696 509 669 q 407 724 448 724 q 326 696 366 724 q 252 623 286 669 q 192 519 217 578 q 156 397 167 460 m 479 1040 q 517 1057 499 1059 q 547 1040 536 1054 q 557 1006 557 1027 q 540 970 557 986 l 437 875 q 399 859 416 856 q 371 876 381 863 q 360 908 361 890 q 372 939 359 926 l 479 1040 z "},"Ŏ":{"ha":705,"x_min":41,"x_max":666,"o":"m 57 406 q 109 570 72 492 q 197 707 146 648 q 307 800 247 766 q 429 834 368 834 q 538 800 490 834 q 616 707 586 766 q 656 570 647 648 q 651 406 666 492 q 598 242 635 317 q 511 111 562 167 q 401 22 461 54 q 281 -9 342 -9 q 171 22 220 -9 q 92 111 122 54 q 51 242 61 167 q 57 406 41 317 m 156 397 q 151 280 145 335 q 177 184 157 225 q 228 119 197 142 q 300 95 259 95 q 380 119 340 95 q 453 184 419 142 q 512 280 487 225 q 548 397 537 335 q 553 519 559 460 q 528 623 548 578 q 478 696 509 669 q 407 724 448 724 q 326 696 366 724 q 252 623 286 669 q 192 519 217 578 q 156 397 167 460 m 547 996 q 574 1013 557 1012 q 604 1006 591 1015 q 620 983 616 998 q 610 948 624 967 q 534 884 579 905 q 445 863 490 863 q 363 884 400 864 q 308 945 326 905 q 309 981 300 966 q 333 1003 317 996 q 363 1009 349 1010 q 380 996 377 1008 q 413 949 391 963 q 460 938 435 936 q 509 955 486 940 q 547 996 533 970 z "},"Ô":{"ha":705,"x_min":41,"x_max":666,"o":"m 57 406 q 109 570 72 492 q 197 707 146 648 q 307 800 247 766 q 429 834 368 834 q 538 800 490 834 q 616 707 586 766 q 656 570 647 648 q 651 406 666 492 q 598 242 635 317 q 511 111 562 167 q 401 22 461 54 q 281 -9 342 -9 q 171 22 220 -9 q 92 111 122 54 q 51 242 61 167 q 57 406 41 317 m 156 397 q 151 280 145 335 q 177 184 157 225 q 228 119 197 142 q 300 95 259 95 q 380 119 340 95 q 453 184 419 142 q 512 280 487 225 q 548 397 537 335 q 553 519 559 460 q 528 623 548 578 q 478 696 509 669 q 407 724 448 724 q 326 696 366 724 q 252 623 286 669 q 192 519 217 578 q 156 397 167 460 m 407 1002 q 471 1031 438 1035 q 518 1002 505 1028 l 566 909 q 562 882 571 897 q 538 857 553 867 q 507 848 524 848 q 480 865 490 848 l 448 924 l 399 867 q 368 850 385 850 q 338 857 351 849 q 320 879 326 865 q 326 905 315 892 l 407 1002 z "},"Ö":{"ha":705,"x_min":41,"x_max":666,"o":"m 57 406 q 109 570 72 492 q 197 707 146 648 q 307 800 247 766 q 429 834 368 834 q 538 800 490 834 q 616 707 586 766 q 656 570 647 648 q 651 406 666 492 q 598 242 635 317 q 511 111 562 167 q 401 22 461 54 q 281 -9 342 -9 q 171 22 220 -9 q 92 111 122 54 q 51 242 61 167 q 57 406 41 317 m 156 397 q 151 280 145 335 q 177 184 157 225 q 228 119 197 142 q 300 95 259 95 q 380 119 340 95 q 453 184 419 142 q 512 280 487 225 q 548 397 537 335 q 553 519 559 460 q 528 623 548 578 q 478 696 509 669 q 407 724 448 724 q 326 696 366 724 q 252 623 286 669 q 192 519 217 578 q 156 397 167 460 m 304 914 q 329 958 309 940 q 374 975 349 975 q 415 958 400 975 q 425 914 430 940 q 400 871 420 888 q 354 854 380 854 q 314 871 328 854 q 304 914 300 888 m 475 914 q 500 958 480 940 q 545 975 519 975 q 586 958 571 975 q 595 914 601 940 q 571 871 591 888 q 525 854 551 854 q 485 871 499 854 q 475 914 471 888 z "},"Ò":{"ha":705,"x_min":41,"x_max":666,"o":"m 57 406 q 109 570 72 492 q 197 707 146 648 q 307 800 247 766 q 429 834 368 834 q 538 800 490 834 q 616 707 586 766 q 656 570 647 648 q 651 406 666 492 q 598 242 635 317 q 511 111 562 167 q 401 22 461 54 q 281 -9 342 -9 q 171 22 220 -9 q 92 111 122 54 q 51 242 61 167 q 57 406 41 317 m 156 397 q 151 280 145 335 q 177 184 157 225 q 228 119 197 142 q 300 95 259 95 q 380 119 340 95 q 453 184 419 142 q 512 280 487 225 q 548 397 537 335 q 553 519 559 460 q 528 623 548 578 q 478 696 509 669 q 407 724 448 724 q 326 696 366 724 q 252 623 286 669 q 192 519 217 578 q 156 397 167 460 m 541 936 q 547 905 552 924 q 530 873 543 887 q 498 857 517 860 q 464 872 480 853 l 378 967 q 368 1002 365 982 q 385 1036 372 1021 q 416 1053 397 1050 q 452 1038 435 1057 l 541 936 z "},"Ő":{"ha":705,"x_min":41,"x_max":681,"o":"m 57 406 q 109 570 72 492 q 197 707 146 648 q 307 800 247 766 q 429 834 368 834 q 538 800 490 834 q 616 707 586 766 q 656 570 647 648 q 651 406 666 492 q 598 242 635 317 q 511 111 562 167 q 401 22 461 54 q 281 -9 342 -9 q 171 22 220 -9 q 92 111 122 54 q 51 242 61 167 q 57 406 41 317 m 156 397 q 151 280 145 335 q 177 184 157 225 q 228 119 197 142 q 300 95 259 95 q 380 119 340 95 q 453 184 419 142 q 512 280 487 225 q 548 397 537 335 q 553 519 559 460 q 528 623 548 578 q 478 696 509 669 q 407 724 448 724 q 326 696 366 724 q 252 623 286 669 q 192 519 217 578 q 156 397 167 460 m 429 1034 q 467 1049 449 1053 q 494 1031 484 1046 q 505 997 505 1017 q 490 963 506 977 l 387 868 q 349 852 366 849 q 321 869 331 856 q 310 901 311 883 q 321 932 309 920 l 429 1034 m 604 1034 q 642 1049 624 1053 q 669 1031 659 1046 q 680 997 680 1017 q 665 963 681 977 l 562 868 q 524 852 541 849 q 496 869 506 856 q 485 901 486 883 q 496 932 484 920 l 604 1034 z "},"Ō":{"ha":705,"x_min":41,"x_max":666,"o":"m 57 406 q 109 570 72 492 q 197 707 146 648 q 307 800 247 766 q 429 834 368 834 q 538 800 490 834 q 616 707 586 766 q 656 570 647 648 q 651 406 666 492 q 598 242 635 317 q 511 111 562 167 q 401 22 461 54 q 281 -9 342 -9 q 171 22 220 -9 q 92 111 122 54 q 51 242 61 167 q 57 406 41 317 m 156 397 q 151 280 145 335 q 177 184 157 225 q 228 119 197 142 q 300 95 259 95 q 380 119 340 95 q 453 184 419 142 q 512 280 487 225 q 548 397 537 335 q 553 519 559 460 q 528 623 548 578 q 478 696 509 669 q 407 724 448 724 q 326 696 366 724 q 252 623 286 669 q 192 519 217 578 q 156 397 167 460 m 609 955 q 640 939 633 955 q 642 905 647 924 q 623 869 637 886 q 590 853 609 853 l 262 850 q 230 866 237 850 q 227 901 222 882 q 243 935 231 920 q 273 951 256 951 l 609 955 z "},"Ø":{"ha":705,"x_min":41,"x_max":666,"o":"m 57 406 q 109 570 72 492 q 197 707 146 648 q 307 800 247 766 q 429 834 368 834 q 538 800 490 834 q 616 707 586 766 q 656 570 647 648 q 651 406 666 492 q 598 242 635 317 q 511 111 562 167 q 401 22 461 54 q 281 -9 342 -9 q 171 22 220 -9 q 92 111 122 54 q 51 242 61 167 q 57 406 41 317 m 156 397 q 151 280 145 335 q 177 184 157 225 q 228 119 197 142 q 300 95 259 95 q 380 119 340 95 q 453 184 419 142 q 512 280 487 225 q 548 397 537 335 q 553 519 559 460 q 528 623 548 578 q 478 696 509 669 q 407 724 448 724 q 326 696 366 724 q 252 623 286 669 q 192 519 217 578 q 156 397 167 460 m 472 807 q 506 829 486 827 q 543 821 526 830 q 568 795 559 812 q 570 762 578 779 l 225 12 q 196 -14 214 -11 q 161 -9 178 -18 q 135 16 145 0 q 132 46 125 31 l 472 807 z "},"Ǿ":{"ha":705,"x_min":41,"x_max":666,"o":"m 57 406 q 109 570 72 492 q 197 707 146 648 q 307 800 247 766 q 429 834 368 834 q 538 800 490 834 q 616 707 586 766 q 656 570 647 648 q 651 406 666 492 q 598 242 635 317 q 511 111 562 167 q 401 22 461 54 q 281 -9 342 -9 q 171 22 220 -9 q 92 111 122 54 q 51 242 61 167 q 57 406 41 317 m 156 397 q 151 280 145 335 q 177 184 157 225 q 228 119 197 142 q 300 95 259 95 q 380 119 340 95 q 453 184 419 142 q 512 280 487 225 q 548 397 537 335 q 553 519 559 460 q 528 623 548 578 q 478 696 509 669 q 407 724 448 724 q 326 696 366 724 q 252 623 286 669 q 192 519 217 578 q 156 397 167 460 m 472 807 q 506 829 486 827 q 543 821 526 830 q 568 795 559 812 q 570 762 578 779 l 225 12 q 196 -14 214 -11 q 161 -9 178 -18 q 135 16 145 0 q 132 46 125 31 l 472 807 m 475 1043 q 513 1059 495 1062 q 543 1043 532 1057 q 553 1009 553 1029 q 536 972 553 989 l 433 878 q 395 862 412 859 q 367 879 377 865 q 356 911 357 892 q 368 941 355 929 l 475 1043 z "},"Õ":{"ha":705,"x_min":41,"x_max":688,"o":"m 57 406 q 109 570 72 492 q 197 707 146 648 q 307 800 247 766 q 429 834 368 834 q 538 800 490 834 q 616 707 586 766 q 656 570 647 648 q 651 406 666 492 q 598 242 635 317 q 511 111 562 167 q 401 22 461 54 q 281 -9 342 -9 q 171 22 220 -9 q 92 111 122 54 q 51 242 61 167 q 57 406 41 317 m 156 397 q 151 280 145 335 q 177 184 157 225 q 228 119 197 142 q 300 95 259 95 q 380 119 340 95 q 453 184 419 142 q 512 280 487 225 q 548 397 537 335 q 553 519 559 460 q 528 623 548 578 q 478 696 509 669 q 407 724 448 724 q 326 696 366 724 q 252 623 286 669 q 192 519 217 578 q 156 397 167 460 m 595 996 q 621 1020 604 1013 q 653 1023 637 1027 q 678 1006 669 1020 q 682 970 688 993 q 659 918 674 941 q 625 876 644 894 q 585 849 606 859 q 541 838 563 840 q 484 852 506 836 q 446 887 463 868 q 411 921 429 906 q 368 932 393 936 q 335 911 346 929 q 309 864 324 894 q 280 837 297 841 q 249 841 263 833 q 229 867 235 849 q 235 907 222 886 q 296 989 262 955 q 377 1021 330 1023 q 439 1006 416 1021 q 477 975 461 991 q 507 943 492 958 q 547 929 522 929 q 578 948 568 929 q 595 996 589 967 z "},"Ŕ":{"ha":693,"x_min":33,"x_max":666,"o":"m 647 609 q 605 499 636 547 q 528 418 574 452 q 425 366 483 385 q 305 340 368 346 q 385 199 345 254 q 460 121 425 145 q 534 101 499 94 q 593 148 568 109 q 621 151 604 157 q 650 130 637 144 q 664 96 662 115 q 648 61 666 77 q 600 19 628 37 q 538 -3 571 1 q 469 2 506 -8 q 392 42 431 12 q 292 150 342 79 q 195 338 243 221 l 137 11 q 109 -11 126 -4 q 73 -17 91 -18 q 44 -9 56 -16 q 35 12 33 -1 l 183 800 q 205 835 189 826 q 241 842 222 844 q 272 830 259 840 q 283 808 285 821 q 342 810 305 808 q 423 810 380 812 q 510 798 467 807 q 587 767 553 789 q 637 707 620 745 q 647 609 655 669 m 549 612 q 533 661 553 639 q 474 696 513 682 q 381 712 435 709 q 264 704 327 715 l 212 438 q 325 433 269 426 q 428 464 381 441 q 508 525 475 487 q 549 612 541 563 m 454 1024 q 493 1040 475 1043 q 522 1024 511 1038 q 533 990 533 1010 q 515 954 533 970 l 412 859 q 374 843 392 840 q 347 860 357 846 q 336 892 336 873 q 347 922 335 910 l 454 1024 z "},"Ř":{"ha":693,"x_min":33,"x_max":666,"o":"m 647 609 q 605 499 636 547 q 528 418 574 452 q 425 366 483 385 q 305 340 368 346 q 385 199 345 254 q 460 121 425 145 q 534 101 499 94 q 593 148 568 109 q 621 151 604 157 q 650 130 637 144 q 664 96 662 115 q 648 61 666 77 q 600 19 628 37 q 538 -3 571 1 q 469 2 506 -8 q 392 42 431 12 q 292 150 342 79 q 195 338 243 221 l 137 11 q 109 -11 126 -4 q 73 -17 91 -18 q 44 -9 56 -16 q 35 12 33 -1 l 183 800 q 205 835 189 826 q 241 842 222 844 q 272 830 259 840 q 283 808 285 821 q 342 810 305 808 q 423 810 380 812 q 510 798 467 807 q 587 767 553 789 q 637 707 620 745 q 647 609 655 669 m 549 612 q 533 661 553 639 q 474 696 513 682 q 381 712 435 709 q 264 704 327 715 l 212 438 q 325 433 269 426 q 428 464 381 441 q 508 525 475 487 q 549 612 541 563 m 486 861 q 421 832 454 829 q 374 861 388 836 l 327 955 q 333 983 324 968 q 356 1007 342 998 q 386 1015 370 1016 q 412 998 401 1015 l 445 940 l 494 997 q 523 1014 507 1013 q 551 1007 538 1015 q 569 986 563 1000 q 567 959 575 972 l 486 861 z "},"Ŗ":{"ha":693,"x_min":33,"x_max":666,"o":"m 647 609 q 605 499 636 547 q 528 418 574 452 q 425 366 483 385 q 305 340 368 346 q 385 199 345 254 q 460 121 425 145 q 534 101 499 94 q 593 148 568 109 q 621 151 604 157 q 650 130 637 144 q 664 96 662 115 q 648 61 666 77 q 600 19 628 37 q 538 -3 571 1 q 469 2 506 -8 q 392 42 431 12 q 292 150 342 79 q 195 338 243 221 l 137 11 q 109 -11 126 -4 q 73 -17 91 -18 q 44 -9 56 -16 q 35 12 33 -1 l 183 800 q 205 835 189 826 q 241 842 222 844 q 272 830 259 840 q 283 808 285 821 q 342 810 305 808 q 423 810 380 812 q 510 798 467 807 q 587 767 553 789 q 637 707 620 745 q 647 609 655 669 m 549 612 q 533 661 553 639 q 474 696 513 682 q 381 712 435 709 q 264 704 327 715 l 212 438 q 325 433 269 426 q 428 464 381 441 q 508 525 475 487 q 549 612 541 563 m 258 -50 q 252 -28 247 -41 q 267 -6 256 -15 q 294 4 278 3 q 321 -8 309 5 q 342 -46 334 -23 q 353 -97 351 -69 q 345 -153 354 -125 q 313 -208 336 -182 q 286 -222 301 -221 q 258 -216 270 -222 q 240 -197 245 -209 q 244 -174 235 -186 q 268 -142 260 -160 q 276 -106 275 -123 q 271 -73 277 -88 q 258 -50 266 -58 z "},"Ś":{"ha":659,"x_min":38,"x_max":620,"o":"m 616 658 q 606 623 620 637 q 573 601 591 608 q 538 598 555 594 q 521 621 522 602 q 503 684 518 661 q 468 719 488 707 q 428 734 448 731 q 399 739 408 738 q 336 733 365 742 q 283 709 307 724 q 243 673 259 693 q 222 632 228 652 q 221 561 210 589 q 257 514 232 533 q 319 480 282 495 q 397 448 357 465 q 474 409 437 430 q 536 357 511 388 q 570 283 562 327 q 560 179 578 240 q 503 74 541 115 q 414 10 464 33 q 311 -17 365 -12 q 206 -11 256 -22 q 143 9 174 -4 q 89 44 113 23 q 52 93 65 65 q 39 155 38 121 q 57 195 41 179 q 92 218 73 212 q 127 218 111 224 q 142 193 142 212 q 176 118 141 144 q 258 85 210 92 q 319 84 289 81 q 376 98 350 87 q 424 130 403 109 q 457 187 445 152 q 465 253 471 225 q 439 301 458 281 q 389 336 419 321 q 326 366 359 351 q 239 404 282 384 q 164 454 195 425 q 119 528 133 484 q 125 637 106 572 q 170 729 138 690 q 243 793 202 768 q 330 829 283 818 q 419 838 376 841 q 475 827 445 837 q 534 797 506 818 q 585 742 563 776 q 616 658 608 708 m 452 1043 q 490 1059 472 1062 q 519 1043 509 1057 q 530 1009 530 1029 q 513 972 530 989 l 410 878 q 372 862 389 859 q 344 879 354 865 q 333 911 334 892 q 345 941 332 929 l 452 1043 z "},"Š":{"ha":659,"x_min":38,"x_max":620,"o":"m 616 658 q 606 623 620 637 q 573 601 591 608 q 538 598 555 594 q 521 621 522 602 q 503 684 518 661 q 468 719 488 707 q 428 734 448 731 q 399 739 408 738 q 336 733 365 742 q 283 709 307 724 q 243 673 259 693 q 222 632 228 652 q 221 561 210 589 q 257 514 232 533 q 319 480 282 495 q 397 448 357 465 q 474 409 437 430 q 536 357 511 388 q 570 283 562 327 q 560 179 578 240 q 503 74 541 115 q 414 10 464 33 q 311 -17 365 -12 q 206 -11 256 -22 q 143 9 174 -4 q 89 44 113 23 q 52 93 65 65 q 39 155 38 121 q 57 195 41 179 q 92 218 73 212 q 127 218 111 224 q 142 193 142 212 q 176 118 141 144 q 258 85 210 92 q 319 84 289 81 q 376 98 350 87 q 424 130 403 109 q 457 187 445 152 q 465 253 471 225 q 439 301 458 281 q 389 336 419 321 q 326 366 359 351 q 239 404 282 384 q 164 454 195 425 q 119 528 133 484 q 125 637 106 572 q 170 729 138 690 q 243 793 202 768 q 330 829 283 818 q 419 838 376 841 q 475 827 445 837 q 534 797 506 818 q 585 742 563 776 q 616 658 608 708 m 454 884 q 390 855 423 852 q 343 884 357 859 l 296 978 q 302 1006 293 991 q 325 1030 311 1021 q 355 1038 339 1039 q 381 1021 370 1038 l 414 963 l 463 1020 q 492 1037 476 1036 q 519 1030 507 1038 q 538 1009 532 1023 q 536 982 544 996 l 454 884 z "},"Ş":{"ha":659,"x_min":38,"x_max":620,"o":"m 616 658 q 606 623 620 637 q 573 601 591 608 q 538 598 555 594 q 521 621 522 602 q 503 684 518 661 q 468 719 488 707 q 428 734 448 731 q 399 739 408 738 q 336 733 365 742 q 283 709 307 724 q 243 673 259 693 q 222 632 228 652 q 221 561 210 589 q 257 514 232 533 q 319 480 282 495 q 397 448 357 465 q 474 409 437 430 q 536 357 511 388 q 570 283 562 327 q 560 179 578 240 q 503 74 541 115 q 414 10 464 33 q 311 -17 365 -12 q 206 -11 256 -22 q 143 9 174 -4 q 89 44 113 23 q 52 93 65 65 q 39 155 38 121 q 57 195 41 179 q 92 218 73 212 q 127 218 111 224 q 142 193 142 212 q 176 118 141 144 q 258 85 210 92 q 319 84 289 81 q 376 98 350 87 q 424 130 403 109 q 457 187 445 152 q 465 253 471 225 q 439 301 458 281 q 389 336 419 321 q 326 366 359 351 q 239 404 282 384 q 164 454 195 425 q 119 528 133 484 q 125 637 106 572 q 170 729 138 690 q 243 793 202 768 q 330 829 283 818 q 419 838 376 841 q 475 827 445 837 q 534 797 506 818 q 585 742 563 776 q 616 658 608 708 m 308 -9 l 305 -43 q 416 -77 382 -46 q 439 -155 449 -107 q 377 -254 427 -225 q 254 -282 327 -283 q 215 -267 227 -282 q 205 -235 203 -252 q 220 -201 206 -217 q 262 -184 235 -186 q 288 -184 274 -184 q 314 -180 302 -183 q 334 -172 326 -178 q 342 -153 342 -165 q 330 -134 342 -138 q 277 -132 319 -130 q 258 -130 271 -132 q 233 -117 244 -129 q 217 -81 221 -106 q 228 -9 213 -57 l 308 -9 z "},"Ŝ":{"ha":659,"x_min":38,"x_max":620,"o":"m 616 658 q 606 623 620 637 q 573 601 591 608 q 538 598 555 594 q 521 621 522 602 q 503 684 518 661 q 468 719 488 707 q 428 734 448 731 q 399 739 408 738 q 336 733 365 742 q 283 709 307 724 q 243 673 259 693 q 222 632 228 652 q 221 561 210 589 q 257 514 232 533 q 319 480 282 495 q 397 448 357 465 q 474 409 437 430 q 536 357 511 388 q 570 283 562 327 q 560 179 578 240 q 503 74 541 115 q 414 10 464 33 q 311 -17 365 -12 q 206 -11 256 -22 q 143 9 174 -4 q 89 44 113 23 q 52 93 65 65 q 39 155 38 121 q 57 195 41 179 q 92 218 73 212 q 127 218 111 224 q 142 193 142 212 q 176 118 141 144 q 258 85 210 92 q 319 84 289 81 q 376 98 350 87 q 424 130 403 109 q 457 187 445 152 q 465 253 471 225 q 439 301 458 281 q 389 336 419 321 q 326 366 359 351 q 239 404 282 384 q 164 454 195 425 q 119 528 133 484 q 125 637 106 572 q 170 729 138 690 q 243 793 202 768 q 330 829 283 818 q 419 838 376 841 q 475 827 445 837 q 534 797 506 818 q 585 742 563 776 q 616 658 608 708 m 372 1009 q 436 1038 403 1042 q 483 1009 469 1035 l 530 916 q 527 888 536 903 q 503 864 518 873 q 471 854 488 854 q 445 872 454 854 l 412 930 l 363 873 q 333 857 350 857 q 303 864 316 856 q 285 886 290 872 q 290 911 279 899 l 372 1009 z "},"Ș":{"ha":659,"x_min":38,"x_max":620,"o":"m 616 658 q 606 623 620 637 q 573 601 591 608 q 538 598 555 594 q 521 621 522 602 q 503 684 518 661 q 468 719 488 707 q 428 734 448 731 q 399 739 408 738 q 336 733 365 742 q 283 709 307 724 q 243 673 259 693 q 222 632 228 652 q 221 561 210 589 q 257 514 232 533 q 319 480 282 495 q 397 448 357 465 q 474 409 437 430 q 536 357 511 388 q 570 283 562 327 q 560 179 578 240 q 503 74 541 115 q 414 10 464 33 q 311 -17 365 -12 q 206 -11 256 -22 q 143 9 174 -4 q 89 44 113 23 q 52 93 65 65 q 39 155 38 121 q 57 195 41 179 q 92 218 73 212 q 127 218 111 224 q 142 193 142 212 q 176 118 141 144 q 258 85 210 92 q 319 84 289 81 q 376 98 350 87 q 424 130 403 109 q 457 187 445 152 q 465 253 471 225 q 439 301 458 281 q 389 336 419 321 q 326 366 359 351 q 239 404 282 384 q 164 454 195 425 q 119 528 133 484 q 125 637 106 572 q 170 729 138 690 q 243 793 202 768 q 330 829 283 818 q 419 838 376 841 q 475 827 445 837 q 534 797 506 818 q 585 742 563 776 q 616 658 608 708 m 244 -111 q 238 -89 233 -102 q 254 -67 243 -76 q 280 -57 264 -58 q 308 -69 296 -56 q 329 -107 320 -84 q 339 -158 338 -130 q 332 -214 340 -186 q 300 -269 323 -243 q 272 -283 288 -282 q 244 -277 256 -283 q 227 -258 232 -270 q 231 -235 221 -247 q 254 -203 247 -221 q 262 -167 262 -184 q 258 -134 263 -149 q 244 -111 252 -119 z "},"Ŧ":{"ha":708,"x_min":42,"x_max":669,"o":"m 635 831 q 664 810 659 827 q 661 774 669 792 q 636 743 652 757 q 601 734 620 730 l 389 734 l 269 26 q 247 -10 264 0 q 211 -19 229 -20 q 178 -7 193 -18 q 167 19 164 3 l 282 734 l 83 734 q 50 749 57 734 q 47 782 42 764 q 64 816 52 800 q 94 831 77 831 l 635 831 m 503 678 q 534 663 528 678 q 536 628 541 647 q 517 593 532 609 q 484 576 503 576 l 156 574 q 124 589 132 574 q 121 624 117 605 q 138 659 125 643 q 167 674 151 674 l 503 678 z "},"Ť":{"ha":708,"x_min":42,"x_max":669,"o":"m 635 831 q 664 810 659 827 q 661 774 669 792 q 636 743 652 757 q 601 734 620 730 l 389 734 l 269 26 q 247 -10 264 0 q 211 -19 229 -20 q 178 -7 193 -18 q 167 19 164 3 l 282 734 l 83 734 q 50 749 57 734 q 47 782 42 764 q 64 816 52 800 q 94 831 77 831 l 635 831 m 385 872 q 321 843 354 840 q 274 872 288 846 l 227 966 q 233 994 224 979 q 256 1018 241 1009 q 286 1026 270 1027 q 312 1009 301 1025 l 345 951 l 393 1008 q 422 1025 407 1024 q 450 1018 438 1025 q 469 997 463 1010 q 467 970 475 983 l 385 872 z "},"Ţ":{"ha":708,"x_min":42,"x_max":669,"o":"m 635 831 q 664 810 659 827 q 661 774 669 792 q 636 743 652 757 q 601 734 620 730 l 389 734 l 269 26 q 247 -10 264 0 q 211 -19 229 -20 q 178 -7 193 -18 q 167 19 164 3 l 282 734 l 83 734 q 50 749 57 734 q 47 782 42 764 q 64 816 52 800 q 94 831 77 831 l 635 831 m 184 -98 q 178 -75 174 -88 q 194 -54 183 -62 q 220 -43 205 -45 q 248 -56 236 -42 q 269 -94 260 -71 q 279 -144 278 -117 q 272 -201 281 -172 q 240 -255 263 -229 q 212 -269 228 -269 q 184 -263 197 -270 q 167 -245 172 -256 q 171 -221 161 -233 q 195 -189 187 -208 q 203 -153 202 -171 q 198 -121 203 -136 q 184 -98 193 -106 z "},"Ú":{"ha":774,"x_min":54,"x_max":731,"o":"m 252 798 q 197 516 214 632 q 171 321 179 400 q 174 188 163 235 q 203 119 184 141 q 241 92 221 96 q 271 87 262 87 q 317 96 290 87 q 372 127 343 104 q 428 186 400 149 q 476 278 456 222 q 524 530 500 406 q 572 783 548 655 q 595 819 578 804 q 631 835 612 833 q 665 826 650 837 q 680 787 680 815 q 606 456 639 601 q 565 220 574 311 q 578 104 556 130 q 670 134 601 79 q 704 143 690 151 q 724 119 718 136 q 728 83 731 103 q 713 56 726 64 q 662 26 694 43 q 593 4 629 9 q 523 15 557 -1 q 467 87 488 31 q 429 53 452 71 q 380 20 407 35 q 326 -5 354 5 q 271 -15 297 -15 q 136 20 182 -16 q 72 114 90 56 q 58 245 54 172 q 72 391 61 317 q 100 568 83 469 q 145 791 118 667 q 170 827 151 817 q 208 836 189 837 q 242 824 228 834 q 252 798 256 814 m 467 1015 q 505 1031 487 1034 q 534 1015 524 1028 q 545 981 545 1001 q 528 944 545 960 l 425 849 q 387 833 404 830 q 359 850 369 837 q 348 882 349 864 q 359 913 347 901 l 467 1015 z "},"Ŭ":{"ha":774,"x_min":54,"x_max":731,"o":"m 252 798 q 197 516 214 632 q 171 321 179 400 q 174 188 163 235 q 203 119 184 141 q 241 92 221 96 q 271 87 262 87 q 317 96 290 87 q 372 127 343 104 q 428 186 400 149 q 476 278 456 222 q 524 530 500 406 q 572 783 548 655 q 595 819 578 804 q 631 835 612 833 q 665 826 650 837 q 680 787 680 815 q 606 456 639 601 q 565 220 574 311 q 578 104 556 130 q 670 134 601 79 q 704 143 690 151 q 724 119 718 136 q 728 83 731 103 q 713 56 726 64 q 662 26 694 43 q 593 4 629 9 q 523 15 557 -1 q 467 87 488 31 q 429 53 452 71 q 380 20 407 35 q 326 -5 354 5 q 271 -15 297 -15 q 136 20 182 -16 q 72 114 90 56 q 58 245 54 172 q 72 391 61 317 q 100 568 83 469 q 145 791 118 667 q 170 827 151 817 q 208 836 189 837 q 242 824 228 834 q 252 798 256 814 m 521 971 q 549 989 532 987 q 578 982 566 990 q 594 958 590 974 q 585 924 598 943 q 509 859 553 880 q 419 839 464 838 q 337 860 374 840 q 282 921 300 880 q 283 956 274 941 q 307 979 292 971 q 337 985 323 986 q 354 971 351 983 q 387 925 365 939 q 435 913 410 911 q 484 930 460 916 q 521 971 507 945 z "},"Û":{"ha":774,"x_min":54,"x_max":731,"o":"m 252 798 q 197 516 214 632 q 171 321 179 400 q 174 188 163 235 q 203 119 184 141 q 241 92 221 96 q 271 87 262 87 q 317 96 290 87 q 372 127 343 104 q 428 186 400 149 q 476 278 456 222 q 524 530 500 406 q 572 783 548 655 q 595 819 578 804 q 631 835 612 833 q 665 826 650 837 q 680 787 680 815 q 606 456 639 601 q 565 220 574 311 q 578 104 556 130 q 670 134 601 79 q 704 143 690 151 q 724 119 718 136 q 728 83 731 103 q 713 56 726 64 q 662 26 694 43 q 593 4 629 9 q 523 15 557 -1 q 467 87 488 31 q 429 53 452 71 q 380 20 407 35 q 326 -5 354 5 q 271 -15 297 -15 q 136 20 182 -16 q 72 114 90 56 q 58 245 54 172 q 72 391 61 317 q 100 568 83 469 q 145 791 118 667 q 170 827 151 817 q 208 836 189 837 q 242 824 228 834 q 252 798 256 814 m 395 994 q 459 1023 426 1027 q 506 994 492 1020 l 553 901 q 550 873 559 888 q 526 849 541 859 q 494 840 511 840 q 468 857 477 840 l 435 916 l 387 859 q 356 842 373 842 q 326 849 339 841 q 308 871 313 857 q 313 897 302 884 l 395 994 z "},"Ü":{"ha":774,"x_min":54,"x_max":731,"o":"m 252 798 q 197 516 214 632 q 171 321 179 400 q 174 188 163 235 q 203 119 184 141 q 241 92 221 96 q 271 87 262 87 q 317 96 290 87 q 372 127 343 104 q 428 186 400 149 q 476 278 456 222 q 524 530 500 406 q 572 783 548 655 q 595 819 578 804 q 631 835 612 833 q 665 826 650 837 q 680 787 680 815 q 606 456 639 601 q 565 220 574 311 q 578 104 556 130 q 670 134 601 79 q 704 143 690 151 q 724 119 718 136 q 728 83 731 103 q 713 56 726 64 q 662 26 694 43 q 593 4 629 9 q 523 15 557 -1 q 467 87 488 31 q 429 53 452 71 q 380 20 407 35 q 326 -5 354 5 q 271 -15 297 -15 q 136 20 182 -16 q 72 114 90 56 q 58 245 54 172 q 72 391 61 317 q 100 568 83 469 q 145 791 118 667 q 170 827 151 817 q 208 836 189 837 q 242 824 228 834 q 252 798 256 814 m 297 892 q 322 936 302 918 q 368 954 342 954 q 408 936 393 954 q 418 892 423 918 q 393 850 414 867 q 347 833 373 833 q 307 850 321 833 q 297 892 293 867 m 468 892 q 493 936 473 918 q 538 954 513 954 q 579 936 564 954 q 589 892 594 918 q 564 850 585 867 q 518 833 544 833 q 478 850 492 833 q 468 892 464 867 z "},"Ù":{"ha":774,"x_min":54,"x_max":731,"o":"m 252 798 q 197 516 214 632 q 171 321 179 400 q 174 188 163 235 q 203 119 184 141 q 241 92 221 96 q 271 87 262 87 q 317 96 290 87 q 372 127 343 104 q 428 186 400 149 q 476 278 456 222 q 524 530 500 406 q 572 783 548 655 q 595 819 578 804 q 631 835 612 833 q 665 826 650 837 q 680 787 680 815 q 606 456 639 601 q 565 220 574 311 q 578 104 556 130 q 670 134 601 79 q 704 143 690 151 q 724 119 718 136 q 728 83 731 103 q 713 56 726 64 q 662 26 694 43 q 593 4 629 9 q 523 15 557 -1 q 467 87 488 31 q 429 53 452 71 q 380 20 407 35 q 326 -5 354 5 q 271 -15 297 -15 q 136 20 182 -16 q 72 114 90 56 q 58 245 54 172 q 72 391 61 317 q 100 568 83 469 q 145 791 118 667 q 170 827 151 817 q 208 836 189 837 q 242 824 228 834 q 252 798 256 814 m 472 911 q 478 881 483 899 q 460 849 473 863 q 429 832 448 836 q 395 848 411 829 l 309 943 q 299 977 296 958 q 315 1011 302 997 q 347 1029 328 1025 q 382 1013 366 1032 l 472 911 z "},"Ű":{"ha":774,"x_min":54,"x_max":731,"o":"m 252 798 q 197 516 214 632 q 171 321 179 400 q 174 188 163 235 q 203 119 184 141 q 241 92 221 96 q 271 87 262 87 q 317 96 290 87 q 372 127 343 104 q 428 186 400 149 q 476 278 456 222 q 524 530 500 406 q 572 783 548 655 q 595 819 578 804 q 631 835 612 833 q 665 826 650 837 q 680 787 680 815 q 606 456 639 601 q 565 220 574 311 q 578 104 556 130 q 670 134 601 79 q 704 143 690 151 q 724 119 718 136 q 728 83 731 103 q 713 56 726 64 q 662 26 694 43 q 593 4 629 9 q 523 15 557 -1 q 467 87 488 31 q 429 53 452 71 q 380 20 407 35 q 326 -5 354 5 q 271 -15 297 -15 q 136 20 182 -16 q 72 114 90 56 q 58 245 54 172 q 72 391 61 317 q 100 568 83 469 q 145 791 118 667 q 170 827 151 817 q 208 836 189 837 q 242 824 228 834 q 252 798 256 814 m 407 1021 q 445 1037 427 1040 q 473 1019 463 1034 q 484 985 483 1005 q 468 951 484 964 l 365 856 q 327 840 345 837 q 299 857 309 844 q 288 889 289 871 q 300 920 288 907 l 407 1021 m 582 1021 q 620 1037 602 1040 q 648 1019 637 1034 q 659 985 658 1005 q 643 951 659 964 l 540 856 q 502 840 519 837 q 474 857 484 844 q 463 889 464 871 q 475 920 463 907 l 582 1021 z "},"Ū":{"ha":774,"x_min":54,"x_max":731,"o":"m 252 798 q 197 516 214 632 q 171 321 179 400 q 174 188 163 235 q 203 119 184 141 q 241 92 221 96 q 271 87 262 87 q 317 96 290 87 q 372 127 343 104 q 428 186 400 149 q 476 278 456 222 q 524 530 500 406 q 572 783 548 655 q 595 819 578 804 q 631 835 612 833 q 665 826 650 837 q 680 787 680 815 q 606 456 639 601 q 565 220 574 311 q 578 104 556 130 q 670 134 601 79 q 704 143 690 151 q 724 119 718 136 q 728 83 731 103 q 713 56 726 64 q 662 26 694 43 q 593 4 629 9 q 523 15 557 -1 q 467 87 488 31 q 429 53 452 71 q 380 20 407 35 q 326 -5 354 5 q 271 -15 297 -15 q 136 20 182 -16 q 72 114 90 56 q 58 245 54 172 q 72 391 61 317 q 100 568 83 469 q 145 791 118 667 q 170 827 151 817 q 208 836 189 837 q 242 824 228 834 q 252 798 256 814 m 625 963 q 656 947 650 963 q 659 913 663 932 q 640 878 654 894 q 606 861 625 861 l 278 859 q 246 874 254 859 q 243 909 239 890 q 260 943 247 928 q 289 959 273 959 l 625 963 z "},"Ų":{"ha":774,"x_min":54,"x_max":731,"o":"m 252 798 q 197 516 214 632 q 171 321 179 400 q 174 188 163 235 q 203 119 184 141 q 241 92 221 96 q 271 87 262 87 q 317 96 290 87 q 372 127 343 104 q 428 186 400 149 q 476 278 456 222 q 524 530 500 406 q 572 783 548 655 q 595 819 578 804 q 631 835 612 833 q 665 826 650 837 q 680 787 680 815 q 606 456 639 601 q 565 220 574 311 q 578 104 556 130 q 670 134 601 79 q 704 143 690 151 q 724 119 718 136 q 728 83 731 103 q 713 56 726 64 q 662 26 694 43 q 593 4 629 9 q 523 15 557 -1 q 467 87 488 31 q 429 53 452 71 q 380 20 407 35 q 326 -5 354 5 q 271 -15 297 -15 q 136 20 182 -16 q 72 114 90 56 q 58 245 54 172 q 72 391 61 317 q 100 568 83 469 q 145 791 118 667 q 170 827 151 817 q 208 836 189 837 q 242 824 228 834 q 252 798 256 814 m 576 -1 q 554 -29 564 -12 q 541 -66 544 -46 q 544 -109 538 -87 q 568 -149 549 -130 q 570 -180 578 -164 q 546 -204 562 -195 q 511 -212 530 -213 q 479 -193 491 -210 q 449 -124 454 -160 q 450 -55 444 -88 q 475 7 457 -22 q 513 54 492 35 q 550 70 532 72 q 580 56 568 68 q 592 28 591 45 q 576 -1 593 11 z "},"Ů":{"ha":774,"x_min":54,"x_max":731,"o":"m 252 798 q 197 516 214 632 q 171 321 179 400 q 174 188 163 235 q 203 119 184 141 q 241 92 221 96 q 271 87 262 87 q 317 96 290 87 q 372 127 343 104 q 428 186 400 149 q 476 278 456 222 q 524 530 500 406 q 572 783 548 655 q 595 819 578 804 q 631 835 612 833 q 665 826 650 837 q 680 787 680 815 q 606 456 639 601 q 565 220 574 311 q 578 104 556 130 q 670 134 601 79 q 704 143 690 151 q 724 119 718 136 q 728 83 731 103 q 713 56 726 64 q 662 26 694 43 q 593 4 629 9 q 523 15 557 -1 q 467 87 488 31 q 429 53 452 71 q 380 20 407 35 q 326 -5 354 5 q 271 -15 297 -15 q 136 20 182 -16 q 72 114 90 56 q 58 245 54 172 q 72 391 61 317 q 100 568 83 469 q 145 791 118 667 q 170 827 151 817 q 208 836 189 837 q 242 824 228 834 q 252 798 256 814 m 416 940 q 438 914 412 914 q 458 922 449 914 q 469 940 467 929 q 465 959 472 951 q 448 967 458 967 q 428 959 437 967 q 416 940 419 951 m 355 940 q 392 1002 362 977 q 458 1028 422 1028 q 516 1002 495 1028 q 530 940 537 977 q 494 878 524 903 q 427 853 464 853 q 370 878 391 853 q 355 940 349 903 z "},"Ũ":{"ha":774,"x_min":54,"x_max":731,"o":"m 252 798 q 197 516 214 632 q 171 321 179 400 q 174 188 163 235 q 203 119 184 141 q 241 92 221 96 q 271 87 262 87 q 317 96 290 87 q 372 127 343 104 q 428 186 400 149 q 476 278 456 222 q 524 530 500 406 q 572 783 548 655 q 595 819 578 804 q 631 835 612 833 q 665 826 650 837 q 680 787 680 815 q 606 456 639 601 q 565 220 574 311 q 578 104 556 130 q 670 134 601 79 q 704 143 690 151 q 724 119 718 136 q 728 83 731 103 q 713 56 726 64 q 662 26 694 43 q 593 4 629 9 q 523 15 557 -1 q 467 87 488 31 q 429 53 452 71 q 380 20 407 35 q 326 -5 354 5 q 271 -15 297 -15 q 136 20 182 -16 q 72 114 90 56 q 58 245 54 172 q 72 391 61 317 q 100 568 83 469 q 145 791 118 667 q 170 827 151 817 q 208 836 189 837 q 242 824 228 834 q 252 798 256 814 m 604 1005 q 629 1029 612 1023 q 661 1033 646 1036 q 686 1016 677 1029 q 690 979 696 1002 q 667 927 682 951 q 633 886 652 903 q 593 859 614 868 q 549 848 571 849 q 492 861 514 845 q 454 897 471 878 q 419 930 437 916 q 376 941 401 945 q 343 921 354 939 q 317 873 332 903 q 288 846 305 850 q 257 850 271 842 q 237 877 243 859 q 243 917 231 895 q 304 998 270 964 q 385 1031 338 1032 q 447 1016 425 1031 q 485 984 469 1001 q 515 953 500 967 q 555 939 530 939 q 587 958 576 939 q 604 1005 597 977 z "},"Ẃ":{"ha":1160,"x_min":71,"x_max":1131,"o":"m 574 600 l 301 5 q 268 -25 286 -18 q 234 -29 250 -33 q 206 -16 218 -26 q 191 9 194 -5 l 73 784 q 84 812 71 799 q 117 830 98 825 q 154 829 136 836 q 176 800 172 823 l 275 170 l 545 799 q 568 821 553 814 q 597 829 582 829 q 624 822 612 829 q 640 800 636 815 l 746 171 l 1031 803 q 1063 830 1044 826 q 1099 827 1082 834 q 1123 804 1115 819 q 1123 774 1131 789 l 773 11 q 749 -14 765 -4 q 716 -28 734 -24 q 684 -24 699 -31 q 661 7 669 -16 l 574 600 m 595 1020 q 634 1036 616 1039 q 663 1020 652 1034 q 674 986 674 1006 q 656 949 674 966 l 553 854 q 515 839 533 836 q 488 856 498 842 q 477 888 477 869 q 488 918 476 906 l 595 1020 z "},"Ŵ":{"ha":1160,"x_min":71,"x_max":1131,"o":"m 574 600 l 301 5 q 268 -25 286 -18 q 234 -29 250 -33 q 206 -16 218 -26 q 191 9 194 -5 l 73 784 q 84 812 71 799 q 117 830 98 825 q 154 829 136 836 q 176 800 172 823 l 275 170 l 545 799 q 568 821 553 814 q 597 829 582 829 q 624 822 612 829 q 640 800 636 815 l 746 171 l 1031 803 q 1063 830 1044 826 q 1099 827 1082 834 q 1123 804 1115 819 q 1123 774 1131 789 l 773 11 q 749 -14 765 -4 q 716 -28 734 -24 q 684 -24 699 -31 q 661 7 669 -16 l 574 600 m 559 997 q 623 1026 590 1029 q 670 997 656 1023 l 718 903 q 714 876 723 891 q 690 852 705 861 q 659 842 675 842 q 632 860 642 842 l 600 918 l 551 861 q 520 844 537 845 q 490 852 503 844 q 472 873 477 860 q 477 899 467 887 l 559 997 z "},"Ẅ":{"ha":1160,"x_min":71,"x_max":1131,"o":"m 574 600 l 301 5 q 268 -25 286 -18 q 234 -29 250 -33 q 206 -16 218 -26 q 191 9 194 -5 l 73 784 q 84 812 71 799 q 117 830 98 825 q 154 829 136 836 q 176 800 172 823 l 275 170 l 545 799 q 568 821 553 814 q 597 829 582 829 q 624 822 612 829 q 640 800 636 815 l 746 171 l 1031 803 q 1063 830 1044 826 q 1099 827 1082 834 q 1123 804 1115 819 q 1123 774 1131 789 l 773 11 q 749 -14 765 -4 q 716 -28 734 -24 q 684 -24 699 -31 q 661 7 669 -16 l 574 600 m 460 894 q 485 937 465 920 q 530 955 505 955 q 571 937 556 955 q 581 894 586 920 q 556 851 576 868 q 510 834 536 834 q 470 851 484 834 q 460 894 456 868 m 631 894 q 656 937 636 920 q 701 955 675 955 q 742 937 727 955 q 751 894 757 920 q 727 851 747 868 q 681 834 707 834 q 641 851 655 834 q 631 894 627 868 z "},"Ẁ":{"ha":1160,"x_min":71,"x_max":1131,"o":"m 574 600 l 301 5 q 268 -25 286 -18 q 234 -29 250 -33 q 206 -16 218 -26 q 191 9 194 -5 l 73 784 q 84 812 71 799 q 117 830 98 825 q 154 829 136 836 q 176 800 172 823 l 275 170 l 545 799 q 568 821 553 814 q 597 829 582 829 q 624 822 612 829 q 640 800 636 815 l 746 171 l 1031 803 q 1063 830 1044 826 q 1099 827 1082 834 q 1123 804 1115 819 q 1123 774 1131 789 l 773 11 q 749 -14 765 -4 q 716 -28 734 -24 q 684 -24 699 -31 q 661 7 669 -16 l 574 600 m 727 914 q 733 884 738 902 q 715 852 728 865 q 684 835 703 838 q 650 850 666 831 l 564 945 q 554 980 551 960 q 570 1014 557 1000 q 602 1031 583 1028 q 637 1016 621 1035 l 727 914 z "},"Ý":{"ha":618,"x_min":52,"x_max":593,"o":"m 58 39 q 159 218 123 155 q 210 312 194 282 q 228 347 225 342 q 231 354 231 353 l 58 777 q 66 806 54 792 q 95 828 77 821 q 130 831 113 836 q 157 806 148 827 l 300 469 l 487 799 q 519 826 499 822 q 555 823 538 830 q 583 800 572 815 q 586 770 593 785 l 159 20 q 128 -10 148 -4 q 91 -10 109 -16 q 62 10 73 -4 q 58 39 52 24 m 326 1020 q 364 1036 346 1039 q 393 1020 382 1034 q 404 986 404 1006 q 387 949 404 966 l 283 854 q 245 839 263 836 q 218 856 228 842 q 207 888 208 869 q 218 918 206 906 l 326 1020 z "},"Ŷ":{"ha":618,"x_min":52,"x_max":593,"o":"m 58 39 q 159 218 123 155 q 210 312 194 282 q 228 347 225 342 q 231 354 231 353 l 58 777 q 66 806 54 792 q 95 828 77 821 q 130 831 113 836 q 157 806 148 827 l 300 469 l 487 799 q 519 826 499 822 q 555 823 538 830 q 583 800 572 815 q 586 770 593 785 l 159 20 q 128 -10 148 -4 q 91 -10 109 -16 q 62 10 73 -4 q 58 39 52 24 m 275 997 q 340 1026 307 1029 q 387 997 373 1023 l 434 903 q 431 876 439 891 q 407 852 422 861 q 375 842 392 842 q 349 860 358 842 l 316 918 l 267 861 q 237 844 254 845 q 207 852 220 844 q 189 873 194 860 q 194 899 183 887 l 275 997 z "},"Ÿ":{"ha":618,"x_min":52,"x_max":593,"o":"m 58 39 q 159 218 123 155 q 210 312 194 282 q 228 347 225 342 q 231 354 231 353 l 58 777 q 66 806 54 792 q 95 828 77 821 q 130 831 113 836 q 157 806 148 827 l 300 469 l 487 799 q 519 826 499 822 q 555 823 538 830 q 583 800 572 815 q 586 770 593 785 l 159 20 q 128 -10 148 -4 q 91 -10 109 -16 q 62 10 73 -4 q 58 39 52 24 m 194 894 q 219 937 199 920 q 264 955 239 955 q 305 937 290 955 q 315 894 320 920 q 290 851 311 868 q 244 834 270 834 q 204 851 218 834 q 194 894 190 868 m 365 894 q 390 937 370 920 q 435 955 410 955 q 476 937 461 955 q 486 894 491 920 q 461 851 481 868 q 415 834 441 834 q 375 851 389 834 q 365 894 361 868 z "},"Ỳ":{"ha":618,"x_min":52,"x_max":593,"o":"m 58 39 q 159 218 123 155 q 210 312 194 282 q 228 347 225 342 q 231 354 231 353 l 58 777 q 66 806 54 792 q 95 828 77 821 q 130 831 113 836 q 157 806 148 827 l 300 469 l 487 799 q 519 826 499 822 q 555 823 538 830 q 583 800 572 815 q 586 770 593 785 l 159 20 q 128 -10 148 -4 q 91 -10 109 -16 q 62 10 73 -4 q 58 39 52 24 m 393 911 q 399 881 404 899 q 382 849 395 863 q 351 832 369 836 q 316 848 332 829 l 231 943 q 220 977 217 958 q 237 1011 224 997 q 269 1029 250 1025 q 304 1013 288 1032 l 393 911 z "},"Ź":{"ha":731,"x_min":46,"x_max":709,"o":"m 85 -9 q 55 2 64 -9 q 48 32 46 14 q 61 71 50 50 q 90 109 72 91 l 553 727 l 168 724 q 138 746 144 728 q 136 783 132 764 q 155 817 141 802 q 189 831 170 831 l 667 831 q 690 824 680 831 q 705 802 701 817 q 703 764 709 787 q 673 711 696 741 l 209 94 l 610 92 q 643 77 636 92 q 645 42 650 61 q 627 7 640 23 q 598 -8 614 -8 l 85 -9 m 460 1038 q 498 1054 480 1057 q 528 1038 517 1051 q 538 1004 538 1024 q 521 967 538 983 l 418 872 q 380 857 397 853 q 352 873 362 860 q 341 905 342 887 q 353 936 340 924 l 460 1038 z "},"Ż":{"ha":731,"x_min":46,"x_max":709,"o":"m 85 -9 q 55 2 64 -9 q 48 32 46 14 q 61 71 50 50 q 90 109 72 91 l 553 727 l 168 724 q 138 746 144 728 q 136 783 132 764 q 155 817 141 802 q 189 831 170 831 l 667 831 q 690 824 680 831 q 705 802 701 817 q 703 764 709 787 q 673 711 696 741 l 209 94 l 610 92 q 643 77 636 92 q 645 42 650 61 q 627 7 640 23 q 598 -8 614 -8 l 85 -9 m 349 916 q 374 959 354 941 q 419 977 393 977 q 460 959 445 977 q 469 916 475 941 q 445 873 465 890 q 399 856 425 856 q 359 873 373 856 q 349 916 345 890 z "},"á":{"ha":642,"x_min":23,"x_max":609,"o":"m 340 37 q 257 -5 300 7 q 174 -13 214 -16 q 102 9 134 -9 q 50 58 69 28 q 26 127 30 87 q 43 214 23 167 q 113 325 71 277 q 209 406 156 373 q 321 458 262 439 q 441 481 381 477 q 489 460 475 484 q 503 396 503 435 q 494 309 503 357 q 472 216 484 260 q 456 165 465 193 q 444 115 446 137 q 451 84 441 94 q 496 90 461 75 q 547 132 522 102 q 574 134 559 141 q 600 113 590 127 q 608 80 609 99 q 587 45 608 61 q 528 5 562 20 q 459 -14 494 -11 q 393 -4 425 -16 q 340 37 361 8 m 130 189 q 127 136 123 160 q 142 96 130 113 q 176 71 155 79 q 224 68 197 64 q 298 109 264 73 q 354 191 331 144 q 390 288 377 237 q 404 378 403 339 q 302 352 350 373 q 219 302 255 331 q 160 243 183 274 q 130 189 137 213 m 441 707 q 479 723 461 726 q 509 707 498 720 q 519 673 519 693 q 502 636 519 652 l 399 541 q 361 526 378 522 q 333 543 343 529 q 322 574 323 556 q 334 605 321 593 l 441 707 z "},"ă":{"ha":642,"x_min":23,"x_max":609,"o":"m 340 37 q 257 -5 300 7 q 174 -13 214 -16 q 102 9 134 -9 q 50 58 69 28 q 26 127 30 87 q 43 214 23 167 q 113 325 71 277 q 209 406 156 373 q 321 458 262 439 q 441 481 381 477 q 489 460 475 484 q 503 396 503 435 q 494 309 503 357 q 472 216 484 260 q 456 165 465 193 q 444 115 446 137 q 451 84 441 94 q 496 90 461 75 q 547 132 522 102 q 574 134 559 141 q 600 113 590 127 q 608 80 609 99 q 587 45 608 61 q 528 5 562 20 q 459 -14 494 -11 q 393 -4 425 -16 q 340 37 361 8 m 130 189 q 127 136 123 160 q 142 96 130 113 q 176 71 155 79 q 224 68 197 64 q 298 109 264 73 q 354 191 331 144 q 390 288 377 237 q 404 378 403 339 q 302 352 350 373 q 219 302 255 331 q 160 243 183 274 q 130 189 137 213 m 511 661 q 539 678 522 677 q 568 671 556 680 q 585 648 581 663 q 575 613 589 632 q 499 549 544 570 q 410 528 454 528 q 328 549 365 529 q 273 610 290 570 q 273 646 264 631 q 298 668 282 661 q 328 674 313 675 q 345 661 342 673 q 378 614 355 628 q 425 603 400 601 q 474 620 450 605 q 511 661 498 635 z "},"â":{"ha":642,"x_min":23,"x_max":609,"o":"m 340 37 q 257 -5 300 7 q 174 -13 214 -16 q 102 9 134 -9 q 50 58 69 28 q 26 127 30 87 q 43 214 23 167 q 113 325 71 277 q 209 406 156 373 q 321 458 262 439 q 441 481 381 477 q 489 460 475 484 q 503 396 503 435 q 494 309 503 357 q 472 216 484 260 q 456 165 465 193 q 444 115 446 137 q 451 84 441 94 q 496 90 461 75 q 547 132 522 102 q 574 134 559 141 q 600 113 590 127 q 608 80 609 99 q 587 45 608 61 q 528 5 562 20 q 459 -14 494 -11 q 393 -4 425 -16 q 340 37 361 8 m 130 189 q 127 136 123 160 q 142 96 130 113 q 176 71 155 79 q 224 68 197 64 q 298 109 264 73 q 354 191 331 144 q 390 288 377 237 q 404 378 403 339 q 302 352 350 373 q 219 302 255 331 q 160 243 183 274 q 130 189 137 213 m 380 692 q 444 721 411 724 q 491 692 477 718 l 538 598 q 535 571 544 586 q 511 547 526 556 q 479 537 496 537 q 453 555 463 537 l 420 613 l 372 556 q 341 539 358 540 q 311 547 324 538 q 293 568 298 555 q 298 594 288 582 l 380 692 z "},"ä":{"ha":642,"x_min":23,"x_max":609,"o":"m 340 37 q 257 -5 300 7 q 174 -13 214 -16 q 102 9 134 -9 q 50 58 69 28 q 26 127 30 87 q 43 214 23 167 q 113 325 71 277 q 209 406 156 373 q 321 458 262 439 q 441 481 381 477 q 489 460 475 484 q 503 396 503 435 q 494 309 503 357 q 472 216 484 260 q 456 165 465 193 q 444 115 446 137 q 451 84 441 94 q 496 90 461 75 q 547 132 522 102 q 574 134 559 141 q 600 113 590 127 q 608 80 609 99 q 587 45 608 61 q 528 5 562 20 q 459 -14 494 -11 q 393 -4 425 -16 q 340 37 361 8 m 130 189 q 127 136 123 160 q 142 96 130 113 q 176 71 155 79 q 224 68 197 64 q 298 109 264 73 q 354 191 331 144 q 390 288 377 237 q 404 378 403 339 q 302 352 350 373 q 219 302 255 331 q 160 243 183 274 q 130 189 137 213 m 252 598 q 277 642 258 624 q 323 659 297 659 q 363 642 349 659 q 373 598 378 624 q 349 555 369 572 q 302 538 328 538 q 262 555 277 538 q 252 598 248 572 m 423 598 q 448 642 429 624 q 494 659 468 659 q 534 642 519 659 q 544 598 549 624 q 519 555 540 572 q 473 538 499 538 q 433 555 448 538 q 423 598 419 572 z "},"à":{"ha":642,"x_min":23,"x_max":609,"o":"m 340 37 q 257 -5 300 7 q 174 -13 214 -16 q 102 9 134 -9 q 50 58 69 28 q 26 127 30 87 q 43 214 23 167 q 113 325 71 277 q 209 406 156 373 q 321 458 262 439 q 441 481 381 477 q 489 460 475 484 q 503 396 503 435 q 494 309 503 357 q 472 216 484 260 q 456 165 465 193 q 444 115 446 137 q 451 84 441 94 q 496 90 461 75 q 547 132 522 102 q 574 134 559 141 q 600 113 590 127 q 608 80 609 99 q 587 45 608 61 q 528 5 562 20 q 459 -14 494 -11 q 393 -4 425 -16 q 340 37 361 8 m 130 189 q 127 136 123 160 q 142 96 130 113 q 176 71 155 79 q 224 68 197 64 q 298 109 264 73 q 354 191 331 144 q 390 288 377 237 q 404 378 403 339 q 302 352 350 373 q 219 302 255 331 q 160 243 183 274 q 130 189 137 213 m 490 629 q 496 599 500 617 q 478 567 491 581 q 447 550 465 553 q 412 566 429 547 l 327 661 q 317 695 313 675 q 333 729 320 715 q 365 747 346 743 q 400 731 384 750 l 490 629 z "},"ā":{"ha":642,"x_min":23,"x_max":609,"o":"m 340 37 q 257 -5 300 7 q 174 -13 214 -16 q 102 9 134 -9 q 50 58 69 28 q 26 127 30 87 q 43 214 23 167 q 113 325 71 277 q 209 406 156 373 q 321 458 262 439 q 441 481 381 477 q 489 460 475 484 q 503 396 503 435 q 494 309 503 357 q 472 216 484 260 q 456 165 465 193 q 444 115 446 137 q 451 84 441 94 q 496 90 461 75 q 547 132 522 102 q 574 134 559 141 q 600 113 590 127 q 608 80 609 99 q 587 45 608 61 q 528 5 562 20 q 459 -14 494 -11 q 393 -4 425 -16 q 340 37 361 8 m 130 189 q 127 136 123 160 q 142 96 130 113 q 176 71 155 79 q 224 68 197 64 q 298 109 264 73 q 354 191 331 144 q 390 288 377 237 q 404 378 403 339 q 302 352 350 373 q 219 302 255 331 q 160 243 183 274 q 130 189 137 213 m 557 639 q 589 623 582 639 q 591 589 595 608 q 572 553 586 570 q 538 537 557 537 l 210 534 q 178 550 186 534 q 175 585 171 566 q 192 619 179 604 q 221 635 205 635 l 557 639 z "},"ą":{"ha":642,"x_min":23,"x_max":609,"o":"m 340 37 q 257 -5 300 7 q 174 -13 214 -16 q 102 9 134 -9 q 50 58 69 28 q 26 127 30 87 q 43 214 23 167 q 113 325 71 277 q 209 406 156 373 q 321 458 262 439 q 441 481 381 477 q 489 460 475 484 q 503 396 503 435 q 494 309 503 357 q 472 216 484 260 q 456 165 465 193 q 444 115 446 137 q 451 84 441 94 q 496 90 461 75 q 547 132 522 102 q 574 134 559 141 q 600 113 590 127 q 608 80 609 99 q 587 45 608 61 q 528 5 562 20 q 459 -14 494 -11 q 393 -4 425 -16 q 340 37 361 8 m 130 189 q 127 136 123 160 q 142 96 130 113 q 176 71 155 79 q 224 68 197 64 q 298 109 264 73 q 354 191 331 144 q 390 288 377 237 q 404 378 403 339 q 302 352 350 373 q 219 302 255 331 q 160 243 183 274 q 130 189 137 213 m 454 -3 q 432 -31 442 -14 q 419 -68 422 -47 q 422 -110 416 -88 q 446 -151 427 -132 q 448 -181 456 -165 q 424 -205 439 -197 q 389 -213 408 -214 q 357 -194 369 -212 q 327 -125 332 -161 q 328 -56 321 -90 q 353 5 335 -23 q 391 53 370 34 q 428 68 410 71 q 458 55 446 66 q 470 26 469 43 q 454 -3 471 9 z "},"å":{"ha":642,"x_min":23,"x_max":609,"o":"m 340 37 q 257 -5 300 7 q 174 -13 214 -16 q 102 9 134 -9 q 50 58 69 28 q 26 127 30 87 q 43 214 23 167 q 113 325 71 277 q 209 406 156 373 q 321 458 262 439 q 441 481 381 477 q 489 460 475 484 q 503 396 503 435 q 494 309 503 357 q 472 216 484 260 q 456 165 465 193 q 444 115 446 137 q 451 84 441 94 q 496 90 461 75 q 547 132 522 102 q 574 134 559 141 q 600 113 590 127 q 608 80 609 99 q 587 45 608 61 q 528 5 562 20 q 459 -14 494 -11 q 393 -4 425 -16 q 340 37 361 8 m 130 189 q 127 136 123 160 q 142 96 130 113 q 176 71 155 79 q 224 68 197 64 q 298 109 264 73 q 354 191 331 144 q 390 288 377 237 q 404 378 403 339 q 302 352 350 373 q 219 302 255 331 q 160 243 183 274 q 130 189 137 213 m 382 621 q 404 595 378 595 q 424 603 415 595 q 435 621 433 610 q 431 640 438 632 q 414 648 425 648 q 394 640 403 648 q 382 621 385 632 m 321 621 q 358 684 328 658 q 425 709 388 709 q 482 684 461 709 q 496 621 503 658 q 460 559 490 585 q 393 534 430 534 q 336 559 357 534 q 321 621 315 585 z "},"ã":{"ha":642,"x_min":23,"x_max":632,"o":"m 340 37 q 257 -5 300 7 q 174 -13 214 -16 q 102 9 134 -9 q 50 58 69 28 q 26 127 30 87 q 43 214 23 167 q 113 325 71 277 q 209 406 156 373 q 321 458 262 439 q 441 481 381 477 q 489 460 475 484 q 503 396 503 435 q 494 309 503 357 q 472 216 484 260 q 456 165 465 193 q 444 115 446 137 q 451 84 441 94 q 496 90 461 75 q 547 132 522 102 q 574 134 559 141 q 600 113 590 127 q 608 80 609 99 q 587 45 608 61 q 528 5 562 20 q 459 -14 494 -11 q 393 -4 425 -16 q 340 37 361 8 m 130 189 q 127 136 123 160 q 142 96 130 113 q 176 71 155 79 q 224 68 197 64 q 298 109 264 73 q 354 191 331 144 q 390 288 377 237 q 404 378 403 339 q 302 352 350 373 q 219 302 255 331 q 160 243 183 274 q 130 189 137 213 m 540 680 q 565 704 548 697 q 597 707 582 711 q 623 690 613 704 q 627 654 632 677 q 604 602 618 625 q 570 560 589 578 q 529 533 551 543 q 486 522 507 524 q 429 536 450 519 q 390 571 407 552 q 355 605 373 590 q 312 616 338 620 q 279 595 290 613 q 254 548 269 578 q 224 521 241 525 q 193 525 208 517 q 173 551 179 533 q 179 591 167 570 q 240 673 206 639 q 321 705 274 707 q 383 690 361 705 q 421 659 406 675 q 452 627 437 642 q 491 613 467 613 q 523 632 513 613 q 540 680 533 651 z "},"æ":{"ha":769,"x_min":18,"x_max":739,"o":"m 643 134 q 676 150 656 149 q 712 141 696 151 q 734 115 728 132 q 724 80 739 99 q 646 13 689 37 q 557 -17 602 -11 q 467 -13 511 -23 q 385 22 423 -3 q 219 -28 294 -23 q 96 -7 144 -34 q 33 72 47 19 q 47 195 18 125 q 115 304 73 256 q 208 385 157 351 q 317 437 259 418 q 433 461 374 456 q 526 484 479 483 q 610 470 576 486 q 663 427 644 454 q 684 362 684 400 q 658 281 684 324 q 576 195 632 239 q 427 111 521 151 q 470 84 444 94 q 526 76 496 75 q 587 91 556 77 q 643 134 617 104 m 134 170 q 136 103 122 129 q 178 67 149 77 q 243 63 206 57 q 316 91 281 69 q 287 155 297 119 q 277 231 277 190 q 298 328 277 281 q 238 293 266 313 q 189 252 210 273 q 153 209 167 231 q 134 170 140 187 m 502 393 q 441 359 467 381 q 400 309 415 336 q 380 252 385 282 q 381 194 374 222 q 494 247 453 220 q 554 298 534 274 q 576 342 574 323 q 575 369 579 361 q 545 394 567 388 q 502 393 522 400 z "},"ǽ":{"ha":769,"x_min":18,"x_max":739,"o":"m 643 134 q 676 150 656 149 q 712 141 696 151 q 734 115 728 132 q 724 80 739 99 q 646 13 689 37 q 557 -17 602 -11 q 467 -13 511 -23 q 385 22 423 -3 q 219 -28 294 -23 q 96 -7 144 -34 q 33 72 47 19 q 47 195 18 125 q 115 304 73 256 q 208 385 157 351 q 317 437 259 418 q 433 461 374 456 q 526 484 479 483 q 610 470 576 486 q 663 427 644 454 q 684 362 684 400 q 658 281 684 324 q 576 195 632 239 q 427 111 521 151 q 470 84 444 94 q 526 76 496 75 q 587 91 556 77 q 643 134 617 104 m 134 170 q 136 103 122 129 q 178 67 149 77 q 243 63 206 57 q 316 91 281 69 q 287 155 297 119 q 277 231 277 190 q 298 328 277 281 q 238 293 266 313 q 189 252 210 273 q 153 209 167 231 q 134 170 140 187 m 502 393 q 441 359 467 381 q 400 309 415 336 q 380 252 385 282 q 381 194 374 222 q 494 247 453 220 q 554 298 534 274 q 576 342 574 323 q 575 369 579 361 q 545 394 567 388 q 502 393 522 400 m 528 689 q 566 705 548 708 q 595 689 585 703 q 606 655 606 675 q 589 618 606 635 l 486 524 q 448 508 465 505 q 420 525 430 511 q 409 557 410 538 q 420 587 408 575 l 528 689 z "},"ć":{"ha":557,"x_min":45,"x_max":519,"o":"m 403 167 q 435 185 416 184 q 469 176 454 186 q 488 149 483 167 q 477 109 492 130 q 375 18 437 52 q 247 -15 313 -15 q 158 5 198 -15 q 92 58 118 24 q 55 137 65 92 q 53 231 45 182 q 89 324 62 279 q 153 403 115 369 q 238 456 191 437 q 334 475 285 476 q 460 435 415 472 q 515 349 505 397 q 506 318 519 332 q 475 296 492 304 q 439 289 457 288 q 418 304 422 290 q 378 357 406 343 q 315 370 350 370 q 260 359 286 370 q 211 328 233 347 q 173 283 189 309 q 152 229 157 258 q 153 175 146 201 q 175 130 160 149 q 213 98 190 110 q 264 87 236 87 q 335 103 305 87 q 403 167 365 119 m 382 696 q 421 712 403 715 q 450 696 439 709 q 461 662 461 682 q 444 625 461 642 l 340 530 q 302 515 320 511 q 275 532 285 518 q 264 564 264 545 q 275 594 263 582 l 382 696 z "},"č":{"ha":557,"x_min":45,"x_max":519,"o":"m 403 167 q 435 185 416 184 q 469 176 454 186 q 488 149 483 167 q 477 109 492 130 q 375 18 437 52 q 247 -15 313 -15 q 158 5 198 -15 q 92 58 118 24 q 55 137 65 92 q 53 231 45 182 q 89 324 62 279 q 153 403 115 369 q 238 456 191 437 q 334 475 285 476 q 460 435 415 472 q 515 349 505 397 q 506 318 519 332 q 475 296 492 304 q 439 289 457 288 q 418 304 422 290 q 378 357 406 343 q 315 370 350 370 q 260 359 286 370 q 211 328 233 347 q 173 283 189 309 q 152 229 157 258 q 153 175 146 201 q 175 130 160 149 q 213 98 190 110 q 264 87 236 87 q 335 103 305 87 q 403 167 365 119 m 387 552 q 322 523 355 519 q 275 552 289 526 l 228 646 q 234 674 225 659 q 257 698 243 689 q 287 706 271 707 q 313 689 302 705 l 346 631 l 395 688 q 424 705 408 704 q 452 698 439 705 q 470 677 464 690 q 468 650 476 663 l 387 552 z "},"ç":{"ha":557,"x_min":45,"x_max":519,"o":"m 403 167 q 435 185 416 184 q 469 176 454 186 q 488 149 483 167 q 477 109 492 130 q 375 18 437 52 q 247 -15 313 -15 q 158 5 198 -15 q 92 58 118 24 q 55 137 65 92 q 53 231 45 182 q 89 324 62 279 q 153 403 115 369 q 238 456 191 437 q 334 475 285 476 q 460 435 415 472 q 515 349 505 397 q 506 318 519 332 q 475 296 492 304 q 439 289 457 288 q 418 304 422 290 q 378 357 406 343 q 315 370 350 370 q 260 359 286 370 q 211 328 233 347 q 173 283 189 309 q 152 229 157 258 q 153 175 146 201 q 175 130 160 149 q 213 98 190 110 q 264 87 236 87 q 335 103 305 87 q 403 167 365 119 m 288 5 l 285 -28 q 395 -62 362 -31 q 419 -140 429 -92 q 357 -239 407 -210 q 233 -267 307 -269 q 195 -252 206 -267 q 184 -220 183 -237 q 200 -186 186 -202 q 241 -170 214 -171 q 268 -169 254 -170 q 294 -165 282 -168 q 313 -157 305 -163 q 321 -138 321 -151 q 310 -119 321 -123 q 256 -117 298 -115 q 237 -115 251 -117 q 212 -102 224 -114 q 197 -66 201 -91 q 208 5 193 -42 l 288 5 z "},"ĉ":{"ha":557,"x_min":45,"x_max":519,"o":"m 403 167 q 435 185 416 184 q 469 176 454 186 q 488 149 483 167 q 477 109 492 130 q 375 18 437 52 q 247 -15 313 -15 q 158 5 198 -15 q 92 58 118 24 q 55 137 65 92 q 53 231 45 182 q 89 324 62 279 q 153 403 115 369 q 238 456 191 437 q 334 475 285 476 q 460 435 415 472 q 515 349 505 397 q 506 318 519 332 q 475 296 492 304 q 439 289 457 288 q 418 304 422 290 q 378 357 406 343 q 315 370 350 370 q 260 359 286 370 q 211 328 233 347 q 173 283 189 309 q 152 229 157 258 q 153 175 146 201 q 175 130 160 149 q 213 98 190 110 q 264 87 236 87 q 335 103 305 87 q 403 167 365 119 m 282 656 q 347 686 313 689 q 393 656 380 682 l 441 563 q 437 536 446 551 q 414 511 429 521 q 382 502 399 502 q 355 519 365 502 l 323 578 l 274 521 q 243 504 260 505 q 214 511 227 503 q 195 533 201 519 q 201 559 190 547 l 282 656 z "},"ċ":{"ha":557,"x_min":45,"x_max":519,"o":"m 403 167 q 435 185 416 184 q 469 176 454 186 q 488 149 483 167 q 477 109 492 130 q 375 18 437 52 q 247 -15 313 -15 q 158 5 198 -15 q 92 58 118 24 q 55 137 65 92 q 53 231 45 182 q 89 324 62 279 q 153 403 115 369 q 238 456 191 437 q 334 475 285 476 q 460 435 415 472 q 515 349 505 397 q 506 318 519 332 q 475 296 492 304 q 439 289 457 288 q 418 304 422 290 q 378 357 406 343 q 315 370 350 370 q 260 359 286 370 q 211 328 233 347 q 173 283 189 309 q 152 229 157 258 q 153 175 146 201 q 175 130 160 149 q 213 98 190 110 q 264 87 236 87 q 335 103 305 87 q 403 167 365 119 m 267 562 q 292 605 273 587 q 338 623 312 623 q 378 605 363 623 q 388 562 393 587 q 363 519 384 536 q 317 502 343 502 q 277 519 292 502 q 267 562 263 536 z "},"ď":{"ha":755,"x_min":34,"x_max":741,"o":"m 407 53 q 311 -1 361 15 q 216 -14 262 -18 q 132 8 170 -11 q 70 59 94 27 q 40 132 46 91 q 54 221 34 174 q 125 330 80 281 q 224 413 170 378 q 338 466 278 448 q 452 484 397 484 q 469 574 458 521 q 489 675 479 627 q 507 760 499 724 q 514 796 514 795 q 534 829 518 818 q 566 841 549 841 q 596 828 583 841 q 609 787 609 815 q 550 498 572 616 q 515 301 528 380 q 500 174 503 218 q 500 110 496 130 q 510 88 503 90 q 524 90 517 87 q 574 132 549 102 q 602 134 586 141 q 627 113 617 127 q 635 80 636 99 q 614 45 635 61 q 556 3 587 19 q 495 -14 525 -14 q 444 1 468 -14 q 407 53 420 16 m 140 193 q 151 104 125 136 q 233 72 176 72 q 334 111 294 72 q 396 203 373 149 l 431 381 q 332 366 381 385 q 241 315 282 346 q 174 251 201 285 q 140 193 146 217 m 636 620 q 664 654 646 644 q 699 662 682 663 q 728 648 716 661 q 736 618 741 636 l 699 456 q 677 420 694 430 q 641 411 659 410 q 609 422 623 412 q 598 449 595 433 l 636 620 z "},"đ":{"ha":659,"x_min":34,"x_max":670,"o":"m 407 53 q 311 -1 361 15 q 216 -14 262 -18 q 132 8 170 -11 q 70 59 94 27 q 40 132 46 91 q 54 221 34 174 q 125 330 80 281 q 224 413 170 378 q 338 466 278 448 q 452 484 397 484 q 469 574 458 521 q 489 675 479 627 q 507 760 499 724 q 514 796 514 795 q 534 829 518 818 q 566 841 549 841 q 596 828 583 841 q 609 787 609 815 q 550 498 572 616 q 515 301 528 380 q 500 174 503 218 q 500 110 496 130 q 510 88 503 90 q 524 90 517 87 q 574 132 549 102 q 602 134 586 141 q 627 113 617 127 q 635 80 636 99 q 614 45 635 61 q 556 3 587 19 q 495 -14 525 -14 q 444 1 468 -14 q 407 53 420 16 m 140 193 q 151 104 125 136 q 233 72 176 72 q 334 111 294 72 q 396 203 373 149 l 431 381 q 332 366 381 385 q 241 315 282 346 q 174 251 201 285 q 140 193 146 217 m 633 655 q 663 633 656 651 q 665 596 670 614 q 646 564 661 578 q 614 553 632 549 l 286 551 q 253 566 260 551 q 250 601 245 582 q 268 635 255 620 q 297 651 281 651 l 633 655 z "},"é":{"ha":528,"x_min":35,"x_max":498,"o":"m 401 134 q 435 150 415 149 q 471 141 454 151 q 492 115 487 132 q 483 80 498 99 q 397 9 445 33 q 299 -18 349 -15 q 202 -6 250 -22 q 117 42 155 9 q 58 123 80 75 q 35 231 35 171 q 56 325 35 279 q 111 405 76 370 q 191 461 145 439 q 285 484 236 483 q 369 470 335 486 q 422 427 403 454 q 442 362 442 400 q 416 281 442 324 q 335 195 391 239 q 186 111 279 151 q 229 84 202 94 q 285 76 255 75 q 345 91 315 77 q 401 134 376 104 m 260 393 q 199 359 225 381 q 159 309 174 336 q 138 252 144 282 q 140 194 133 222 q 252 247 212 220 q 313 298 293 274 q 335 342 332 323 q 334 369 338 361 q 303 394 326 388 q 260 393 281 400 m 332 707 q 371 723 353 726 q 400 707 389 720 q 411 673 411 693 q 393 636 411 652 l 290 541 q 252 526 270 522 q 224 543 235 529 q 214 574 214 556 q 225 605 213 593 l 332 707 z "},"ĕ":{"ha":528,"x_min":35,"x_max":498,"o":"m 401 134 q 435 150 415 149 q 471 141 454 151 q 492 115 487 132 q 483 80 498 99 q 397 9 445 33 q 299 -18 349 -15 q 202 -6 250 -22 q 117 42 155 9 q 58 123 80 75 q 35 231 35 171 q 56 325 35 279 q 111 405 76 370 q 191 461 145 439 q 285 484 236 483 q 369 470 335 486 q 422 427 403 454 q 442 362 442 400 q 416 281 442 324 q 335 195 391 239 q 186 111 279 151 q 229 84 202 94 q 285 76 255 75 q 345 91 315 77 q 401 134 376 104 m 260 393 q 199 359 225 381 q 159 309 174 336 q 138 252 144 282 q 140 194 133 222 q 252 247 212 220 q 313 298 293 274 q 335 342 332 323 q 334 369 338 361 q 303 394 326 388 q 260 393 281 400 m 381 680 q 409 697 392 696 q 438 690 426 699 q 454 667 450 682 q 445 632 458 651 q 369 568 414 589 q 279 547 324 547 q 197 568 235 548 q 142 629 160 589 q 143 665 134 650 q 168 687 152 680 q 197 693 183 694 q 214 680 212 692 q 248 633 225 647 q 295 622 270 620 q 344 639 320 624 q 381 680 368 654 z "},"ě":{"ha":528,"x_min":35,"x_max":498,"o":"m 401 134 q 435 150 415 149 q 471 141 454 151 q 492 115 487 132 q 483 80 498 99 q 397 9 445 33 q 299 -18 349 -15 q 202 -6 250 -22 q 117 42 155 9 q 58 123 80 75 q 35 231 35 171 q 56 325 35 279 q 111 405 76 370 q 191 461 145 439 q 285 484 236 483 q 369 470 335 486 q 422 427 403 454 q 442 362 442 400 q 416 281 442 324 q 335 195 391 239 q 186 111 279 151 q 229 84 202 94 q 285 76 255 75 q 345 91 315 77 q 401 134 376 104 m 260 393 q 199 359 225 381 q 159 309 174 336 q 138 252 144 282 q 140 194 133 222 q 252 247 212 220 q 313 298 293 274 q 335 342 332 323 q 334 369 338 361 q 303 394 326 388 q 260 393 281 400 m 335 545 q 271 516 304 513 q 224 545 237 519 l 176 639 q 182 667 174 652 q 205 691 191 682 q 235 699 220 700 q 262 682 251 699 l 294 624 l 343 681 q 372 698 357 697 q 400 691 388 699 q 418 670 412 684 q 416 643 425 656 l 335 545 z "},"ê":{"ha":528,"x_min":35,"x_max":498,"o":"m 401 134 q 435 150 415 149 q 471 141 454 151 q 492 115 487 132 q 483 80 498 99 q 397 9 445 33 q 299 -18 349 -15 q 202 -6 250 -22 q 117 42 155 9 q 58 123 80 75 q 35 231 35 171 q 56 325 35 279 q 111 405 76 370 q 191 461 145 439 q 285 484 236 483 q 369 470 335 486 q 422 427 403 454 q 442 362 442 400 q 416 281 442 324 q 335 195 391 239 q 186 111 279 151 q 229 84 202 94 q 285 76 255 75 q 345 91 315 77 q 401 134 376 104 m 260 393 q 199 359 225 381 q 159 309 174 336 q 138 252 144 282 q 140 194 133 222 q 252 247 212 220 q 313 298 293 274 q 335 342 332 323 q 334 369 338 361 q 303 394 326 388 q 260 393 281 400 m 240 673 q 304 702 271 705 q 351 673 338 699 l 399 579 q 395 552 404 567 q 372 528 387 537 q 340 518 357 518 q 313 536 323 518 l 281 594 l 232 537 q 201 520 218 521 q 172 528 184 519 q 153 549 159 536 q 159 575 148 563 l 240 673 z "},"ë":{"ha":528,"x_min":35,"x_max":498,"o":"m 401 134 q 435 150 415 149 q 471 141 454 151 q 492 115 487 132 q 483 80 498 99 q 397 9 445 33 q 299 -18 349 -15 q 202 -6 250 -22 q 117 42 155 9 q 58 123 80 75 q 35 231 35 171 q 56 325 35 279 q 111 405 76 370 q 191 461 145 439 q 285 484 236 483 q 369 470 335 486 q 422 427 403 454 q 442 362 442 400 q 416 281 442 324 q 335 195 391 239 q 186 111 279 151 q 229 84 202 94 q 285 76 255 75 q 345 91 315 77 q 401 134 376 104 m 260 393 q 199 359 225 381 q 159 309 174 336 q 138 252 144 282 q 140 194 133 222 q 252 247 212 220 q 313 298 293 274 q 335 342 332 323 q 334 369 338 361 q 303 394 326 388 q 260 393 281 400 m 155 581 q 180 624 160 606 q 225 642 199 642 q 266 624 251 642 q 275 581 281 606 q 251 538 271 555 q 205 521 231 521 q 165 538 179 521 q 155 581 151 555 m 326 581 q 351 624 331 606 q 396 642 370 642 q 437 624 422 642 q 446 581 452 606 q 422 538 442 555 q 376 521 401 521 q 336 538 350 521 q 326 581 321 555 z "},"ė":{"ha":528,"x_min":35,"x_max":498,"o":"m 401 134 q 435 150 415 149 q 471 141 454 151 q 492 115 487 132 q 483 80 498 99 q 397 9 445 33 q 299 -18 349 -15 q 202 -6 250 -22 q 117 42 155 9 q 58 123 80 75 q 35 231 35 171 q 56 325 35 279 q 111 405 76 370 q 191 461 145 439 q 285 484 236 483 q 369 470 335 486 q 422 427 403 454 q 442 362 442 400 q 416 281 442 324 q 335 195 391 239 q 186 111 279 151 q 229 84 202 94 q 285 76 255 75 q 345 91 315 77 q 401 134 376 104 m 260 393 q 199 359 225 381 q 159 309 174 336 q 138 252 144 282 q 140 194 133 222 q 252 247 212 220 q 313 298 293 274 q 335 342 332 323 q 334 369 338 361 q 303 394 326 388 q 260 393 281 400 m 244 594 q 269 637 250 620 q 315 655 289 655 q 355 637 340 655 q 365 594 370 620 q 340 551 361 568 q 294 534 320 534 q 254 551 269 534 q 244 594 240 568 z "},"è":{"ha":528,"x_min":35,"x_max":498,"o":"m 401 134 q 435 150 415 149 q 471 141 454 151 q 492 115 487 132 q 483 80 498 99 q 397 9 445 33 q 299 -18 349 -15 q 202 -6 250 -22 q 117 42 155 9 q 58 123 80 75 q 35 231 35 171 q 56 325 35 279 q 111 405 76 370 q 191 461 145 439 q 285 484 236 483 q 369 470 335 486 q 422 427 403 454 q 442 362 442 400 q 416 281 442 324 q 335 195 391 239 q 186 111 279 151 q 229 84 202 94 q 285 76 255 75 q 345 91 315 77 q 401 134 376 104 m 260 393 q 199 359 225 381 q 159 309 174 336 q 138 252 144 282 q 140 194 133 222 q 252 247 212 220 q 313 298 293 274 q 335 342 332 323 q 334 369 338 361 q 303 394 326 388 q 260 393 281 400 m 388 600 q 394 569 399 587 q 376 537 389 551 q 345 520 363 524 q 311 536 327 517 l 225 631 q 215 665 212 646 q 231 699 218 685 q 263 717 244 713 q 298 701 282 720 l 388 600 z "},"ē":{"ha":528,"x_min":35,"x_max":498,"o":"m 401 134 q 435 150 415 149 q 471 141 454 151 q 492 115 487 132 q 483 80 498 99 q 397 9 445 33 q 299 -18 349 -15 q 202 -6 250 -22 q 117 42 155 9 q 58 123 80 75 q 35 231 35 171 q 56 325 35 279 q 111 405 76 370 q 191 461 145 439 q 285 484 236 483 q 369 470 335 486 q 422 427 403 454 q 442 362 442 400 q 416 281 442 324 q 335 195 391 239 q 186 111 279 151 q 229 84 202 94 q 285 76 255 75 q 345 91 315 77 q 401 134 376 104 m 260 393 q 199 359 225 381 q 159 309 174 336 q 138 252 144 282 q 140 194 133 222 q 252 247 212 220 q 313 298 293 274 q 335 342 332 323 q 334 369 338 361 q 303 394 326 388 q 260 393 281 400 m 460 640 q 491 625 484 640 q 493 590 498 609 q 474 555 488 571 q 441 538 460 538 l 113 536 q 81 551 88 536 q 77 586 73 567 q 94 621 81 605 q 123 636 107 636 l 460 640 z "},"ę":{"ha":528,"x_min":35,"x_max":498,"o":"m 401 134 q 435 150 415 149 q 471 141 454 151 q 492 115 487 132 q 483 80 498 99 q 397 9 445 33 q 299 -18 349 -15 q 202 -6 250 -22 q 117 42 155 9 q 58 123 80 75 q 35 231 35 171 q 56 325 35 279 q 111 405 76 370 q 191 461 145 439 q 285 484 236 483 q 369 470 335 486 q 422 427 403 454 q 442 362 442 400 q 416 281 442 324 q 335 195 391 239 q 186 111 279 151 q 229 84 202 94 q 285 76 255 75 q 345 91 315 77 q 401 134 376 104 m 260 393 q 199 359 225 381 q 159 309 174 336 q 138 252 144 282 q 140 194 133 222 q 252 247 212 220 q 313 298 293 274 q 335 342 332 323 q 334 369 338 361 q 303 394 326 388 q 260 393 281 400 m 382 3 q 360 -25 370 -8 q 347 -62 350 -42 q 350 -104 345 -83 q 374 -145 355 -126 q 376 -176 384 -160 q 352 -200 368 -191 q 317 -208 336 -209 q 285 -189 297 -206 q 255 -120 260 -156 q 256 -51 250 -84 q 281 11 263 -18 q 319 58 298 39 q 356 74 338 76 q 386 60 374 72 q 398 32 397 49 q 382 3 399 15 z "},"ğ":{"ha":563,"x_min":-5,"x_max":545,"o":"m 206 -243 q 277 -218 247 -247 q 328 -146 307 -190 q 361 -54 349 -103 q 377 34 373 -5 q 249 -12 316 -9 q 131 16 182 -14 q 58 99 80 45 q 64 224 35 153 q 138 336 91 286 q 243 420 186 387 q 363 469 301 453 q 481 481 426 486 q 526 456 513 479 q 543 400 540 434 q 539 325 545 366 q 525 241 533 283 q 505 130 514 193 q 481 1 495 66 q 444 -127 467 -64 q 387 -238 422 -190 q 302 -315 353 -286 q 182 -340 252 -343 q 85 -315 125 -338 q 7 -237 46 -293 q 3 -202 -5 -220 q 31 -174 12 -184 q 69 -160 49 -163 q 99 -168 90 -157 q 149 -224 119 -208 q 206 -243 179 -240 m 156 194 q 168 113 148 144 q 244 81 187 81 q 306 92 275 81 q 363 134 336 102 q 410 224 389 165 q 445 378 431 282 q 344 366 393 384 q 254 318 294 347 q 187 254 214 289 q 156 194 160 220 m 445 665 q 473 682 456 681 q 502 675 490 684 q 518 652 514 667 q 509 617 522 636 q 433 553 477 574 q 343 532 388 532 q 261 553 298 533 q 206 614 224 574 q 207 650 198 635 q 231 672 216 665 q 261 678 247 680 q 278 665 275 677 q 311 618 289 632 q 359 607 334 605 q 408 624 384 609 q 445 665 431 639 z "},"ĝ":{"ha":563,"x_min":-5,"x_max":545,"o":"m 206 -243 q 277 -218 247 -247 q 328 -146 307 -190 q 361 -54 349 -103 q 377 34 373 -5 q 249 -12 316 -9 q 131 16 182 -14 q 58 99 80 45 q 64 224 35 153 q 138 336 91 286 q 243 420 186 387 q 363 469 301 453 q 481 481 426 486 q 526 456 513 479 q 543 400 540 434 q 539 325 545 366 q 525 241 533 283 q 505 130 514 193 q 481 1 495 66 q 444 -127 467 -64 q 387 -238 422 -190 q 302 -315 353 -286 q 182 -340 252 -343 q 85 -315 125 -338 q 7 -237 46 -293 q 3 -202 -5 -220 q 31 -174 12 -184 q 69 -160 49 -163 q 99 -168 90 -157 q 149 -224 119 -208 q 206 -243 179 -240 m 156 194 q 168 113 148 144 q 244 81 187 81 q 306 92 275 81 q 363 134 336 102 q 410 224 389 165 q 445 378 431 282 q 344 366 393 384 q 254 318 294 347 q 187 254 214 289 q 156 194 160 220 m 345 723 q 409 752 376 755 q 456 723 442 749 l 503 629 q 500 602 509 617 q 476 578 491 587 q 444 568 461 568 q 418 586 427 568 l 385 644 l 336 587 q 306 570 323 571 q 276 578 289 570 q 258 600 263 586 q 263 625 252 613 l 345 723 z "},"ģ":{"ha":563,"x_min":-5,"x_max":545,"o":"m 206 -243 q 277 -218 247 -247 q 328 -146 307 -190 q 361 -54 349 -103 q 377 34 373 -5 q 249 -12 316 -9 q 131 16 182 -14 q 58 99 80 45 q 64 224 35 153 q 138 336 91 286 q 243 420 186 387 q 363 469 301 453 q 481 481 426 486 q 526 456 513 479 q 543 400 540 434 q 539 325 545 366 q 525 241 533 283 q 505 130 514 193 q 481 1 495 66 q 444 -127 467 -64 q 387 -238 422 -190 q 302 -315 353 -286 q 182 -340 252 -343 q 85 -315 125 -338 q 7 -237 46 -293 q 3 -202 -5 -220 q 31 -174 12 -184 q 69 -160 49 -163 q 99 -168 90 -157 q 149 -224 119 -208 q 206 -243 179 -240 m 156 194 q 168 113 148 144 q 244 81 187 81 q 306 92 275 81 q 363 134 336 102 q 410 224 389 165 q 445 378 431 282 q 344 366 393 384 q 254 318 294 347 q 187 254 214 289 q 156 194 160 220 m 342 736 q 370 770 351 761 q 405 779 388 780 q 434 765 422 777 q 442 735 446 753 l 404 572 q 382 536 400 547 q 347 528 365 526 q 315 539 328 529 q 304 566 301 549 l 342 736 z "},"ġ":{"ha":563,"x_min":-5,"x_max":545,"o":"m 206 -243 q 277 -218 247 -247 q 328 -146 307 -190 q 361 -54 349 -103 q 377 34 373 -5 q 249 -12 316 -9 q 131 16 182 -14 q 58 99 80 45 q 64 224 35 153 q 138 336 91 286 q 243 420 186 387 q 363 469 301 453 q 481 481 426 486 q 526 456 513 479 q 543 400 540 434 q 539 325 545 366 q 525 241 533 283 q 505 130 514 193 q 481 1 495 66 q 444 -127 467 -64 q 387 -238 422 -190 q 302 -315 353 -286 q 182 -340 252 -343 q 85 -315 125 -338 q 7 -237 46 -293 q 3 -202 -5 -220 q 31 -174 12 -184 q 69 -160 49 -163 q 99 -168 90 -157 q 149 -224 119 -208 q 206 -243 179 -240 m 156 194 q 168 113 148 144 q 244 81 187 81 q 306 92 275 81 q 363 134 336 102 q 410 224 389 165 q 445 378 431 282 q 344 366 393 384 q 254 318 294 347 q 187 254 214 289 q 156 194 160 220 m 346 620 q 371 663 351 646 q 416 681 391 681 q 457 663 442 681 q 467 620 472 646 q 442 577 463 594 q 396 560 422 560 q 356 577 370 560 q 346 620 342 594 z "},"ħ":{"ha":650,"x_min":31,"x_max":620,"o":"m 481 1 q 414 14 438 3 q 382 55 391 26 q 376 136 373 84 q 392 271 380 189 q 393 322 396 302 q 380 353 389 342 q 360 367 372 363 q 339 370 349 370 q 284 359 311 370 q 235 328 258 347 q 198 282 213 308 q 178 228 183 256 l 144 35 q 119 2 138 14 q 80 -10 100 -9 q 45 -1 60 -11 q 38 31 31 9 l 171 783 q 193 819 175 808 q 229 827 210 829 q 261 816 247 826 q 273 789 275 806 l 209 425 q 279 460 243 448 q 355 472 316 472 q 467 427 437 472 q 492 305 498 382 q 482 227 490 267 q 470 154 475 186 q 469 104 465 122 q 492 91 472 85 q 524 107 510 96 q 553 137 537 118 q 578 145 563 148 q 604 131 593 142 q 617 104 614 119 q 606 72 620 88 q 551 20 583 41 q 481 1 519 0 m 429 680 q 460 664 453 680 q 462 629 467 648 q 443 594 457 610 q 410 578 429 578 l 81 575 q 50 591 57 575 q 46 625 42 606 q 63 660 50 644 q 92 675 76 675 l 429 680 z "},"ĥ":{"ha":650,"x_min":31,"x_max":620,"o":"m 481 1 q 414 14 438 3 q 382 55 391 26 q 376 136 373 84 q 392 271 380 189 q 393 322 396 302 q 380 353 389 342 q 360 367 372 363 q 339 370 349 370 q 284 359 311 370 q 235 328 258 347 q 198 282 213 308 q 178 228 183 256 l 144 35 q 119 2 138 14 q 80 -10 100 -9 q 45 -1 60 -11 q 38 31 31 9 l 171 783 q 193 819 175 808 q 229 827 210 829 q 261 816 247 826 q 273 789 275 806 l 209 425 q 279 460 243 448 q 355 472 316 472 q 467 427 437 472 q 492 305 498 382 q 482 227 490 267 q 470 154 475 186 q 469 104 465 122 q 492 91 472 85 q 524 107 510 96 q 553 137 537 118 q 578 145 563 148 q 604 131 593 142 q 617 104 614 119 q 606 72 620 88 q 551 20 583 41 q 481 1 519 0 m 381 947 q 446 976 412 979 q 492 947 479 972 l 540 853 q 536 826 545 841 q 513 802 528 811 q 481 792 498 792 q 454 810 464 792 l 422 868 l 373 811 q 342 794 359 795 q 313 802 326 793 q 294 823 300 810 q 300 849 289 837 l 381 947 z "},"į":{"ha":293,"x_min":16,"x_max":278,"o":"m 75 442 q 104 475 84 467 q 142 481 123 484 q 172 467 160 479 q 176 438 183 454 q 136 316 152 381 q 115 197 119 251 q 120 110 111 142 q 153 85 129 77 q 184 102 171 91 q 213 132 197 113 q 237 138 222 142 q 263 122 252 134 q 276 93 274 110 q 264 60 278 76 q 210 8 241 28 q 140 -11 178 -12 q 59 21 85 -9 q 24 98 33 52 q 22 198 16 144 q 38 302 27 252 q 60 390 49 351 q 75 442 72 429 m 104 582 q 130 625 110 608 q 175 643 149 643 q 216 625 201 643 q 225 582 231 608 q 201 539 221 556 q 155 522 180 522 q 115 539 129 522 q 104 582 100 556 m 199 8 q 177 -20 187 -3 q 164 -57 167 -37 q 167 -99 161 -77 q 191 -140 172 -121 q 193 -170 201 -155 q 169 -195 184 -186 q 134 -202 153 -203 q 102 -183 114 -201 q 72 -115 77 -151 q 73 -45 66 -79 q 98 16 80 -12 q 136 64 115 45 q 173 79 155 81 q 203 66 191 77 q 215 37 214 54 q 199 8 216 20 z "},"ı":{"ha":293,"x_min":16,"x_max":278,"o":"m 75 442 q 104 475 84 467 q 142 481 123 484 q 172 467 160 479 q 176 438 183 454 q 136 316 152 381 q 115 197 119 251 q 120 110 111 142 q 153 85 129 77 q 184 102 171 91 q 213 132 197 113 q 237 138 222 142 q 263 122 252 134 q 276 93 274 110 q 264 60 278 76 q 210 8 241 28 q 140 -11 178 -12 q 59 21 85 -9 q 24 98 33 52 q 22 198 16 144 q 38 302 27 252 q 60 390 49 351 q 75 442 72 429 z "},"í":{"ha":293,"x_min":16,"x_max":296,"o":"m 75 442 q 104 475 84 467 q 142 481 123 484 q 172 467 160 479 q 176 438 183 454 q 136 316 152 381 q 115 197 119 251 q 120 110 111 142 q 153 85 129 77 q 184 102 171 91 q 213 132 197 113 q 237 138 222 142 q 263 122 252 134 q 276 93 274 110 q 264 60 278 76 q 210 8 241 28 q 140 -11 178 -12 q 59 21 85 -9 q 24 98 33 52 q 22 198 16 144 q 38 302 27 252 q 60 390 49 351 q 75 442 72 429 m 217 709 q 256 726 237 728 q 285 709 274 723 q 296 675 296 696 q 278 639 296 655 l 175 544 q 137 528 155 525 q 109 545 119 532 q 98 577 99 559 q 110 608 98 595 l 217 709 z "},"ĭ":{"ha":293,"x_min":0,"x_max":324,"o":"m 75 442 q 104 475 84 467 q 142 481 123 484 q 172 467 160 479 q 176 438 183 454 q 136 316 152 381 q 115 197 119 251 q 120 110 111 142 q 153 85 129 77 q 184 102 171 91 q 213 132 197 113 q 237 138 222 142 q 263 122 252 134 q 276 93 274 110 q 264 60 278 76 q 210 8 241 28 q 140 -11 178 -12 q 59 21 85 -9 q 24 98 33 52 q 22 198 16 144 q 38 302 27 252 q 60 390 49 351 q 75 442 72 429 m 247 674 q 275 692 258 690 q 304 685 292 693 q 320 661 316 677 q 311 627 324 646 q 235 562 279 583 q 145 542 190 541 q 63 563 100 543 q 8 624 26 583 q 9 659 0 644 q 33 682 18 674 q 63 688 49 689 q 80 674 77 686 q 113 628 91 642 q 161 616 136 614 q 210 633 186 618 q 247 674 233 648 z "},"î":{"ha":293,"x_min":16,"x_max":285,"o":"m 75 442 q 104 475 84 467 q 142 481 123 484 q 172 467 160 479 q 176 438 183 454 q 136 316 152 381 q 115 197 119 251 q 120 110 111 142 q 153 85 129 77 q 184 102 171 91 q 213 132 197 113 q 237 138 222 142 q 263 122 252 134 q 276 93 274 110 q 264 60 278 76 q 210 8 241 28 q 140 -11 178 -12 q 59 21 85 -9 q 24 98 33 52 q 22 198 16 144 q 38 302 27 252 q 60 390 49 351 q 75 442 72 429 m 121 690 q 185 720 152 723 q 232 690 218 716 l 279 597 q 276 570 285 585 q 252 545 267 555 q 220 536 237 536 q 194 553 203 536 l 161 612 l 113 555 q 82 538 99 538 q 52 545 65 537 q 34 567 39 553 q 39 593 28 581 l 121 690 z "},"ï":{"ha":293,"x_min":9,"x_max":311,"o":"m 75 442 q 104 475 84 467 q 142 481 123 484 q 172 467 160 479 q 176 438 183 454 q 136 316 152 381 q 115 197 119 251 q 120 110 111 142 q 153 85 129 77 q 184 102 171 91 q 213 132 197 113 q 237 138 222 142 q 263 122 252 134 q 276 93 274 110 q 264 60 278 76 q 210 8 241 28 q 140 -11 178 -12 q 59 21 85 -9 q 24 98 33 52 q 22 198 16 144 q 38 302 27 252 q 60 390 49 351 q 75 442 72 429 m 14 594 q 39 637 19 620 q 84 655 58 655 q 125 637 110 655 q 134 594 140 620 q 110 551 130 568 q 64 534 90 534 q 24 551 38 534 q 14 594 9 568 m 184 594 q 210 637 190 620 q 255 655 229 655 q 296 637 281 655 q 305 594 311 620 q 281 551 301 568 q 235 534 260 534 q 195 551 209 534 q 184 594 180 568 z "},"ì":{"ha":293,"x_min":16,"x_max":278,"o":"m 75 442 q 104 475 84 467 q 142 481 123 484 q 172 467 160 479 q 176 438 183 454 q 136 316 152 381 q 115 197 119 251 q 120 110 111 142 q 153 85 129 77 q 184 102 171 91 q 213 132 197 113 q 237 138 222 142 q 263 122 252 134 q 276 93 274 110 q 264 60 278 76 q 210 8 241 28 q 140 -11 178 -12 q 59 21 85 -9 q 24 98 33 52 q 22 198 16 144 q 38 302 27 252 q 60 390 49 351 q 75 442 72 429 m 243 600 q 249 569 254 587 q 231 537 244 551 q 200 520 218 524 q 165 536 182 517 l 80 631 q 70 665 66 646 q 86 699 73 685 q 118 717 99 713 q 153 701 137 720 l 243 600 z "},"ī":{"ha":293,"x_min":-38,"x_max":387,"o":"m 75 442 q 104 475 84 467 q 142 481 123 484 q 172 467 160 479 q 176 438 183 454 q 136 316 152 381 q 115 197 119 251 q 120 110 111 142 q 153 85 129 77 q 184 102 171 91 q 213 132 197 113 q 237 138 222 142 q 263 122 252 134 q 276 93 274 110 q 264 60 278 76 q 210 8 241 28 q 140 -11 178 -12 q 59 21 85 -9 q 24 98 33 52 q 22 198 16 144 q 38 302 27 252 q 60 390 49 351 q 75 442 72 429 m 349 646 q 380 630 373 646 q 382 595 387 614 q 363 560 377 576 q 330 544 349 544 l 1 541 q -31 557 -23 541 q -34 591 -38 572 q -17 626 -30 610 q 12 642 -4 642 l 349 646 z "},"ĩ":{"ha":293,"x_min":-56,"x_max":410,"o":"m 75 442 q 104 475 84 467 q 142 481 123 484 q 172 467 160 479 q 176 438 183 454 q 136 316 152 381 q 115 197 119 251 q 120 110 111 142 q 153 85 129 77 q 184 102 171 91 q 213 132 197 113 q 237 138 222 142 q 263 122 252 134 q 276 93 274 110 q 264 60 278 76 q 210 8 241 28 q 140 -11 178 -12 q 59 21 85 -9 q 24 98 33 52 q 22 198 16 144 q 38 302 27 252 q 60 390 49 351 q 75 442 72 429 m 317 713 q 342 738 326 731 q 375 741 359 745 q 400 724 391 738 q 404 688 410 711 q 381 635 396 659 q 347 594 366 612 q 307 567 328 576 q 263 556 285 557 q 206 570 228 553 q 168 605 184 586 q 133 639 151 624 q 90 650 115 654 q 57 629 68 647 q 31 582 46 612 q 2 555 19 559 q -29 559 -15 551 q -50 585 -43 567 q -43 625 -56 604 q 18 707 -16 673 q 99 739 52 741 q 161 724 138 739 q 199 692 183 709 q 229 661 214 675 q 269 647 244 647 q 300 666 290 647 q 317 713 311 685 z "},"ĵ":{"ha":254,"x_min":-292,"x_max":278,"o":"m 91 442 q 111 469 94 458 q 148 480 129 479 q 180 471 167 481 q 190 435 194 461 l 152 121 q 114 -85 137 -4 q 63 -216 91 -167 q 4 -290 35 -266 q -57 -324 -27 -313 q -133 -335 -95 -338 q -203 -316 -171 -332 q -258 -272 -235 -300 q -288 -206 -281 -244 q -279 -165 -292 -180 q -250 -145 -267 -151 q -217 -145 -233 -140 q -197 -167 -201 -151 q -181 -201 -193 -186 q -153 -227 -170 -217 q -117 -239 -137 -237 q -79 -232 -98 -241 q -41 -201 -60 -222 q -3 -138 -22 -179 q 30 -32 15 -96 q 56 127 45 33 l 91 442 m 114 705 q 178 734 145 738 q 225 705 212 731 l 273 612 q 269 585 278 600 q 245 560 260 570 q 214 551 231 551 q 187 568 197 551 l 155 627 l 106 570 q 75 553 92 553 q 45 560 58 552 q 27 582 33 568 q 33 608 22 595 l 114 705 z "},"ķ":{"ha":640,"x_min":31,"x_max":620,"o":"m 496 384 q 485 292 505 335 q 426 224 465 250 q 330 197 387 198 q 209 232 274 197 q 270 144 237 176 q 333 96 302 113 q 389 77 363 80 q 429 75 414 73 q 553 146 492 79 q 578 154 563 157 q 604 139 593 151 q 617 111 614 127 q 606 79 620 95 q 513 10 570 31 q 393 -5 456 -11 q 336 4 366 -3 q 274 27 305 11 q 213 73 243 43 q 159 151 183 102 l 134 23 q 111 -8 129 1 q 75 -16 94 -18 q 44 -3 57 -15 q 38 31 31 9 l 171 783 q 192 819 175 808 q 227 827 209 829 q 259 816 245 826 q 270 789 273 806 l 199 420 q 301 475 251 460 q 392 484 351 490 q 460 452 433 477 q 496 384 488 426 m 412 351 q 392 393 410 381 q 347 403 374 406 q 282 382 319 400 q 208 332 245 363 q 277 288 240 297 q 344 286 313 279 q 394 312 374 293 q 412 351 414 331 m 206 -75 q 200 -52 195 -65 q 216 -31 205 -39 q 242 -20 227 -22 q 270 -33 258 -19 q 291 -71 282 -47 q 301 -121 300 -94 q 294 -178 302 -149 q 262 -232 285 -206 q 234 -246 250 -245 q 206 -240 218 -247 q 189 -222 194 -233 q 193 -198 183 -210 q 216 -166 209 -184 q 224 -130 224 -148 q 220 -98 225 -113 q 206 -75 214 -83 z "},"ĺ":{"ha":274,"x_min":20,"x_max":300,"o":"m 28 53 q 25 153 20 85 q 42 303 30 221 q 70 472 54 385 q 100 631 85 559 q 125 749 115 703 q 136 796 136 795 q 155 829 140 818 q 188 841 171 841 q 218 828 205 841 q 231 787 231 815 q 172 498 194 616 q 137 301 149 380 q 121 175 125 218 q 121 113 118 132 q 132 92 125 94 q 145 90 138 90 q 170 104 156 91 q 195 132 183 117 q 223 134 208 141 q 248 113 239 127 q 257 80 258 99 q 236 45 256 61 q 178 3 209 19 q 117 -14 146 -14 q 64 1 90 -14 q 28 53 38 15 m 221 1038 q 260 1054 241 1057 q 289 1038 278 1051 q 300 1004 300 1024 q 282 967 300 983 l 179 872 q 141 857 159 853 q 113 873 123 860 q 102 905 103 887 q 114 936 102 924 l 221 1038 z "},"ľ":{"ha":399,"x_min":20,"x_max":387,"o":"m 28 53 q 25 153 20 85 q 42 303 30 221 q 70 472 54 385 q 100 631 85 559 q 125 749 115 703 q 136 796 136 795 q 155 829 140 818 q 188 841 171 841 q 218 828 205 841 q 231 787 231 815 q 172 498 194 616 q 137 301 149 380 q 121 175 125 218 q 121 113 118 132 q 132 92 125 94 q 145 90 138 90 q 170 104 156 91 q 195 132 183 117 q 223 134 208 141 q 248 113 239 127 q 257 80 258 99 q 236 45 256 61 q 178 3 209 19 q 117 -14 146 -14 q 64 1 90 -14 q 28 53 38 15 m 282 685 q 310 719 292 709 q 345 727 328 728 q 374 713 362 726 q 382 684 387 701 l 345 521 q 323 485 340 495 q 287 476 305 475 q 255 488 269 477 q 244 514 241 498 l 282 685 z "},"ļ":{"ha":274,"x_min":20,"x_max":258,"o":"m 28 53 q 25 153 20 85 q 42 303 30 221 q 70 472 54 385 q 100 631 85 559 q 125 749 115 703 q 136 796 136 795 q 155 829 140 818 q 188 841 171 841 q 218 828 205 841 q 231 787 231 815 q 172 498 194 616 q 137 301 149 380 q 121 175 125 218 q 121 113 118 132 q 132 92 125 94 q 145 90 138 90 q 170 104 156 91 q 195 132 183 117 q 223 134 208 141 q 248 113 239 127 q 257 80 258 99 q 236 45 256 61 q 178 3 209 19 q 117 -14 146 -14 q 64 1 90 -14 q 28 53 38 15 m 79 -90 q 73 -67 68 -80 q 88 -45 77 -54 q 115 -35 99 -37 q 142 -47 130 -34 q 163 -85 155 -62 q 174 -136 172 -109 q 166 -193 175 -164 q 134 -247 157 -221 q 106 -261 122 -260 q 79 -255 91 -262 q 61 -237 66 -248 q 65 -213 56 -225 q 89 -181 81 -199 q 97 -145 96 -163 q 92 -113 98 -127 q 79 -90 87 -98 z "},"ŀ":{"ha":274,"x_min":20,"x_max":312,"o":"m 28 53 q 25 153 20 85 q 42 303 30 221 q 70 472 54 385 q 100 631 85 559 q 125 749 115 703 q 136 796 136 795 q 155 829 140 818 q 188 841 171 841 q 218 828 205 841 q 231 787 231 815 q 172 498 194 616 q 137 301 149 380 q 121 175 125 218 q 121 113 118 132 q 132 92 125 94 q 145 90 138 90 q 170 104 156 91 q 195 132 183 117 q 223 134 208 141 q 248 113 239 127 q 257 80 258 99 q 236 45 256 61 q 178 3 209 19 q 117 -14 146 -14 q 64 1 90 -14 q 28 53 38 15 m 186 358 q 211 401 191 384 q 256 419 231 419 q 297 401 282 419 q 307 358 312 384 q 282 315 302 332 q 236 298 262 298 q 196 315 210 298 q 186 358 182 332 z "},"ń":{"ha":636,"x_min":27,"x_max":608,"o":"m 374 178 q 392 279 392 240 q 382 341 392 319 q 356 372 372 363 q 327 380 340 380 q 241 346 279 380 q 179 269 202 312 l 127 30 q 106 -5 122 8 q 72 -19 90 -18 q 41 -9 54 -20 q 27 31 27 3 l 100 439 q 122 475 104 465 q 159 484 140 486 q 191 473 178 483 q 202 446 205 463 l 199 422 q 275 467 236 450 q 343 481 315 483 q 469 401 434 479 q 463 157 503 324 q 458 114 456 129 q 465 92 460 99 q 478 85 471 85 q 490 84 486 84 q 517 101 500 85 q 545 132 533 117 q 573 134 557 141 q 598 113 589 127 q 607 80 608 99 q 586 45 606 61 q 530 3 559 19 q 472 -14 502 -14 q 445 -11 468 -14 q 399 9 422 -8 q 365 66 376 27 q 374 178 354 106 m 376 705 q 414 722 396 724 q 444 705 433 719 q 454 671 454 692 q 437 635 454 651 l 334 540 q 296 524 313 521 q 268 541 278 528 q 257 573 258 555 q 269 604 256 591 l 376 705 z "},"ŉ":{"ha":636,"x_min":27,"x_max":608,"o":"m 374 178 q 392 279 392 240 q 382 341 392 319 q 356 372 372 363 q 327 380 340 380 q 241 346 279 380 q 179 269 202 312 l 127 30 q 106 -5 122 8 q 72 -19 90 -18 q 41 -9 54 -20 q 27 31 27 3 l 100 439 q 122 475 104 465 q 159 484 140 486 q 191 473 178 483 q 202 446 205 463 l 199 422 q 275 467 236 450 q 343 481 315 483 q 469 401 434 479 q 463 157 503 324 q 458 114 456 129 q 465 92 460 99 q 478 85 471 85 q 490 84 486 84 q 517 101 500 85 q 545 132 533 117 q 573 134 557 141 q 598 113 589 127 q 607 80 608 99 q 586 45 606 61 q 530 3 559 19 q 472 -14 502 -14 q 445 -11 468 -14 q 399 9 422 -8 q 365 66 376 27 q 374 178 354 106 m 118 700 q 112 722 107 709 q 127 744 117 735 q 154 754 138 753 q 182 742 170 755 q 203 704 194 727 q 213 653 212 681 q 205 597 214 625 q 174 543 197 568 q 146 528 161 529 q 118 534 130 528 q 100 553 106 541 q 104 576 95 564 q 128 608 121 590 q 136 644 136 627 q 132 677 137 662 q 118 700 126 692 z "},"ň":{"ha":636,"x_min":27,"x_max":608,"o":"m 374 178 q 392 279 392 240 q 382 341 392 319 q 356 372 372 363 q 327 380 340 380 q 241 346 279 380 q 179 269 202 312 l 127 30 q 106 -5 122 8 q 72 -19 90 -18 q 41 -9 54 -20 q 27 31 27 3 l 100 439 q 122 475 104 465 q 159 484 140 486 q 191 473 178 483 q 202 446 205 463 l 199 422 q 275 467 236 450 q 343 481 315 483 q 469 401 434 479 q 463 157 503 324 q 458 114 456 129 q 465 92 460 99 q 478 85 471 85 q 490 84 486 84 q 517 101 500 85 q 545 132 533 117 q 573 134 557 141 q 598 113 589 127 q 607 80 608 99 q 586 45 606 61 q 530 3 559 19 q 472 -14 502 -14 q 445 -11 468 -14 q 399 9 422 -8 q 365 66 376 27 q 374 178 354 106 m 395 541 q 330 512 363 509 q 283 541 297 515 l 236 635 q 242 663 233 648 q 265 687 251 678 q 295 695 279 696 q 321 678 311 694 l 354 620 l 403 677 q 432 694 416 693 q 460 687 448 694 q 478 666 472 680 q 476 639 484 652 l 395 541 z "},"ņ":{"ha":636,"x_min":27,"x_max":608,"o":"m 374 178 q 392 279 392 240 q 382 341 392 319 q 356 372 372 363 q 327 380 340 380 q 241 346 279 380 q 179 269 202 312 l 127 30 q 106 -5 122 8 q 72 -19 90 -18 q 41 -9 54 -20 q 27 31 27 3 l 100 439 q 122 475 104 465 q 159 484 140 486 q 191 473 178 483 q 202 446 205 463 l 199 422 q 275 467 236 450 q 343 481 315 483 q 469 401 434 479 q 463 157 503 324 q 458 114 456 129 q 465 92 460 99 q 478 85 471 85 q 490 84 486 84 q 517 101 500 85 q 545 132 533 117 q 573 134 557 141 q 598 113 589 127 q 607 80 608 99 q 586 45 606 61 q 530 3 559 19 q 472 -14 502 -14 q 445 -11 468 -14 q 399 9 422 -8 q 365 66 376 27 q 374 178 354 106 m 232 -52 q 226 -29 221 -42 q 241 -7 231 -16 q 268 3 252 1 q 296 -9 283 4 q 317 -47 308 -24 q 327 -98 326 -71 q 319 -155 328 -126 q 288 -209 311 -183 q 260 -223 275 -222 q 232 -217 244 -224 q 214 -199 220 -210 q 218 -175 209 -187 q 242 -143 235 -161 q 250 -107 250 -125 q 245 -75 251 -90 q 232 -52 240 -60 z "},"ñ":{"ha":636,"x_min":27,"x_max":608,"o":"m 374 178 q 392 279 392 240 q 382 341 392 319 q 356 372 372 363 q 327 380 340 380 q 241 346 279 380 q 179 269 202 312 l 127 30 q 106 -5 122 8 q 72 -19 90 -18 q 41 -9 54 -20 q 27 31 27 3 l 100 439 q 122 475 104 465 q 159 484 140 486 q 191 473 178 483 q 202 446 205 463 l 199 422 q 275 467 236 450 q 343 481 315 483 q 469 401 434 479 q 463 157 503 324 q 458 114 456 129 q 465 92 460 99 q 478 85 471 85 q 490 84 486 84 q 517 101 500 85 q 545 132 533 117 q 573 134 557 141 q 598 113 589 127 q 607 80 608 99 q 586 45 606 61 q 530 3 559 19 q 472 -14 502 -14 q 445 -11 468 -14 q 399 9 422 -8 q 365 66 376 27 q 374 178 354 106 m 494 689 q 519 713 502 707 q 551 717 536 720 q 576 700 567 713 q 581 663 586 686 q 557 611 572 635 q 524 570 543 587 q 483 543 505 552 q 439 532 461 533 q 382 545 404 529 q 344 581 361 562 q 309 614 327 600 q 266 625 292 629 q 233 605 244 623 q 208 557 222 587 q 178 530 195 534 q 147 534 161 526 q 127 561 133 543 q 133 601 121 579 q 194 682 160 648 q 275 715 228 716 q 337 700 315 715 q 375 668 359 685 q 406 637 391 651 q 445 623 420 623 q 477 642 467 623 q 494 689 487 661 z "},"ó":{"ha":499,"x_min":20,"x_max":456,"o":"m 35 231 q 66 324 43 279 q 121 402 88 369 q 196 455 153 435 q 288 475 239 475 q 390 443 353 475 q 441 363 427 411 q 450 258 456 315 q 422 152 444 201 q 370 71 403 109 q 298 12 338 34 q 215 -16 259 -11 q 127 1 171 -20 q 44 90 68 28 q 35 231 20 152 m 127 229 q 132 144 121 186 q 174 92 142 103 q 233 93 203 83 q 286 124 262 103 q 326 174 309 145 q 347 229 343 202 q 351 283 353 258 q 341 328 350 309 q 315 359 332 347 q 269 373 297 372 q 224 363 247 374 q 181 331 201 351 q 147 284 161 311 q 127 229 133 258 m 298 697 q 337 713 319 716 q 366 697 355 711 q 377 663 377 684 q 359 627 377 643 l 256 532 q 218 516 236 513 q 191 533 201 519 q 180 565 180 547 q 191 595 179 583 l 298 697 z "},"ŏ":{"ha":499,"x_min":20,"x_max":456,"o":"m 35 231 q 66 324 43 279 q 121 402 88 369 q 196 455 153 435 q 288 475 239 475 q 390 443 353 475 q 441 363 427 411 q 450 258 456 315 q 422 152 444 201 q 370 71 403 109 q 298 12 338 34 q 215 -16 259 -11 q 127 1 171 -20 q 44 90 68 28 q 35 231 20 152 m 127 229 q 132 144 121 186 q 174 92 142 103 q 233 93 203 83 q 286 124 262 103 q 326 174 309 145 q 347 229 343 202 q 351 283 353 258 q 341 328 350 309 q 315 359 332 347 q 269 373 297 372 q 224 363 247 374 q 181 331 201 351 q 147 284 161 311 q 127 229 133 258 m 374 648 q 402 666 385 665 q 431 659 419 667 q 448 635 444 651 q 438 601 452 620 q 362 536 407 557 q 273 516 317 515 q 191 537 228 517 q 136 598 153 557 q 136 633 127 618 q 161 656 145 648 q 191 662 176 663 q 208 648 205 661 q 241 602 218 616 q 288 591 263 589 q 337 608 313 593 q 374 648 361 623 z "},"ô":{"ha":499,"x_min":20,"x_max":456,"o":"m 35 231 q 66 324 43 279 q 121 402 88 369 q 196 455 153 435 q 288 475 239 475 q 390 443 353 475 q 441 363 427 411 q 450 258 456 315 q 422 152 444 201 q 370 71 403 109 q 298 12 338 34 q 215 -16 259 -11 q 127 1 171 -20 q 44 90 68 28 q 35 231 20 152 m 127 229 q 132 144 121 186 q 174 92 142 103 q 233 93 203 83 q 286 124 262 103 q 326 174 309 145 q 347 229 343 202 q 351 283 353 258 q 341 328 350 309 q 315 359 332 347 q 269 373 297 372 q 224 363 247 374 q 181 331 201 351 q 147 284 161 311 q 127 229 133 258 m 254 670 q 318 699 285 703 q 365 670 351 696 l 412 576 q 409 549 418 564 q 385 525 400 534 q 353 515 370 515 q 327 533 336 515 l 294 591 l 245 534 q 215 517 232 518 q 185 525 198 517 q 167 547 172 533 q 172 572 161 560 l 254 670 z "},"ö":{"ha":499,"x_min":20,"x_max":456,"o":"m 35 231 q 66 324 43 279 q 121 402 88 369 q 196 455 153 435 q 288 475 239 475 q 390 443 353 475 q 441 363 427 411 q 450 258 456 315 q 422 152 444 201 q 370 71 403 109 q 298 12 338 34 q 215 -16 259 -11 q 127 1 171 -20 q 44 90 68 28 q 35 231 20 152 m 127 229 q 132 144 121 186 q 174 92 142 103 q 233 93 203 83 q 286 124 262 103 q 326 174 309 145 q 347 229 343 202 q 351 283 353 258 q 341 328 350 309 q 315 359 332 347 q 269 373 297 372 q 224 363 247 374 q 181 331 201 351 q 147 284 161 311 q 127 229 133 258 m 123 568 q 149 612 129 594 q 194 629 168 629 q 235 612 220 629 q 244 568 250 594 q 220 526 240 543 q 174 509 199 509 q 134 526 148 509 q 123 568 119 543 m 294 568 q 319 612 300 594 q 365 629 339 629 q 406 612 391 629 q 415 568 420 594 q 391 526 411 543 q 345 509 370 509 q 304 526 319 509 q 294 568 290 543 z "}}}
